<?xml version="1.0" encoding="utf-8"?>
<!-- Generator: Adobe Illustrator 18.0.0, SVG Export Plug-In . SVG Version: 6.00 Build 0)  -->
<!DOCTYPE svg PUBLIC "-//W3C//DTD SVG 1.1//EN" "http://www.w3.org/Graphics/SVG/1.1/DTD/svg11.dtd">
<svg version="1.1" xmlns="http://www.w3.org/2000/svg" xmlns:xlink="http://www.w3.org/1999/xlink" x="0px" y="0px"
	 viewBox="29.6 -73.5 371 294" enable-background="new 29.6 -73.5 371 294" xml:space="preserve">
<g id="图层_2">
</g>
<g id="图层_1">
	<g>
		<rect x="108.1" y="65" fill="#DDDDDD" width="137" height="77"/>
		<g>
			<path fill="#666666" d="M243.6,66.5v74h-134v-74H243.6 M246.6,63.5h-140v80h140V63.5L246.6,63.5z"/>
		</g>
	</g>
	<g>
		<rect x="108.1" y="142" fill="#DDDDDD" width="137" height="77"/>
		<g>
			<path fill="#666666" d="M243.6,143.5v74h-134v-74H243.6 M246.6,140.5h-140v80h140V140.5L246.6,140.5z"/>
		</g>
	</g>
	<g>
		<rect x="245.1" y="-72" fill="#DDDDDD" width="77" height="137"/>
		<g>
			<path fill="#666666" d="M320.6-70.5v134h-74v-134H320.6 M323.6-73.5h-80v140h80V-73.5L323.6-73.5z"/>
		</g>
	</g>
	<g>
		<rect x="322.1" y="-72" fill="#DDDDDD" width="77" height="137"/>
		<g>
			<path fill="#666666" d="M397.6-70.5v134h-74v-134H397.6 M400.6-73.5h-80v140h80V-73.5L400.6-73.5z"/>
		</g>
	</g>
	<g>
		<rect x="245.1" y="65" fill="#DDDDDD" width="77" height="77"/>
		<g>
			<path fill="#666666" d="M320.6,66.5v74h-74v-74H320.6 M323.6,63.5h-80v80h80V63.5L323.6,63.5z"/>
		</g>
	</g>
	<g>
		<rect x="31.1" y="142" fill="#DDDDDD" width="77" height="77"/>
		<g>
			<path fill="#666666" d="M106.6,143.5v74h-74v-74H106.6 M109.6,140.5h-80v80h80V140.5L109.6,140.5z"/>
		</g>
	</g>
</g>
</svg>
