<?xml version="1.0" encoding="utf-8"?>
<!-- Generator: Adobe Illustrator 18.0.0, SVG Export Plug-In . SVG Version: 6.00 Build 0)  -->
<!DOCTYPE svg PUBLIC "-//W3C//DTD SVG 1.1//EN" "http://www.w3.org/Graphics/SVG/1.1/DTD/svg11.dtd">
<svg version="1.1" xmlns="http://www.w3.org/2000/svg" xmlns:xlink="http://www.w3.org/1999/xlink" x="0px" y="0px"
	 viewBox="-7.3 -73.4 431 294" enable-background="new -7.3 -73.4 431 294" xml:space="preserve">
<g id="图层_2" display="none">
	
		<image display="inline" overflow="visible" width="431" height="294" xlink:href="../../../../Project/k12-class-tools/app/tools/views/OpenShapeTool/resources/wood/images/shape/prism_1.png"  transform="matrix(1 0 0 1 -7.3126 -73.372)">
	</image>
</g>
<g id="图层_1">
	<g>
		<rect x="-5.8" y="-71.9" fill="#DDDDDD" width="137" height="77"/>
		<g>
			<path fill="#666666" d="M129.6-70.4v74h-134v-74H129.6 M132.6-73.4h-140v80h140V-73.4L132.6-73.4z"/>
		</g>
	</g>
	<g>
		<rect x="208.1" y="5.2" fill="#DDDDDD" width="137" height="77"/>
		<g>
			<path fill="#666666" d="M343.6,6.7v74h-134v-74H343.6 M346.6,3.7h-140v80h140V3.7L346.6,3.7z"/>
		</g>
	</g>
	<g>
		<rect x="-5.8" y="5.1" fill="#DDDDDD" width="137" height="77"/>
		<g>
			<path fill="#666666" d="M129.6,6.6v74h-134v-74H129.6 M132.6,3.6h-140v80h140V3.6L132.6,3.6z"/>
		</g>
	</g>
	<g>
		<rect x="131.1" y="82.2" fill="#DDDDDD" width="77" height="137"/>
		<g>
			<path fill="#666666" d="M206.6,83.7v134h-74v-134H206.6 M209.6,80.7h-80v140h80V80.7L209.6,80.7z"/>
		</g>
	</g>
	<g>
		<rect x="131.1" y="5.2" fill="#DDDDDD" width="77" height="77"/>
		<g>
			<path fill="#666666" d="M206.6,6.7v74h-74v-74H206.6 M209.6,3.7h-80v80h80V3.7L209.6,3.7z"/>
		</g>
	</g>
	<g>
		<rect x="345" y="5.2" fill="#DDDDDD" width="77" height="77"/>
		<g>
			<path fill="#666666" d="M420.6,6.7v74h-74v-74H420.6 M423.6,3.7h-80v80h80V3.7L423.6,3.7z"/>
		</g>
	</g>
</g>
</svg>
