<?xml version="1.0" encoding="utf-8"?>
<!-- Generator: Adobe Illustrator 18.0.0, SVG Export Plug-In . SVG Version: 6.00 Build 0)  -->
<!DOCTYPE svg PUBLIC "-//W3C//DTD SVG 1.1//EN" "http://www.w3.org/Graphics/SVG/1.1/DTD/svg11.dtd">
<svg version="1.1" xmlns="http://www.w3.org/2000/svg" xmlns:xlink="http://www.w3.org/1999/xlink" x="0px" y="0px"
	 viewBox="106.6 -13.6 567.8 157.1" enable-background="new 106.6 -13.6 567.8 157.1" xml:space="preserve">
<g id="图层_2">
</g>
<g id="图层_1">
	<g>
		<rect x="108.1" y="65" fill="#DDDDDD" width="137" height="77"/>
		<g>
			<path fill="#666666" d="M243.6,66.5v74h-134v-74H243.6 M246.6,63.5h-140v80h140V63.5L246.6,63.5z"/>
		</g>
	</g>
	<g>
		<rect x="322.1" y="65" fill="#DDDDDD" width="137" height="77"/>
		<g>
			<path fill="#666666" d="M457.5,66.5v74h-134v-74H457.5 M460.5,63.5h-140v80h140V63.5L460.5,63.5z"/>
		</g>
	</g>
	<g>
		<rect x="535.9" y="-12.1" fill="#DDDDDD" width="137" height="77"/>
		<g>
			<path fill="#666666" d="M671.4-10.6v74h-134v-74H671.4 M674.4-13.6h-140v80h140V-13.6L674.4-13.6z"/>
		</g>
	</g>
	<g>
		<rect x="322.1" y="-12.1" fill="#DDDDDD" width="137" height="77"/>
		<g>
			<path fill="#666666" d="M457.5-10.6v74h-134v-74H457.5 M460.5-13.6h-140v80h140V-13.6L460.5-13.6z"/>
		</g>
	</g>
	<g>
		<rect x="245.1" y="65" fill="#DDDDDD" width="77" height="77"/>
		<g>
			<path fill="#666666" d="M320.6,66.5v74h-74v-74H320.6 M323.6,63.5h-80v80h80V63.5L323.6,63.5z"/>
		</g>
	</g>
	<g>
		<rect x="458.9" y="-12" fill="#DDDDDD" width="77" height="77"/>
		<g>
			<path fill="#666666" d="M534.4-10.5v74h-74v-74H534.4 M537.4-13.5h-80v80h80V-13.5L537.4-13.5z"/>
		</g>
	</g>
</g>
</svg>
