<?xml version="1.0" encoding="utf-8"?>
<!-- Generator: Adobe Illustrator 18.0.0, SVG Export Plug-In . SVG Version: 6.00 Build 0)  -->
<!DOCTYPE svg PUBLIC "-//W3C//DTD SVG 1.1//EN" "http://www.w3.org/Graphics/SVG/1.1/DTD/svg11.dtd">
<svg version="1.1" xmlns="http://www.w3.org/2000/svg" xmlns:xlink="http://www.w3.org/1999/xlink" x="0px" y="0px"
	 viewBox="-7.3 -73.4 431 294.1" enable-background="new -7.3 -73.4 431 294.1" xml:space="preserve">
<g id="图层_2" display="none">
	
		<image display="inline" overflow="visible" width="431" height="294" xlink:href="../../../../Project/k12-class-tools/app/tools/views/OpenShapeTool/resources/wood/images/shape/prism_1.png"  transform="matrix(1 0 0 1 -7.3126 -73.372)">
	</image>
</g>
<g id="图层_1">
	<g>
		<rect x="-5.8" y="-71.8" fill="#DDDDDD" width="77" height="137"/>
		<g>
			<path fill="#666666" d="M69.7-70.3v134h-74v-134H69.7 M72.7-73.3h-80v140h80V-73.3L72.7-73.3z"/>
		</g>
	</g>
	<g>
		<rect x="285.1" y="65.1" fill="#DDDDDD" width="137" height="77"/>
		<g>
			<path fill="#666666" d="M420.6,66.6v74h-134v-74H420.6 M423.6,63.6h-140v80h140V63.6L423.6,63.6z"/>
		</g>
	</g>
	<g>
		<rect x="71.1" y="65.1" fill="#DDDDDD" width="137" height="77"/>
		<g>
			<path fill="#666666" d="M206.6,66.6v74h-134v-74H206.6 M209.6,63.6h-140v80h140V63.6L209.6,63.6z"/>
		</g>
	</g>
	<g>
		<rect x="285.1" y="142.1" fill="#DDDDDD" width="137" height="77"/>
		<g>
			<path fill="#666666" d="M420.6,143.6v74h-134v-74H420.6 M423.6,140.6h-140v80h140V140.6L423.6,140.6z"/>
		</g>
	</g>
	<g>
		<rect x="-5.8" y="65.1" fill="#DDDDDD" width="77" height="77"/>
		<g>
			<path fill="#666666" d="M69.7,66.6v74h-74v-74H69.7 M72.7,63.6h-80v80h80V63.6L72.7,63.6z"/>
		</g>
	</g>
	<g>
		<rect x="208.1" y="65.2" fill="#DDDDDD" width="77" height="77"/>
		<g>
			<path fill="#666666" d="M283.6,66.7v74h-74v-74H283.6 M286.6,63.7h-80v80h80V63.7L286.6,63.7z"/>
		</g>
	</g>
</g>
</svg>
