<?xml version="1.0" encoding="iso-8859-1"?>
<!-- Generator: Adobe Illustrator 18.0.0, SVG Export Plug-In . SVG Version: 6.00 Build 0)  -->
<!DOCTYPE svg PUBLIC "-//W3C//DTD SVG 1.1//EN" "http://www.w3.org/Graphics/SVG/1.1/DTD/svg11.dtd">
<svg version="1.1" xmlns="http://www.w3.org/2000/svg" xmlns:xlink="http://www.w3.org/1999/xlink" x="0px" y="0px"
	 viewBox="66.097 -67.989 231.431 267.632" style="enable-background:new 66.097 -67.989 231.431 267.632;" xml:space="preserve">
<g id="&#x56FE;&#x5C42;_2">
</g>
<g id="&#x56FE;&#x5C42;_1">
	<g>
		<rect x="67.098" y="98.729" style="fill:#DDDDDD;" width="31.917" height="99.914"/>
		<g>
			<path style="fill:#666666;" d="M98.014,99.729v97.914H68.097V99.729H98.014 M100.014,97.729H66.097v101.914h33.917V97.729
				L100.014,97.729z"/>
		</g>
	</g>
	<g>
		<rect x="198.78" y="32.811" style="fill:#DDDDDD;" width="31.917" height="65.872"/>
		<g>
			<path style="fill:#666666;" d="M229.696,33.811v63.872H199.78V33.811H229.696 M231.696,31.811H197.78v67.872h33.917V31.811
				L231.696,31.811z"/>
		</g>
	</g>
	<g>
		<rect x="230.656" y="-66.951" style="fill:#DDDDDD;" width="65.872" height="99.75"/>
		<g>
			<path style="fill:#666666;" d="M295.529-65.95V31.8h-63.872v-97.75H295.529 M297.529-67.95h-67.872V33.8h67.872V-67.95
				L297.529-67.95z"/>
		</g>
	</g>
	<g>
		<rect x="99.017" y="32.811" style="fill:#DDDDDD;" width="99.75" height="65.872"/>
		<g>
			<path style="fill:#666666;" d="M197.767,33.811v63.872h-97.75V33.811H197.767 M199.767,31.811H98.017v67.872h101.75V31.811
				L199.767,31.811z"/>
		</g>
	</g>
	<g>
		<rect x="67.097" y="32.811" style="fill:#DDDDDD;" width="31.917" height="65.872"/>
		<g>
			<path style="fill:#666666;" d="M98.014,33.811v63.872H68.097V33.811H98.014 M100.014,31.811H66.097v67.872h33.917V31.811
				L100.014,31.811z"/>
		</g>
	</g>
	<g>
		<rect x="198.78" y="-66.99" style="fill:#DDDDDD;" width="31.917" height="99.789"/>
		<g>
			<path style="fill:#666666;" d="M229.696-65.989V31.8H199.78v-97.789H229.696 M231.696-67.989H197.78V33.8h33.917V-67.989
				L231.696-67.989z"/>
		</g>
	</g>
</g>
</svg>
