<?xml version="1.0" encoding="iso-8859-1"?>
<!-- Generator: Adobe Illustrator 18.0.0, SVG Export Plug-In . SVG Version: 6.00 Build 0)  -->
<!DOCTYPE svg PUBLIC "-//W3C//DTD SVG 1.1//EN" "http://www.w3.org/Graphics/SVG/1.1/DTD/svg11.dtd">
<svg version="1.1" xmlns="http://www.w3.org/2000/svg" xmlns:xlink="http://www.w3.org/1999/xlink" x="0px" y="0px"
	 viewBox="66.078 0.023 299.276 199.62" style="enable-background:new 66.078 0.023 299.276 199.62;" xml:space="preserve">
<g id="&#x56FE;&#x5C42;_2">
</g>
<g id="&#x56FE;&#x5C42;_1">
	<g>
		<rect x="232.745" y="66.972" style="fill:#DDDDDD;" width="31.917" height="99.914"/>
		<g>
			<path style="fill:#666666;" d="M263.661,67.972v97.914h-29.917V67.972H263.661 M265.661,65.972h-33.917v101.914h33.917V65.972
				L265.661,65.972z"/>
		</g>
	</g>
	<g>
		<rect x="232.745" y="1.023" style="fill:#DDDDDD;" width="31.917" height="65.872"/>
		<g>
			<path style="fill:#666666;" d="M263.661,2.023v63.872h-29.917V2.023H263.661 M265.661,0.023h-33.917v67.872h33.917V0.023
				L265.661,0.023z"/>
		</g>
	</g>
	<g>
		<rect x="166.867" y="66.972" style="fill:#DDDDDD;" width="65.872" height="99.75"/>
		<g>
			<path style="fill:#666666;" d="M231.739,67.972v97.75h-63.872v-97.75H231.739 M233.739,65.972h-67.872v101.75h67.872V65.972
				L233.739,65.972z"/>
		</g>
	</g>
	<g>
		<rect x="264.604" y="1.023" style="fill:#DDDDDD;" width="99.75" height="65.872"/>
		<g>
			<path style="fill:#666666;" d="M363.355,2.023v63.872h-97.75V2.023H363.355 M365.355,0.023h-101.75v67.872h101.75V0.023
				L365.355,0.023z"/>
		</g>
	</g>
	<g>
		<rect x="166.867" y="166.727" style="fill:#DDDDDD;" width="65.872" height="31.916"/>
		<g>
			<path style="fill:#666666;" d="M231.739,167.727v29.917h-63.872v-29.917H231.739 M233.739,165.727h-67.872v33.917h67.872V165.727
				L233.739,165.727z"/>
		</g>
	</g>
	<g>
		<rect x="67.078" y="166.727" style="fill:#DDDDDD;" width="99.789" height="31.917"/>
		<g>
			<path style="fill:#666666;" d="M165.867,167.727v29.917H68.078v-29.917H165.867 M167.867,165.727H66.078v33.917h101.789V165.727
				L167.867,165.727z"/>
		</g>
	</g>
</g>
</svg>
