<?xml version="1.0" encoding="utf-8"?>
<!-- Generator: Adobe Illustrator 18.0.0, SVG Export Plug-In . SVG Version: 6.00 Build 0)  -->
<!DOCTYPE svg PUBLIC "-//W3C//DTD SVG 1.1//EN" "http://www.w3.org/Graphics/SVG/1.1/DTD/svg11.dtd">
<svg version="1.1" id="图层_1" xmlns="http://www.w3.org/2000/svg" xmlns:xlink="http://www.w3.org/1999/xlink" x="0px" y="0px"
	 viewBox="65.7 0.1 265.6 199.7" enable-background="new 65.7 0.1 265.6 199.7" xml:space="preserve">
<g>
	<rect x="166.6" y="1.1" fill="#DDDDDD" width="31.9" height="99.9"/>
	<g>
		<path fill="#666666" d="M197.5,2.1V100h-29.9V2.1H197.5 M199.5,0.1h-33.9V102h33.9V0.1L199.5,0.1z"/>
	</g>
</g>
<g>
	<rect x="166.6" y="101.1" fill="#DDDDDD" width="31.9" height="65.9"/>
	<g>
		<path fill="#666666" d="M197.5,102.1v63.9h-29.9v-63.9H197.5 M199.5,100.1h-33.9v67.9h33.9V100.1L199.5,100.1z"/>
	</g>
</g>
<g>
	<rect x="66.7" y="101.1" fill="#DDDDDD" width="99.8" height="65.9"/>
	<g>
		<path fill="#666666" d="M165.4,102.1v63.9H67.7v-63.9H165.4 M167.4,100.1H65.7v67.9h101.8V100.1L167.4,100.1z"/>
	</g>
</g>
<g>
	<rect x="198.5" y="101.1" fill="#DDDDDD" width="99.8" height="65.9"/>
	<g>
		<path fill="#666666" d="M297.2,102.1v63.9h-97.7v-63.9H297.2 M299.2,100.1H197.5v67.9h101.7V100.1L299.2,100.1z"/>
	</g>
</g>
<g>
	<rect x="298.4" y="101.1" fill="#DDDDDD" width="31.9" height="65.9"/>
	<g>
		<path fill="#666666" d="M329.3,102.1v63.9h-29.9v-63.9H329.3 M331.3,100.1h-33.9v67.9h33.9V100.1L331.3,100.1z"/>
	</g>
</g>
<g>
	<rect x="198.5" y="166.9" fill="#DDDDDD" width="99.8" height="31.9"/>
	<g>
		<path fill="#666666" d="M297.2,167.9v29.9h-97.8v-29.9H297.2 M299.2,165.9H197.5v33.9h101.8V165.9L299.2,165.9z"/>
	</g>
</g>
</svg>
