<?xml version="1.0" encoding="iso-8859-1"?>
<!-- Generator: Adobe Illustrator 18.0.0, SVG Export Plug-In . SVG Version: 6.00 Build 0)  -->
<!DOCTYPE svg PUBLIC "-//W3C//DTD SVG 1.1//EN" "http://www.w3.org/Graphics/SVG/1.1/DTD/svg11.dtd">
<svg version="1.1" xmlns="http://www.w3.org/2000/svg" xmlns:xlink="http://www.w3.org/1999/xlink" x="0px" y="0px"
	 viewBox="65.687 0.128 265.646 199.744" style="enable-background:new 65.687 0.128 265.646 199.744;" xml:space="preserve">
<g id="&#x56FE;&#x5C42;_2">
</g>
<g id="&#x56FE;&#x5C42;_1">
	<g>
		<rect x="66.688" y="1.128" style="fill:#DDDDDD;" width="31.917" height="99.914"/>
		<g>
			<path style="fill:#666666;" d="M97.604,2.128v97.914H67.687V2.128H97.604 M99.604,0.128H65.687v101.914h33.917V0.128
				L99.604,0.128z"/>
		</g>
	</g>
	<g>
		<rect x="198.461" y="101.063" style="fill:#DDDDDD;" width="31.917" height="65.872"/>
		<g>
			<path style="fill:#666666;" d="M229.378,102.063v63.872h-29.917v-63.872H229.378 M231.378,100.063h-33.917v67.872h33.917V100.063
				L231.378,100.063z"/>
		</g>
	</g>
	<g>
		<rect x="98.621" y="101.063" style="fill:#DDDDDD;" width="99.75" height="65.872"/>
		<g>
			<path style="fill:#666666;" d="M197.371,102.063v63.872h-97.75v-63.872H197.371 M199.371,100.063H97.621v67.872h101.75V100.063
				L199.371,100.063z"/>
		</g>
	</g>
	<g>
		<rect x="230.583" y="101.063" style="fill:#DDDDDD;" width="99.75" height="65.872"/>
		<g>
			<path style="fill:#666666;" d="M329.333,102.063v63.872h-97.75v-63.872H329.333 M331.333,100.063h-101.75v67.872h101.75V100.063
				L331.333,100.063z"/>
		</g>
	</g>
	<g>
		<rect x="66.688" y="101.063" style="fill:#DDDDDD;" width="31.917" height="65.872"/>
		<g>
			<path style="fill:#666666;" d="M97.604,102.063v63.872H67.687v-63.872H97.604 M99.604,100.063H65.687v67.872h33.917V100.063
				L99.604,100.063z"/>
		</g>
	</g>
	<g>
		<rect x="230.545" y="166.956" style="fill:#DDDDDD;" width="99.789" height="31.916"/>
		<g>
			<path style="fill:#666666;" d="M329.333,167.955v29.917h-97.789v-29.917H329.333 M331.333,165.955H229.545v33.917h101.789
				V165.955L331.333,165.955z"/>
		</g>
	</g>
</g>
</svg>
