<?xml version="1.0" encoding="iso-8859-1"?>
<!-- Generator: Adobe Illustrator 18.0.0, SVG Export Plug-In . SVG Version: 6.00 Build 0)  -->
<!DOCTYPE svg PUBLIC "-//W3C//DTD SVG 1.1//EN" "http://www.w3.org/Graphics/SVG/1.1/DTD/svg11.dtd">
<svg version="1.1" xmlns="http://www.w3.org/2000/svg" xmlns:xlink="http://www.w3.org/1999/xlink" x="0px" y="0px"
	 viewBox="65.687 0.128 265.646 199.744" style="enable-background:new 65.687 0.128 265.646 199.744;" xml:space="preserve">
<g id="&#x56FE;&#x5C42;_2">
</g>
<g id="&#x56FE;&#x5C42;_1">
	<g>
		<rect x="166.532" y="98.958" style="fill:#DDDDDD;" width="31.917" height="99.914"/>
		<g>
			<path style="fill:#666666;" d="M197.448,99.958v97.914h-29.917V99.958H197.448 M199.448,97.958h-33.917v101.914h33.917V97.958
				L199.448,97.958z"/>
		</g>
	</g>
	<g>
		<rect x="298.417" y="33.053" style="fill:#DDDDDD;" width="31.917" height="65.872"/>
		<g>
			<path style="fill:#666666;" d="M329.333,34.053v63.872h-29.917V34.053H329.333 M331.333,32.053h-33.917v67.872h33.917V32.053
				L331.333,32.053z"/>
		</g>
	</g>
	<g>
		<rect x="66.726" y="33.053" style="fill:#DDDDDD;" width="99.75" height="65.872"/>
		<g>
			<path style="fill:#666666;" d="M165.476,34.053v63.872h-97.75V34.053H165.476 M167.476,32.053H65.726v67.872h101.75V32.053
				L167.476,32.053z"/>
		</g>
	</g>
	<g>
		<rect x="198.47" y="33.053" style="fill:#DDDDDD;" width="99.75" height="65.872"/>
		<g>
			<path style="fill:#666666;" d="M297.221,34.053v63.872h-97.75V34.053H297.221 M299.221,32.053h-101.75v67.872h101.75V32.053
				L299.221,32.053z"/>
		</g>
	</g>
	<g>
		<rect x="166.532" y="33.053" style="fill:#DDDDDD;" width="31.917" height="65.872"/>
		<g>
			<path style="fill:#666666;" d="M197.448,34.053v63.872h-29.917V34.053H197.448 M199.448,32.053h-33.917v67.872h33.917V32.053
				L199.448,32.053z"/>
		</g>
	</g>
	<g>
		<rect x="66.687" y="1.128" style="fill:#DDDDDD;" width="99.789" height="31.916"/>
		<g>
			<path style="fill:#666666;" d="M165.476,2.128v29.917H67.687V2.128H165.476 M167.476,0.128H65.687v33.917h101.789V0.128
				L167.476,0.128z"/>
		</g>
	</g>
</g>
</svg>
