<?xml version="1.0" encoding="iso-8859-1"?>
<!-- Generator: Adobe Illustrator 18.0.0, SVG Export Plug-In . SVG Version: 6.00 Build 0)  -->
<!DOCTYPE svg PUBLIC "-//W3C//DTD SVG 1.1//EN" "http://www.w3.org/Graphics/SVG/1.1/DTD/svg11.dtd">
<svg version="1.1" xmlns="http://www.w3.org/2000/svg" xmlns:xlink="http://www.w3.org/1999/xlink" x="0px" y="0px"
	 viewBox="65.726 0.128 265.387 267.495" style="enable-background:new 65.726 0.128 265.387 267.495;" xml:space="preserve">
<g id="&#x56FE;&#x5C42;_2">
</g>
<g id="&#x56FE;&#x5C42;_1">
	<g>
		<rect x="66.726" y="1.128" style="fill:#DDDDDD;" width="31.917" height="99.914"/>
		<g>
			<path style="fill:#666666;" d="M97.643,2.128v97.914H67.726V2.128H97.643 M99.643,0.128H65.726v101.914h33.917V0.128
				L99.643,0.128z"/>
		</g>
	</g>
	<g>
		<rect x="198.471" y="101" style="fill:#DDDDDD;" width="31.917" height="65.872"/>
		<g>
			<path style="fill:#666666;" d="M229.387,102v63.872h-29.917V102H229.387 M231.387,100h-33.917v67.872h33.917V100L231.387,100z"/>
		</g>
	</g>
	<g>
		<rect x="98.698" y="101" style="fill:#DDDDDD;" width="99.75" height="65.872"/>
		<g>
			<path style="fill:#666666;" d="M197.448,102v63.872h-97.75V102H197.448 M199.448,100H97.698v67.872h101.75V100L199.448,100z"/>
		</g>
	</g>
	<g>
		<rect x="230.363" y="101" style="fill:#DDDDDD;" width="99.75" height="65.872"/>
		<g>
			<path style="fill:#666666;" d="M329.114,102v63.872h-97.75V102H329.114 M331.114,100h-101.75v67.872h101.75V100L331.114,100z"/>
		</g>
	</g>
	<g>
		<rect x="66.726" y="101" style="fill:#DDDDDD;" width="31.917" height="65.872"/>
		<g>
			<path style="fill:#666666;" d="M97.643,102v63.872H67.726V102H97.643 M99.643,100H65.726v67.872h33.917V100L99.643,100z"/>
		</g>
	</g>
	<g>
		<rect x="198.471" y="166.834" style="fill:#DDDDDD;" width="31.917" height="99.789"/>
		<g>
			<path style="fill:#666666;" d="M229.388,167.834v97.789h-29.917v-97.789H229.388 M231.388,165.834h-33.917v101.789h33.917
				V165.834L231.388,165.834z"/>
		</g>
	</g>
</g>
</svg>
