<?xml version="1.0" encoding="iso-8859-1"?>
<!-- Generator: Adobe Illustrator 18.0.0, SVG Export Plug-In . SVG Version: 6.00 Build 0)  -->
<!DOCTYPE svg PUBLIC "-//W3C//DTD SVG 1.1//EN" "http://www.w3.org/Graphics/SVG/1.1/DTD/svg11.dtd">
<svg version="1.1" xmlns="http://www.w3.org/2000/svg" xmlns:xlink="http://www.w3.org/1999/xlink" x="0px" y="0px"
	 viewBox="66.078 99.797 399.228 99.846" style="enable-background:new 66.078 99.797 399.228 99.846;" xml:space="preserve">
<g id="&#x56FE;&#x5C42;_2">
</g>
<g id="&#x56FE;&#x5C42;_1">
	<g>
		<rect x="232.673" y="166.726" style="fill:#DDDDDD;" width="99.913" height="31.917"/>
		<g>
			<path style="fill:#666666;" d="M331.587,167.727v29.917h-97.914v-29.917H331.587 M333.587,165.727H231.673v33.917h101.914
				V165.727L333.587,165.727z"/>
		</g>
	</g>
	<g>
		<rect x="332.596" y="100.797" style="fill:#DDDDDD;" width="31.917" height="65.872"/>
		<g>
			<path style="fill:#666666;" d="M363.513,101.797v63.872h-29.917v-63.872H363.513 M365.513,99.797h-33.917v67.872h33.917V99.797
				L365.513,99.797z"/>
		</g>
	</g>
	<g>
		<rect x="232.837" y="100.797" style="fill:#DDDDDD;" width="99.75" height="65.872"/>
		<g>
			<path style="fill:#666666;" d="M331.587,101.797v63.872h-97.75v-63.872H331.587 M333.587,99.797h-101.75v67.872h101.75V99.797
				L333.587,99.797z"/>
		</g>
	</g>
	<g>
		<rect x="364.556" y="100.797" style="fill:#DDDDDD;" width="99.75" height="65.872"/>
		<g>
			<path style="fill:#666666;" d="M463.306,101.797v63.872h-97.75v-63.872H463.306 M465.306,99.797h-101.75v67.872h101.75V99.797
				L465.306,99.797z"/>
		</g>
	</g>
	<g>
		<rect x="166.867" y="166.727" style="fill:#DDDDDD;" width="65.872" height="31.916"/>
		<g>
			<path style="fill:#666666;" d="M231.739,167.727v29.917h-63.872v-29.917H231.739 M233.739,165.727h-67.872v33.917h67.872V165.727
				L233.739,165.727z"/>
		</g>
	</g>
	<g>
		<rect x="67.078" y="166.727" style="fill:#DDDDDD;" width="99.789" height="31.917"/>
		<g>
			<path style="fill:#666666;" d="M165.867,167.727v29.917H68.078v-29.917H165.867 M167.867,165.727H66.078v33.917h101.789V165.727
				L167.867,165.727z"/>
		</g>
	</g>
</g>
</svg>
