<?xml version="1.0" encoding="iso-8859-1"?>
<!-- Generator: Adobe Illustrator 18.0.0, SVG Export Plug-In . SVG Version: 6.00 Build 0)  -->
<!DOCTYPE svg PUBLIC "-//W3C//DTD SVG 1.1//EN" "http://www.w3.org/Graphics/SVG/1.1/DTD/svg11.dtd">
<svg version="1.1" xmlns="http://www.w3.org/2000/svg" xmlns:xlink="http://www.w3.org/1999/xlink" x="0px" y="0px"
	 viewBox="-41.75 -120.039 391 394" style="enable-background:new -41.75 -120.039 391 394;" xml:space="preserve">
<g id="&#x56FE;&#x5C42;_2" style="display:none;">
	
		<image style="display:inline;overflow:visible;" width="391" height="394" xlink:href="../../../../Project/k12-class-tools/app/tools/views/OpenShapeTool/resources/wood/images/shape/rect_6.png"  transform="matrix(1 0 0 1 -41.7501 -120.0387)">
	</image>
</g>
<g id="&#x56FE;&#x5C42;_1">
	<g>
		<rect x="106.735" y="-118.539" style="fill:#DDDDDD;" width="47.012" height="146.997"/>
		<g>
			<path style="fill:#666666;" d="M152.247-117.039V26.958h-44.012v-143.997H152.247 M155.247-120.039h-50.012V29.958h50.012
				V-120.039L155.247-120.039z"/>
		</g>
	</g>
	<g>
		<rect x="106.735" y="125.464" style="fill:#DDDDDD;" width="47.012" height="146.997"/>
		<g>
			<path style="fill:#666666;" d="M152.247,126.964v143.997h-44.012V126.964H152.247 M155.247,123.964h-50.012v149.997h50.012
				V123.964L155.247,123.964z"/>
		</g>
	</g>
	<g>
		<rect x="106.735" y="28.441" style="fill:#DDDDDD;" width="47.059" height="97.175"/>
		<g>
			<path style="fill:#666666;" d="M152.294,29.941v94.175h-44.059V29.941H152.294 M155.294,26.941h-50.059v100.175h50.059V26.941
				L155.294,26.941z"/>
		</g>
	</g>
	<g>
		<rect x="300.691" y="28.441" style="fill:#DDDDDD;" width="47.059" height="97.175"/>
		<g>
			<path style="fill:#666666;" d="M346.25,29.941v94.175h-44.059V29.941H346.25 M349.25,26.941h-50.059v100.175h50.059V26.941
				L349.25,26.941z"/>
		</g>
	</g>
	<g>
		<rect x="-40.25" y="28.441" style="fill:#DDDDDD;" width="147.021" height="97.029"/>
		<g>
			<path style="fill:#666666;" d="M105.272,29.941v94.029H-38.75V29.941H105.272 M108.272,26.941H-41.75V126.97h150.022V26.941
				L108.272,26.941z"/>
		</g>
	</g>
	<g>
		<rect x="153.75" y="28.514" style="fill:#DDDDDD;" width="147.021" height="97.029"/>
		<g>
			<path style="fill:#666666;" d="M299.272,30.014v94.029H155.25V30.014H299.272 M302.272,27.014H152.25v100.029h150.022V27.014
				L302.272,27.014z"/>
		</g>
	</g>
</g>
</svg>
