<?xml version="1.0" encoding="iso-8859-1"?>
<!-- Generator: Adobe Illustrator 18.0.0, SVG Export Plug-In . SVG Version: 6.00 Build 0)  -->
<!DOCTYPE svg PUBLIC "-//W3C//DTD SVG 1.1//EN" "http://www.w3.org/Graphics/SVG/1.1/DTD/svg11.dtd">
<svg version="1.1" xmlns="http://www.w3.org/2000/svg" xmlns:xlink="http://www.w3.org/1999/xlink" x="0px" y="0px"
	 viewBox="-41.75 -120.179 341 394.256" style="enable-background:new -41.75 -120.179 341 394.256;" xml:space="preserve">
<g id="&#x56FE;&#x5C42;_3" style="display:none;">
	
		<image style="display:inline;overflow:visible;" width="341" height="294" xlink:href="../../../../Project/k12-class-tools/app/tools/views/OpenShapeTool/resources/wood/images/shape/rect_8.png"  transform="matrix(1 0 0 1 -41.7501 -120.0592)">
	</image>
</g>
<g id="&#x56FE;&#x5C42;_1">
	<g>
		<rect x="56.722" y="-118.564" style="fill:#DDDDDD;" width="47.012" height="146.997"/>
		<g>
			<path style="fill:#666666;" d="M102.235-117.064V26.933H58.222v-143.997H102.235 M105.235-120.064H55.222V29.933h50.012V-120.064
				L105.235-120.064z"/>
		</g>
	</g>
	<g>
		<rect x="56.722" y="125.58" style="fill:#DDDDDD;" width="47.012" height="146.998"/>
		<g>
			<path style="fill:#666666;" d="M102.235,127.08v143.997H58.222V127.08H102.235 M105.235,124.08H55.222v149.997h50.012V124.08
				L105.235,124.08z"/>
		</g>
	</g>
	<g>
		<rect x="56.699" y="28.441" style="fill:#DDDDDD;" width="47.059" height="97.175"/>
		<g>
			<path style="fill:#666666;" d="M102.258,29.941v94.175H58.199V29.941H102.258 M105.258,26.941H55.199v100.175h50.059V26.941
				L105.258,26.941z"/>
		</g>
	</g>
	<g>
		<rect x="250.691" y="28.374" style="fill:#DDDDDD;" width="47.059" height="97.175"/>
		<g>
			<path style="fill:#666666;" d="M296.25,29.874v94.175h-44.059V29.874H296.25 M299.25,26.874h-50.059v100.175h50.059V26.874
				L299.25,26.874z"/>
		</g>
	</g>
	<g>
		<rect x="103.502" y="28.451" style="fill:#DDDDDD;" width="147.227" height="97.022"/>
		<g>
			<path style="fill:#666666;" d="M249.228,29.95v94.022H105.002V29.95H249.228 M252.228,26.95H102.002v100.022h150.226V26.95
				L252.228,26.95z"/>
		</g>
	</g>
	<g>
		<rect x="-40.25" y="-118.679" style="fill:#DDDDDD;" width="97.022" height="147.226"/>
		<g>
			<path style="fill:#666666;" d="M55.272-117.179V27.048H-38.75v-144.226H55.272 M58.272-120.179H-41.75V30.048H58.272V-120.179
				L58.272-120.179z"/>
		</g>
	</g>
</g>
</svg>
