<?xml version="1.0" encoding="iso-8859-1"?>
<!-- Generator: Adobe Illustrator 18.0.0, SVG Export Plug-In . SVG Version: 6.00 Build 0)  -->
<!DOCTYPE svg PUBLIC "-//W3C//DTD SVG 1.1//EN" "http://www.w3.org/Graphics/SVG/1.1/DTD/svg11.dtd">
<svg version="1.1" xmlns="http://www.w3.org/2000/svg" xmlns:xlink="http://www.w3.org/1999/xlink" x="0px" y="0px"
	 viewBox="66.097 -0.036 230.766 199.679" style="enable-background:new 66.097 -0.036 230.766 199.679;" xml:space="preserve">
<g id="&#x56FE;&#x5C42;_2">
</g>
<g id="&#x56FE;&#x5C42;_1">
	<g>
		<rect x="132.971" y="0.964" style="fill:#DDDDDD;" width="31.917" height="99.914"/>
		<g>
			<path style="fill:#666666;" d="M163.888,1.964v97.914h-29.917V1.964H163.888 M165.888-0.036h-33.917v101.914h33.917V-0.036
				L165.888-0.036z"/>
		</g>
	</g>
	<g>
		<rect x="263.947" y="100.939" style="fill:#DDDDDD;" width="31.917" height="65.872"/>
		<g>
			<path style="fill:#666666;" d="M294.863,101.939v63.872h-29.917v-63.872H294.863 M296.863,99.939h-33.917v67.872h33.917V99.939
				L296.863,99.939z"/>
		</g>
	</g>
	<g>
		<rect x="67.097" y="1.128" style="fill:#DDDDDD;" width="65.872" height="99.75"/>
		<g>
			<path style="fill:#666666;" d="M131.969,2.128v97.75H68.097V2.128H131.969 M133.969,0.128H66.097v101.75h67.872V0.128
				L133.969,0.128z"/>
		</g>
	</g>
	<g>
		<rect x="164.887" y="100.846" style="fill:#DDDDDD;" width="99.75" height="65.872"/>
		<g>
			<path style="fill:#666666;" d="M263.638,101.846v63.872h-97.75v-63.872H263.638 M265.638,99.846h-101.75v67.872h101.75V99.846
				L265.638,99.846z"/>
		</g>
	</g>
	<g>
		<rect x="132.971" y="100.846" style="fill:#DDDDDD;" width="31.917" height="65.872"/>
		<g>
			<path style="fill:#666666;" d="M163.888,101.846v63.872h-29.917v-63.872H163.888 M165.888,99.846h-33.917v67.872h33.917V99.846
				L165.888,99.846z"/>
		</g>
	</g>
	<g>
		<rect x="164.888" y="166.727" style="fill:#DDDDDD;" width="99.789" height="31.916"/>
		<g>
			<path style="fill:#666666;" d="M263.676,167.727v29.917h-97.789v-29.917H263.676 M265.676,165.727H163.888v33.917h101.789
				V165.727L265.676,165.727z"/>
		</g>
	</g>
</g>
</svg>
