<?xml version="1.0" encoding="iso-8859-1"?>
<!-- Generator: Adobe Illustrator 18.0.0, SVG Export Plug-In . SVG Version: 6.00 Build 0)  -->
<!DOCTYPE svg PUBLIC "-//W3C//DTD SVG 1.1//EN" "http://www.w3.org/Graphics/SVG/1.1/DTD/svg11.dtd">
<svg version="1.1" xmlns="http://www.w3.org/2000/svg" xmlns:xlink="http://www.w3.org/1999/xlink" x="0px" y="0px"
	 viewBox="66.078 31.821 263.445 167.822" style="enable-background:new 66.078 31.821 263.445 167.822;" xml:space="preserve">
<g id="&#x56FE;&#x5C42;_2">
</g>
<g id="&#x56FE;&#x5C42;_1">
	<g>
		<rect x="296.606" y="32.821" style="fill:#DDDDDD;" width="31.917" height="99.914"/>
		<g>
			<path style="fill:#666666;" d="M327.523,33.821v97.914h-29.917V33.821H327.523 M329.523,31.821h-33.917v101.914h33.917V31.821
				L329.523,31.821z"/>
		</g>
	</g>
	<g>
		<rect x="198.785" y="132.771" style="fill:#DDDDDD;" width="31.917" height="65.872"/>
		<g>
			<path style="fill:#666666;" d="M229.701,133.771v63.872h-29.917v-63.872H229.701 M231.701,131.771h-33.917v67.872h33.917V131.771
				L231.701,131.771z"/>
		</g>
	</g>
	<g>
		<rect x="230.728" y="32.985" style="fill:#DDDDDD;" width="65.872" height="99.75"/>
		<g>
			<path style="fill:#666666;" d="M295.601,33.985v97.75h-63.872v-97.75H295.601 M297.601,31.985h-67.872v101.75h67.872V31.985
				L297.601,31.985z"/>
		</g>
	</g>
	<g>
		<rect x="99.033" y="132.771" style="fill:#DDDDDD;" width="99.75" height="65.872"/>
		<g>
			<path style="fill:#666666;" d="M197.783,133.771v63.872h-97.75v-63.872H197.783 M199.783,131.771H98.033v67.872h101.75V131.771
				L199.783,131.771z"/>
		</g>
	</g>
	<g>
		<rect x="67.078" y="132.771" style="fill:#DDDDDD;" width="31.917" height="65.872"/>
		<g>
			<path style="fill:#666666;" d="M97.995,133.771v63.872H68.078v-63.872H97.995 M99.995,131.771H66.078v67.872h33.917V131.771
				L99.995,131.771z"/>
		</g>
	</g>
	<g>
		<rect x="198.785" y="32.946" style="fill:#DDDDDD;" width="31.917" height="99.789"/>
		<g>
			<path style="fill:#666666;" d="M229.701,33.946v97.789h-29.917V33.946H229.701 M231.701,31.946h-33.917v101.789h33.917V31.946
				L231.701,31.946z"/>
		</g>
	</g>
</g>
</svg>
