<?xml version="1.0" encoding="utf-8"?>
<!-- Generator: Adobe Illustrator 18.0.0, SVG Export Plug-In . SVG Version: 6.00 Build 0)  -->
<!DOCTYPE svg PUBLIC "-//W3C//DTD SVG 1.1//EN" "http://www.w3.org/Graphics/SVG/1.1/DTD/svg11.dtd">
<svg version="1.1" xmlns="http://www.w3.org/2000/svg" xmlns:xlink="http://www.w3.org/1999/xlink" x="0px" y="0px"
	 viewBox="106.6 -150.4 311.2 233.9" enable-background="new 106.6 -150.4 311.2 233.9" xml:space="preserve">
<g id="图层_2">
</g>
<g id="图层_1">
	<g>
		<rect x="108.1" y="-148.9" fill="#DDDDDD" width="77" height="77"/>
		<g>
			<path fill="#666666" d="M183.7-147.4v74h-74v-74H183.7 M186.7-150.4h-80v80h80V-150.4L186.7-150.4z"/>
		</g>
	</g>
	<g>
		<rect x="108.1" y="-71.9" fill="#DDDDDD" width="77" height="77"/>
		<g>
			<path fill="#666666" d="M183.7-70.4v74h-74v-74H183.7 M186.7-73.4h-80v80h80V-73.4L186.7-73.4z"/>
		</g>
	</g>
	<g>
		<rect x="185.2" y="-71.9" fill="#DDDDDD" width="77" height="77"/>
		<g>
			<path fill="#666666" d="M260.7-70.4v74h-74v-74H260.7 M263.7-73.4h-80v80h80V-73.4L263.7-73.4z"/>
		</g>
	</g>
	<g>
		<rect x="262.2" y="-71.9" fill="#DDDDDD" width="77" height="77"/>
		<g>
			<path fill="#666666" d="M337.8-70.4v74h-74v-74H337.8 M340.8-73.4h-80v80h80V-73.4L340.8-73.4z"/>
		</g>
	</g>
	<g>
		<rect x="339.3" y="-71.9" fill="#DDDDDD" width="77" height="77"/>
		<g>
			<path fill="#666666" d="M414.8-70.4v74h-74v-74H414.8 M417.8-73.4h-80v80h80V-73.4L417.8-73.4z"/>
		</g>
	</g>
	<g>
		<rect x="185.2" y="5" fill="#DDDDDD" width="77" height="77"/>
		<g>
			<path fill="#666666" d="M260.7,6.5v74h-74v-74H260.7 M263.7,3.5h-80v80h80V3.5L263.7,3.5z"/>
		</g>
	</g>
</g>
</svg>
