<?xml version="1.0" standalone="no"?>
<!DOCTYPE svg PUBLIC "-//W3C//DTD SVG 1.1//EN" "http://www.w3.org/Graphics/SVG/1.1/DTD/svg11.dtd" >
<svg xmlns="http://www.w3.org/2000/svg" xmlns:xlink="http://www.w3.org/1999/xlink" version="1.1">
<metadata>
Created by FontForge 20161005 at Wed Dec 28 03:00:05 2016
 By root
(c) 2012 The Monotype Corporation. All Rights Reserved.
</metadata>
<defs>
<font id="TimesNewRoman" horiz-adv-x="1479" >
  <font-face 
    font-family="Times New Roman"
    font-weight="400"
    font-stretch="normal"
    units-per-em="2048"
    panose-1="2 2 6 3 5 4 5 2 3 4"
    ascent="1638"
    descent="-410"
    x-height="916"
    cap-height="1356"
    bbox="-431 -483 2184 2062"
    underline-thickness="100"
    underline-position="-273"
    unicode-range="U+0020-2C7F"
  />
<missing-glyph horiz-adv-x="512" 
 />
    <glyph glyph-name=".notdef" unicode=" " horiz-adv-x="512" 
 />
    <glyph glyph-name="exclam" unicode="!" horiz-adv-x="682" 
d="M360 359h-38l-88 810q-6 53 -6 79q0 63 33.5 101t80.5 38t79.5 -38t32.5 -113q0 -24 -4 -67zM340 193q46 0 78.5 -32.5t32.5 -77.5q0 -46 -32.5 -78.5t-78.5 -32.5t-78.5 32.5t-32.5 78.5q0 45 32.5 77.5t78.5 32.5z" />
    <glyph glyph-name="quotedbl" unicode="&#x22;" horiz-adv-x="836" 
d="M576 803l-54 292l-22 121q-2 25 -2 50q0 63 28 92t74 29q43 0 71.5 -29t28.5 -78q0 -85 -19 -184l-57 -293h-48zM210 803l-55 296q-22 122 -22 166q0 64 26.5 93t71.5 29q44 0 73 -29.5t29 -78.5q0 -39 -26 -181l-54 -295h-43z" />
    <glyph glyph-name="numbersign" unicode="#" horiz-adv-x="1024" 
d="M115 -28l93 455h-171v82h187l69 343h-256v80h275l91 455h83l-91 -455h337l97 455h83l-95 -455h170v-80h-185l-70 -343h255v-82h-272l-93 -455h-81l91 455h-339l-95 -455h-83zM308 509h339l72 343h-341z" />
    <glyph glyph-name="dollar" unicode="$" horiz-adv-x="1024" 
d="M108 334h44q11 -137 86 -210t224 -87v584q-225 139 -300 246q-53 76 -53 185q0 123 91.5 215t261.5 111v92h64v-92q82 -5 138 -19q29 -7 192 -69v-299h-39q-13 159 -82.5 232.5t-208.5 87.5v-508q252 -176 323.5 -259.5t71.5 -207.5q0 -138 -104.5 -243t-290.5 -121v-128
h-64v128q-94 4 -175 21.5t-179 57.5v283zM462 845v465q-100 -12 -148.5 -63.5t-48.5 -129.5q0 -73 44 -136.5t153 -135.5zM526 37q75 13 115 37q56 35 88.5 91.5t32.5 120.5q0 66 -39.5 125t-196.5 167v-541z" />
    <glyph glyph-name="percent" unicode="%" horiz-adv-x="1706" 
d="M1392 1387l-988 -1443h-89l988 1443h89zM364 1387q135 0 209.5 -112t74.5 -257q0 -174 -84 -269t-202 -95q-79 0 -145 43.5t-105.5 129.5t-39.5 191t40 193.5t109.5 132t142.5 43.5zM361 1331q-51 0 -90.5 -60t-39.5 -252q0 -139 22 -212q17 -55 53 -85q21 -18 52 -18
q48 0 82 52q50 77 50 257q0 190 -49 267q-32 51 -80 51zM1346 673q71 0 141.5 -45t109 -131t38.5 -189q0 -177 -85 -270.5t-201 -93.5q-73 0 -141.5 45t-108 128.5t-39.5 190.5q0 105 39.5 192t108 130t138.5 43zM1347 620q-48 0 -83 -54q-45 -70 -45 -265q0 -179 46 -250
q34 -51 82 -51q46 0 82 55q48 73 48 251q0 188 -48 263q-33 51 -82 51z" />
    <glyph glyph-name="ampersand" unicode="&#x26;" horiz-adv-x="1593" 
d="M1045 873h420v-37q-87 -7 -128.5 -38.5t-129.5 -190.5t-198 -297q89 -104 159 -145.5t141 -41.5q69 0 117 37.5t68 110.5l37 -27q-37 -141 -119 -208t-191 -67q-82 0 -166.5 44.5t-184.5 150.5q-124 -110 -223.5 -152.5t-212.5 -42.5q-165 0 -262 88t-97 210
q0 121 87 241.5t327 249.5q-47 104 -64 170.5t-17 127.5q0 171 126 261q98 70 223 70q119 0 194 -70.5t75 -173.5q0 -106 -72.5 -186t-256.5 -175q127 -226 265 -414q176 210 176 354q0 46 -30 82q-22 27 -63 32v37zM663 847q124 59 185.5 134t61.5 167q0 72 -44.5 119
t-110.5 47q-87 0 -131.5 -60.5t-44.5 -118.5q0 -49 17 -109.5t67 -178.5zM818 222q-132 180 -183 263t-112 206q-120 -69 -180.5 -152t-60.5 -180q0 -107 69 -188t186 -81q63 0 121.5 25t159.5 107z" />
    <glyph glyph-name="quotesingle" unicode="'" horiz-adv-x="369" 
d="M158 803l-54 296q-23 123 -23 166q0 64 26 93t71 29t74.5 -29.5t29.5 -77.5q0 -37 -26 -182l-54 -295h-44z" />
    <glyph glyph-name="parenleft" unicode="(" horiz-adv-x="682" 
d="M636 -401v-37q-151 76 -252 178q-144 145 -222 342t-78 409q0 310 153 565.5t399 365.5v-42q-123 -68 -202 -186t-118 -299t-39 -378q0 -214 33 -389q26 -138 63 -221.5t99.5 -160.5t163.5 -147z" />
    <glyph glyph-name="parenright" unicode=")" horiz-adv-x="682" 
d="M46 1380v42q152 -75 253 -177q143 -146 221 -342.5t78 -409.5q0 -310 -152.5 -565.5t-399.5 -365.5v37q123 69 202.5 186.5t118 299t38.5 378.5q0 213 -33 389q-25 138 -62.5 221t-99.5 160t-164 147z" />
    <glyph glyph-name="asterisk" unicode="*" horiz-adv-x="1024" 
d="M494 1044q-4 69 -28 137q-34 98 -34 135q0 52 24.5 79t60.5 27q31 0 54 -27t23 -77q0 -45 -26.5 -125.5t-32.5 -148.5q55 35 99 85q68 79 101 98t67 19q33 0 55.5 -22.5t22.5 -53.5q0 -37 -33 -66t-165 -58q-77 -17 -128 -39q52 -27 127 -41q121 -22 158.5 -55t37.5 -72
q0 -30 -22.5 -52t-52.5 -22t-66.5 21t-98.5 94q-41 49 -102 92q2 -57 23 -124q36 -118 36 -161q0 -40 -24 -67.5t-51 -27.5q-37 0 -67 29q-21 21 -21 67q0 48 23 115.5t29 93t11 75.5q-59 -39 -103 -87q-73 -82 -110 -104q-26 -16 -54 -16q-34 0 -58 23t-24 51
q0 25 20.5 52.5t61.5 45.5q27 12 123 32q62 13 121 38q-54 27 -129 42q-123 26 -152 47q-45 33 -45 80q0 27 22.5 49.5t52.5 22.5q33 0 70 -21t92 -84.5t112 -98.5z" />
    <glyph glyph-name="plus" unicode="+" horiz-adv-x="1155" 
d="M535 141v499h-498v82h498v497h80v-497h500v-82h-500v-499h-80z" />
    <glyph glyph-name="comma" unicode="," horiz-adv-x="512" 
d="M110 -341v44q103 34 159.5 105.5t56.5 151.5q0 19 -9 32q-7 9 -14 9q-11 0 -48 -20q-18 -9 -38 -9q-49 0 -78 29t-29 80q0 49 37.5 84t91.5 35q66 0 117.5 -57.5t51.5 -152.5q0 -103 -71.5 -191.5t-226.5 -139.5z" />
    <glyph glyph-name="hyphen" unicode="-" horiz-adv-x="682" 
d="M83 535h517v-151h-517v151z" />
    <glyph glyph-name="hyphen" unicode="&#xad;" horiz-adv-x="682" 
d="M83 535h517v-151h-517v151z" />
    <glyph glyph-name="period" unicode="." horiz-adv-x="512" 
d="M256 194q47 0 79 -32.5t32 -78.5t-32.5 -78.5t-78.5 -32.5t-78.5 32.5t-32.5 78.5q0 47 32.5 79t78.5 32z" />
    <glyph glyph-name="slash" unicode="/" horiz-adv-x="569" 
d="M574 1422l-491 -1450h-80l491 1450h80z" />
    <glyph glyph-name="zero" unicode="0" horiz-adv-x="1024" 
d="M74 670q0 232 70 399.5t186 249.5q90 65 186 65q156 0 280 -159q155 -197 155 -534q0 -236 -68 -401t-173.5 -239.5t-203.5 -74.5q-194 0 -323 229q-109 193 -109 465zM270 645q0 -280 69 -457q57 -149 170 -149q54 0 112 48.5t88 162.5q46 172 46 485q0 232 -48 387
q-36 115 -93 163q-41 33 -99 33q-68 0 -121 -61q-72 -83 -98 -261t-26 -351z" />
    <glyph glyph-name="one" unicode="1" horiz-adv-x="1024" 
d="M240 1223l330 161h33v-1145q0 -114 9.5 -142t39.5 -43t122 -17v-37h-510v37q96 2 124 16.5t39 39t11 146.5v732q0 148 -10 190q-7 32 -25.5 47t-44.5 15q-37 0 -103 -31z" />
    <glyph glyph-name="two" unicode="2" horiz-adv-x="1024" 
d="M939 261l-95 -261h-800v37q353 322 497 526t144 373q0 129 -79 212t-189 83q-100 0 -179.5 -58.5t-117.5 -171.5h-37q25 185 128.5 284t258.5 99q165 0 275.5 -106t110.5 -250q0 -103 -48 -206q-74 -162 -240 -343q-249 -272 -311 -328h354q108 0 151.5 8t78.5 32.5
t61 69.5h37z" />
    <glyph glyph-name="three" unicode="3" horiz-adv-x="1024" 
d="M104 1098q58 137 146.5 211.5t220.5 74.5q163 0 250 -106q66 -79 66 -169q0 -148 -186 -306q125 -49 189 -140t64 -214q0 -176 -112 -305q-146 -168 -423 -168q-137 0 -186.5 34t-49.5 73q0 29 23.5 51t56.5 22q25 0 51 -8q17 -5 77 -36.5t83 -37.5q37 -11 79 -11
q102 0 177.5 79t75.5 187q0 79 -35 154q-26 56 -57 85q-43 40 -118 72.5t-153 32.5h-32v30q79 10 158.5 57t115.5 113t36 145q0 103 -64.5 166.5t-160.5 63.5q-155 0 -259 -166z" />
    <glyph glyph-name="four" unicode="4" horiz-adv-x="1024" 
d="M953 500v-142h-182v-358h-165v358h-574v128l629 898h110v-884h182zM606 500v673l-476 -673h476z" />
    <glyph glyph-name="five" unicode="5" horiz-adv-x="1024" 
d="M889 1356l-78 -170h-408l-89 -182q265 -39 420 -197q133 -136 133 -320q0 -107 -43.5 -198t-109.5 -155t-147 -103q-115 -55 -236 -55q-122 0 -177.5 41.5t-55.5 91.5q0 28 23 49.5t58 21.5q26 0 45.5 -8t66.5 -41q75 -52 152 -52q117 0 205.5 88.5t88.5 215.5
q0 123 -79 229.5t-218 164.5q-109 45 -297 52l260 527h486z" />
    <glyph glyph-name="six" unicode="6" horiz-adv-x="1024" 
d="M918 1384v-37q-132 -13 -215.5 -52.5t-165 -120.5t-135 -180.5t-89.5 -236.5q144 99 289 99q139 0 241 -112t102 -288q0 -170 -103 -310q-124 -170 -328 -170q-139 0 -236 92q-190 179 -190 464q0 182 73 346t208.5 291t259.5 171t231 44h58zM296 684q-18 -135 -18 -218
q0 -96 35.5 -208.5t105.5 -178.5q51 -47 124 -47q87 0 155.5 82t68.5 234q0 171 -68 296t-193 125q-38 0 -81.5 -16t-128.5 -69z" />
    <glyph glyph-name="seven" unicode="7" horiz-adv-x="1024" 
d="M206 1356h727v-38l-452 -1346h-112l405 1221h-373q-113 0 -161 -27q-84 -46 -135 -142l-29 11z" />
    <glyph glyph-name="eight" unicode="8" horiz-adv-x="1024" 
d="M393 683q-161 132 -207.5 212t-46.5 166q0 132 102 227.5t271 95.5q164 0 264 -89t100 -203q0 -76 -54 -155t-225 -186q176 -136 233 -214q76 -102 76 -215q0 -143 -109 -244.5t-286 -101.5q-193 0 -301 121q-86 97 -86 212q0 90 60.5 178.5t208.5 195.5zM550 790
q120 108 152 170.5t32 141.5q0 105 -59 164.5t-161 59.5t-166 -59t-64 -138q0 -52 26.5 -104t75.5 -99zM440 645q-83 -70 -123 -152.5t-40 -178.5q0 -129 70.5 -206.5t179.5 -77.5q108 0 173 61t65 148q0 72 -38 129q-71 106 -287 277z" />
    <glyph glyph-name="nine" unicode="9" horiz-adv-x="1024" 
d="M108 -28v37q130 2 242 60.5t216.5 204.5t145.5 321q-157 -101 -284 -101q-143 0 -245 110.5t-102 293.5q0 178 102 317q123 169 321 169q167 0 286 -138q146 -171 146 -422q0 -226 -111 -421.5t-309 -324.5q-161 -106 -351 -106h-57zM728 669q18 130 18 208
q0 97 -33 209.5t-93.5 172.5t-137.5 60q-89 0 -156 -80t-67 -238q0 -211 89 -330q65 -86 160 -86q46 0 109 22t111 62z" />
    <glyph glyph-name="colon" unicode=":" horiz-adv-x="569" 
d="M289 944q46 0 78.5 -32.5t32.5 -78.5t-32.5 -78.5t-78.5 -32.5t-78.5 32.5t-32.5 78.5t32.5 78.5t78.5 32.5zM287 195q47 0 79.5 -33t32.5 -79t-33 -78.5t-79 -32.5t-78.5 32.5t-32.5 78.5t32.5 79t78.5 33z" />
    <glyph glyph-name="semicolon" unicode=";" horiz-adv-x="569" 
d="M282 945q46 0 78.5 -32t32.5 -78t-32.5 -78.5t-78.5 -32.5t-78.5 32.5t-32.5 78.5t32.5 78t78.5 32zM142 -341v44q103 34 159.5 105.5t56.5 151.5q0 19 -9 32q-7 9 -14 9q-11 0 -48 -20q-18 -9 -38 -9q-49 0 -78 29t-29 80q0 49 37.5 84t91.5 35q66 0 117.5 -57.5
t51.5 -152.5q0 -103 -71.5 -191.5t-226.5 -139.5z" />
    <glyph glyph-name="semicolon" unicode="&#x37e;" horiz-adv-x="569" 
d="M282 945q46 0 78.5 -32t32.5 -78t-32.5 -78.5t-78.5 -32.5t-78.5 32.5t-32.5 78.5t32.5 78t78.5 32zM142 -341v44q103 34 159.5 105.5t56.5 151.5q0 19 -9 32q-7 9 -14 9q-11 0 -48 -20q-18 -9 -38 -9q-49 0 -78 29t-29 80q0 49 37.5 84t91.5 35q66 0 117.5 -57.5
t51.5 -152.5q0 -103 -71.5 -191.5t-226.5 -139.5z" />
    <glyph glyph-name="less" unicode="&#x3c;" horiz-adv-x="1155" 
d="M37 706l1076 466v-87l-926 -402l926 -406v-90l-1076 470v49z" />
    <glyph glyph-name="equal" unicode="=" horiz-adv-x="1155" 
d="M37 883h1079v-82h-1079v82zM37 557h1079v-82h-1079v82z" />
    <glyph glyph-name="greater" unicode="&#x3e;" horiz-adv-x="1155" 
d="M1113 653l-1076 -466v86l927 402l-927 406v91l1076 -470v-49z" />
    <glyph glyph-name="question" unicode="?" horiz-adv-x="909" 
d="M454 320h-41q7 126 31.5 208.5t101.5 229.5q60 113 78 173.5t18 122.5q0 127 -67.5 202t-165.5 75q-87 0 -137 -41t-50 -89q0 -37 30 -91t30 -82q0 -36 -23 -60.5t-56 -24.5q-42 0 -76.5 41.5t-34.5 115.5q0 113 97 200t263 87q206 0 303 -120q72 -88 72 -195
q0 -73 -32.5 -150t-123.5 -181q-145 -164 -177.5 -232.5t-39.5 -188.5zM440 196q47 0 79.5 -32.5t32.5 -79.5q0 -46 -33 -78.5t-79 -32.5t-78.5 32.5t-32.5 78.5q0 47 32.5 79.5t78.5 32.5z" />
    <glyph glyph-name="at" unicode="@" horiz-adv-x="1886" 
d="M1408 958l-117 -399q-65 -224 -79 -284t-14 -96q0 -32 21.5 -54t53.5 -22q73 0 175.5 73t175.5 237t73 342q0 171 -82.5 316t-233 222.5t-332.5 77.5q-231 0 -429 -122.5t-313.5 -352.5t-115.5 -478q0 -230 101.5 -418t285.5 -284.5t396 -96.5q263 0 475.5 141t328.5 412
h58q-90 -274 -327 -444t-540 -170q-238 0 -442 112.5t-317 319t-113 454.5q0 264 124 492.5t347.5 357t474.5 128.5q207 0 373.5 -85.5t253.5 -250t87 -349.5q0 -183 -81.5 -362.5t-207.5 -261.5t-263 -82q-76 0 -114.5 36t-38.5 101q0 56 18 147q-148 -179 -237 -232
t-157 -53q-71 0 -126 63.5t-55 169.5q0 145 94.5 325t250.5 293q115 83 206 83q67 0 111.5 -34.5t60.5 -103.5l33 110zM1057 917q-75 0 -152 -79q-113 -116 -193 -313q-59 -144 -59 -232q0 -63 35.5 -102.5t79.5 -39.5q58 0 122 44t134 135.5t102 183.5q56 159 56 259
q0 66 -36.5 105t-88.5 39z" />
    <glyph glyph-name="A" unicode="A" 
d="M937 454h-525l-92 -214q-34 -79 -34 -118q0 -31 29.5 -54.5t127.5 -30.5v-37h-427v37q85 15 110 39q51 48 113 195l477 1116h35l472 -1128q57 -136 103.5 -176.5t129.5 -45.5v-37h-535v37q81 4 109.5 27t28.5 56q0 44 -40 139zM909 528l-230 548l-236 -548h466z" />
    <glyph glyph-name="B" unicode="B" horiz-adv-x="1366" 
d="M946 692q141 -30 211 -96q97 -92 97 -225q0 -101 -64 -193.5t-175.5 -135t-340.5 -42.5h-640v37h51q85 0 122 54q23 35 23 149v876q0 126 -29 159q-39 44 -116 44h-51v37h586q164 0 263 -24q150 -36 229 -127.5t79 -210.5q0 -102 -62 -182.5t-183 -119.5zM422 746
q37 -7 84.5 -10.5t104.5 -3.5q146 0 219.5 31.5t112.5 96.5t39 142q0 119 -97 203t-283 84q-100 0 -180 -22v-521zM422 98q116 -27 229 -27q181 0 276 81.5t95 201.5q0 79 -43 152t-140 115t-240 42q-62 0 -106 -2t-71 -7v-556z" />
    <glyph glyph-name="C" unicode="C" horiz-adv-x="1366" 
d="M1233 1387l31 -461h-31q-62 207 -177 298t-276 91q-135 0 -244 -68.5t-171.5 -218.5t-62.5 -373q0 -184 59 -319t177.5 -207t270.5 -72q132 0 233 56.5t222 224.5l31 -20q-102 -181 -238 -265t-323 -84q-337 0 -522 250q-138 186 -138 438q0 203 91 373t250.5 263.5
t348.5 93.5q147 0 290 -72q42 -22 60 -22q27 0 47 19q26 27 37 75h35z" />
    <glyph glyph-name="D" unicode="D" 
d="M35 0v37h51q86 0 122 55q22 33 22 148v876q0 127 -28 159q-39 44 -116 44h-51v37h552q304 0 462.5 -69t255 -230t96.5 -372q0 -283 -172 -473q-193 -212 -588 -212h-606zM422 98q127 -28 213 -28q232 0 385 163t153 442q0 281 -153 443t-393 162q-90 0 -205 -29v-1153z
" />
    <glyph glyph-name="E" unicode="E" horiz-adv-x="1251" 
d="M428 1282v-536h298q116 0 155 35q52 46 58 162h37v-472h-37q-14 99 -28 127q-18 35 -59 55t-126 20h-298v-447q0 -90 8 -109.5t28 -31t76 -11.5h230q115 0 167 16t100 63q62 62 127 187h40l-117 -340h-1045v37h48q48 0 91 23q32 16 43.5 48t11.5 131v881q0 129 -26 159
q-36 40 -120 40h-48v37h1045l15 -297h-39q-21 107 -46.5 147t-75.5 61q-40 15 -141 15h-372z" />
    <glyph glyph-name="F" unicode="F" horiz-adv-x="1139" 
d="M419 1282v-533h247q85 0 124.5 37.5t52.5 148.5h37v-459h-37q-1 79 -20.5 116t-54 55.5t-102.5 18.5h-247v-426q0 -103 13 -136q10 -25 42 -43q44 -24 92 -24h49v-37h-582v37h48q84 0 122 49q24 32 24 154v876q0 103 -13 136q-10 25 -41 43q-43 24 -92 24h-48v37h1009
l13 -298h-35q-26 95 -60.5 139.5t-85 64.5t-156.5 20h-299z" />
    <glyph glyph-name="G" unicode="G" 
d="M1257 1387l35 -428h-35q-53 160 -137 241q-121 117 -311 117q-259 0 -394 -205q-113 -173 -113 -412q0 -194 75 -354t196.5 -234.5t249.5 -74.5q75 0 145 19t135 56v392q0 102 -15.5 133.5t-48 48t-114.5 16.5v38h525v-38h-25q-78 0 -107 -52q-20 -37 -20 -146v-415
q-115 -62 -227 -91t-249 -29q-393 0 -597 252q-153 189 -153 436q0 179 86 343q102 195 280 300q149 87 352 87q74 0 134.5 -12t171.5 -53q56 -21 75 -21t32.5 17.5t16.5 68.5h37z" />
    <glyph glyph-name="H" unicode="H" 
d="M421 727h630v388q0 104 -13 137q-10 25 -42 43q-43 24 -91 24h-48v37h580v-37h-48q-48 0 -91 -23q-32 -16 -43.5 -48.5t-11.5 -132.5v-875q0 -103 13 -136q10 -25 41 -43q44 -24 92 -24h48v-37h-580v37h48q83 0 121 49q25 32 25 154v413h-630v-413q0 -103 13 -136
q10 -25 42 -43q43 -24 91 -24h49v-37h-581v37h48q84 0 122 49q24 32 24 154v875q0 104 -13 137q-10 25 -41 43q-44 24 -92 24h-48v37h581v-37h-49q-48 0 -91 -23q-31 -16 -43 -48.5t-12 -132.5v-388z" />
    <glyph glyph-name="I" unicode="I" horiz-adv-x="682" 
d="M632 37v-37h-581v37h48q84 0 122 49q24 32 24 154v876q0 103 -13 136q-10 25 -41 43q-44 24 -92 24h-48v37h581v-37h-49q-83 0 -121 -49q-25 -32 -25 -154v-876q0 -103 13 -136q10 -25 42 -43q43 -24 91 -24h49z" />
    <glyph glyph-name="J" unicode="J" horiz-adv-x="797" 
d="M204 1319v37h581v-37h-49q-83 0 -121 -49q-24 -32 -24 -154v-663q0 -153 -33.5 -248t-115.5 -165.5t-198 -70.5q-94 0 -148 46.5t-54 106.5q0 49 25 74q33 31 77 31q32 0 57.5 -21t64.5 -112q23 -54 59 -54q27 0 50.5 33t23.5 117v926q0 103 -13 136q-10 25 -42 43
q-43 24 -91 24h-49z" />
    <glyph glyph-name="K" unicode="K" 
d="M612 752l500 -497q123 -123 210 -167.5t174 -50.5v-37h-645v37q58 0 83.5 19.5t25.5 43.5t-9.5 43t-62.5 71l-468 463v-437q0 -103 13 -136q10 -25 42 -43q43 -24 91 -24h46v-37h-578v37h48q84 0 122 49q24 32 24 154v876q0 103 -13 137q-10 24 -41 42q-44 24 -92 24h-48
v37h578v-37h-46q-47 0 -91 -23q-31 -16 -43 -48t-12 -132v-415q20 19 137 127q297 272 359 363q27 40 27 70q0 23 -21 40.5t-71 17.5h-31v37h498v-37q-44 -1 -80 -12t-88 -42.5t-128 -101.5q-22 -20 -203 -205z" />
    <glyph glyph-name="L" unicode="L" horiz-adv-x="1251" 
d="M1174 375l33 -7l-116 -368h-1050v37h51q86 0 123 56q21 32 21 148v875q0 127 -28 159q-39 44 -116 44h-51v37h614v-37q-108 1 -151.5 -20t-59.5 -53t-16 -153v-852q0 -83 16 -114q12 -21 37 -31t156 -10h99q156 0 219 23t115 81.5t104 184.5z" />
    <glyph glyph-name="M" unicode="M" horiz-adv-x="1821" 
d="M838 0l-524 1141v-906q0 -125 27 -156q37 -42 117 -42h48v-37h-472v37h48q86 0 122 52q22 32 22 146v886q0 90 -20 130q-14 29 -51.5 48.5t-120.5 19.5v37h384l492 -1061l484 1061h384v-37h-47q-87 0 -123 -52q-22 -32 -22 -146v-886q0 -125 28 -156q37 -42 117 -42h47
v-37h-576v37h48q87 0 122 52q22 32 22 146v906l-523 -1141h-33z" />
    <glyph glyph-name="N" unicode="N" 
d="M-27 1356h368l829 -1017v782q0 125 -28 156q-37 42 -117 42h-47v37h472v-37h-48q-86 0 -122 -52q-22 -32 -22 -146v-1143h-36l-894 1092v-835q0 -125 27 -156q38 -42 117 -42h48v-37h-472v37h47q87 0 123 52q22 32 22 146v943q-59 69 -89.5 91t-89.5 41q-29 9 -88 9v37z
" />
    <glyph glyph-name="O" unicode="O" 
d="M749 1387q264 0 457.5 -200.5t193.5 -500.5q0 -309 -195 -513t-472 -204q-280 0 -470.5 199t-190.5 515q0 323 220 527q191 177 457 177zM730 1314q-182 0 -292 -135q-137 -168 -137 -492q0 -332 142 -511q109 -136 288 -136q191 0 315.5 149t124.5 470q0 348 -137 519
q-110 136 -304 136z" />
    <glyph glyph-name="P" unicode="P" horiz-adv-x="1139" 
d="M420 635v-395q0 -128 28 -159q38 -44 115 -44h52v-37h-581v37h51q86 0 123 56q20 31 20 147v876q0 128 -27 159q-39 44 -116 44h-51v37h497q182 0 287 -37.5t177 -126.5t72 -211q0 -166 -109.5 -270t-309.5 -104q-49 0 -106 7t-122 21zM420 692q53 -10 94 -15t70 -5
q104 0 179.5 80.5t75.5 208.5q0 88 -36 163.5t-102 113t-150 37.5q-51 0 -131 -19v-564z" />
    <glyph glyph-name="Q" unicode="Q" 
d="M902 -15q102 -176 220.5 -259t269.5 -95v-32q-138 5 -295 55.5t-297.5 140t-242.5 190.5q-144 58 -228 123q-122 97 -189.5 238.5t-67.5 334.5q0 304 197 505t477 201q266 0 460.5 -201.5t194.5 -508.5q0 -249 -138.5 -437t-360.5 -255zM734 1310q-182 0 -293 -130
q-140 -163 -140 -499q0 -329 142 -507q110 -137 291 -137q188 0 303 137q135 162 135 478q0 243 -74 409q-57 128 -151.5 188.5t-212.5 60.5z" />
    <glyph glyph-name="R" unicode="R" horiz-adv-x="1366" 
d="M1384 0h-362l-459 634q-51 -2 -83 -2q-13 0 -28 0.5t-31 1.5v-394q0 -128 28 -159q38 -44 114 -44h53v-37h-581v37h51q86 0 123 56q21 31 21 147v876q0 128 -28 159q-39 44 -116 44h-51v37h494q216 0 318.5 -31.5t174 -116t71.5 -201.5q0 -125 -81.5 -217t-252.5 -130
l280 -389q96 -134 165 -178t180 -56v-37zM421 697q19 0 33 -0.5t23 -0.5q194 0 292.5 84t98.5 214q0 127 -79.5 206.5t-210.5 79.5q-58 0 -157 -19v-564z" />
    <glyph glyph-name="S" unicode="S" horiz-adv-x="1139" 
d="M939 1387v-469h-37q-18 135 -64.5 215t-132.5 127t-178 47q-104 0 -172 -63.5t-68 -144.5q0 -62 43 -113q62 -75 295 -200q190 -102 259.5 -156.5t107 -128.5t37.5 -155q0 -154 -119.5 -265.5t-307.5 -111.5q-59 0 -111 9q-31 5 -128.5 36.5t-123.5 31.5q-25 0 -39.5 -15
t-21.5 -62h-37v465h37q26 -146 70 -218.5t134.5 -120.5t198.5 -48q125 0 197.5 66t72.5 156q0 50 -27.5 101t-85.5 95q-39 30 -213 127.5t-247.5 155.5t-111.5 128t-38 154q0 146 112 251.5t285 105.5q108 0 229 -53q56 -25 79 -25q26 0 42.5 15.5t26.5 62.5h37z" />
    <glyph glyph-name="T" unicode="T" horiz-adv-x="1251" 
d="M1185 1356l15 -318h-38q-11 84 -30 120q-31 58 -82.5 85.5t-135.5 27.5h-191v-1036q0 -125 27 -156q38 -42 117 -42h47v-37h-575v37h48q86 0 122 52q22 32 22 146v1036h-163q-95 0 -135 -14q-52 -19 -89 -73t-44 -146h-38l16 318h1107z" />
    <glyph glyph-name="U" unicode="U" 
d="M977 1319v37h480v-37h-51q-80 0 -123 -67q-21 -31 -21 -144v-550q0 -204 -40.5 -316.5t-159 -193t-322.5 -80.5q-222 0 -337 77t-163 207q-32 89 -32 334v530q0 125 -34.5 164t-111.5 39h-51v37h586v-37h-52q-84 0 -120 -53q-25 -36 -25 -150v-591q0 -79 14.5 -181
t52.5 -159t109.5 -94t175.5 -37q133 0 238 58t143.5 148.5t38.5 306.5v549q0 127 -28 159q-39 44 -116 44h-51z" />
    <glyph glyph-name="V" unicode="V" 
d="M1454 1356v-37q-72 -13 -109 -46q-53 -49 -94 -150l-473 -1154h-37l-508 1169q-39 90 -55 110q-25 31 -61.5 48.5t-98.5 22.5v37h554v-37q-94 -9 -122 -32t-28 -59q0 -50 46 -156l345 -795l320 785q47 116 47 161q0 29 -29 55.5t-98 37.5q-5 1 -17 3v37h418z" />
    <glyph glyph-name="W" unicode="W" horiz-adv-x="1933" 
d="M1917 1356v-37q-53 0 -86 -19t-63 -71q-20 -35 -63 -167l-378 -1093h-40l-309 867l-307 -867h-36l-403 1126q-45 126 -57 149q-20 38 -54.5 56.5t-93.5 18.5v37h502v-37h-24q-53 0 -81 -24t-28 -58q0 -35 44 -161l267 -761l225 647l-40 114l-32 91q-21 50 -47 88
q-13 19 -32 32q-25 18 -50 26q-19 6 -60 6v37h528v-37h-36q-56 0 -82 -24t-26 -65q0 -51 45 -178l260 -737l258 747q44 124 44 172q0 23 -14.5 43t-36.5 28q-38 14 -99 14v37h405z" />
    <glyph glyph-name="X" unicode="X" 
d="M836 751l291 -434q121 -180 179.5 -227.5t148.5 -52.5v-37h-582v37q58 1 86 12q21 9 34.5 27.5t13.5 37.5q0 23 -9 46q-7 17 -55 88l-230 348l-284 -364q-45 -58 -54 -77.5t-9 -40.5q0 -32 27 -53t103 -24v-37h-481v37q51 5 88 21q62 26 118 70t128 135l320 404l-267 391
q-109 159 -185 208.5t-175 52.5v37h627v-37q-80 -3 -109.5 -26t-29.5 -51q0 -37 48 -108l208 -311l241 305q42 54 51.5 74t9.5 41t-12 37q-15 21 -38 29.5t-95 9.5v37h481v-37q-57 -3 -93 -18q-54 -23 -99 -62t-127 -144z" />
    <glyph glyph-name="Y" unicode="Y" 
d="M976 1356h473v-37h-26q-26 0 -76 -23t-91 -66t-101 -140l-327 -515v-340q0 -125 28 -156q38 -42 120 -42h44v-37h-576v37h48q86 0 122 52q22 32 22 146v321l-372 568q-66 100 -89.5 125t-97.5 60q-20 10 -58 10v37h580v-37h-30q-47 0 -86.5 -22t-39.5 -66q0 -36 61 -130
l283 -437l266 418q60 94 60 140q0 28 -14.5 50t-41.5 34.5t-81 12.5v37z" />
    <glyph glyph-name="Z" unicode="Z" horiz-adv-x="1251" 
d="M1178 1356l-891 -1274h556q128 0 196.5 56t121.5 227l33 -6l-64 -359h-1104v37l870 1238h-434q-108 0 -156.5 -23.5t-74 -68t-46.5 -166.5h-38l28 339h1003z" />
    <glyph glyph-name="bracketleft" unicode="[" horiz-adv-x="682" 
d="M608 -406h-440v1793h440v-79h-290v-1636h290v-78z" />
    <glyph glyph-name="backslash" unicode="\" horiz-adv-x="569" 
d="M83 1422l490 -1450h-80l-490 1450h80z" />
    <glyph glyph-name="bracketright" unicode="]" horiz-adv-x="682" 
d="M75 1387h440v-1794h-440v79h290v1636h-290v79z" />
    <glyph glyph-name="asciicircum" unicode="^" horiz-adv-x="961" 
d="M498 1384l425 -717h-92l-350 586l-350 -586h-94l431 717h30z" />
    <glyph glyph-name="underscore" unicode="_" horiz-adv-x="1024" 
d="M1042 -442h-1059v84h1059v-84z" />
    <glyph glyph-name="grave" unicode="`" horiz-adv-x="682" 
d="M118 1390h223l106 -345h-35z" />
    <glyph glyph-name="a" unicode="a" horiz-adv-x="909" 
d="M583 132q-141 -109 -177 -126q-54 -25 -115 -25q-95 0 -156.5 65t-61.5 171q0 67 30 116q41 68 142.5 128t337.5 146v36q0 137 -43.5 188t-126.5 51q-63 0 -100 -34q-38 -34 -38 -78l2 -58q0 -46 -23.5 -71t-61.5 -25q-37 0 -60.5 26t-23.5 71q0 86 88 158t247 72
q122 0 200 -41q59 -31 87 -97q18 -43 18 -176v-311q0 -131 5 -160.5t16.5 -39.5t26.5 -10q16 0 28 7q21 13 81 73v-56q-112 -150 -214 -150q-49 0 -78 34t-30 116zM583 197v349q-151 -60 -195 -85q-79 -44 -113 -92t-34 -105q0 -72 43 -119.5t99 -47.5q76 0 200 100z" />
    <glyph glyph-name="b" unicode="b" horiz-adv-x="1024" 
d="M315 758q133 185 287 185q141 0 246 -120.5t105 -329.5q0 -244 -162 -393q-139 -128 -310 -128q-80 0 -162.5 29t-168.5 87v949q0 156 -7.5 192t-23.5 49t-40 13q-28 0 -70 -16l-14 35l275 112h45v-664zM315 694v-548q51 -50 105.5 -75.5t111.5 -25.5q91 0 169.5 100
t78.5 291q0 176 -78.5 270.5t-178.5 94.5q-53 0 -106 -27q-40 -20 -102 -80z" />
    <glyph glyph-name="c" unicode="c" horiz-adv-x="909" 
d="M842 348q-37 -181 -145 -278.5t-239 -97.5q-156 0 -272 131t-116 354q0 216 128.5 351t308.5 135q135 0 222 -71.5t87 -148.5q0 -38 -24.5 -61.5t-68.5 -23.5q-59 0 -89 38q-17 21 -22.5 80t-40.5 90q-35 30 -97 30q-100 0 -161 -74q-81 -98 -81 -259q0 -164 80.5 -289.5
t217.5 -125.5q98 0 176 67q55 46 107 167z" />
    <glyph glyph-name="d" unicode="d" horiz-adv-x="1024" 
d="M711 103q-67 -70 -131 -100.5t-138 -30.5q-150 0 -262 125.5t-112 322.5t124 360.5t319 163.5q121 0 200 -77v169q0 157 -7.5 193t-23.5 49t-40 13q-26 0 -69 -16l-13 35l273 112h45v-1059q0 -161 7.5 -196.5t24 -49.5t38.5 -14q27 0 72 17l11 -35l-272 -113h-46v131z
M711 173v472q-6 68 -36 124t-79.5 84.5t-96.5 28.5q-88 0 -157 -79q-91 -104 -91 -304q0 -202 88 -309.5t196 -107.5q91 0 176 91z" />
    <glyph glyph-name="e" unicode="e" horiz-adv-x="909" 
d="M218 571q-1 -204 99 -320t235 -116q90 0 156.5 49.5t111.5 169.5l31 -20q-21 -137 -122 -249.5t-253 -112.5q-165 0 -282.5 128.5t-117.5 345.5q0 235 120.5 366.5t302.5 131.5q154 0 253 -101.5t99 -271.5h-633zM218 629h424q-5 88 -21 124q-25 56 -74.5 88t-103.5 32
q-83 0 -148.5 -64.5t-76.5 -179.5z" />
    <glyph glyph-name="f" unicode="f" horiz-adv-x="682" 
d="M422 844v-602q0 -128 28 -162q37 -44 99 -44h83v-36h-547v36h41q40 0 73 20t45.5 54t12.5 132v602h-178v72h178v60q0 137 44 232t134.5 153.5t203.5 58.5q105 0 193 -68q58 -45 58 -101q0 -30 -26 -56.5t-56 -26.5q-23 0 -48.5 16.5t-62.5 71t-68 73.5t-69 19
q-46 0 -78 -24.5t-46 -76t-14 -265.5v-66h236v-72h-236z" />
    <glyph glyph-name="g" unicode="g" horiz-adv-x="1024" 
d="M309 334q-84 41 -129 114.5t-45 162.5q0 136 102.5 234t262.5 98q131 0 227 -64h194q43 0 50 -2.5t10 -8.5q6 -9 6 -32q0 -26 -5 -36q-3 -5 -10.5 -8t-50.5 -3h-119q56 -72 56 -184q0 -128 -98 -219t-263 -91q-68 0 -139 20q-44 -38 -59.5 -66.5t-15.5 -48.5
q0 -17 16.5 -33t64.5 -23q28 -4 140 -7q206 -5 267 -14q93 -13 148.5 -69t55.5 -138q0 -113 -106 -212q-156 -146 -407 -146q-193 0 -326 87q-75 50 -75 104q0 24 11 48q17 37 70 103q7 9 102 108q-52 31 -73.5 55.5t-21.5 55.5q0 35 28.5 82t131.5 133zM483 895
q-74 0 -124 -59t-50 -181q0 -158 68 -245q52 -66 132 -66q76 0 125 57t49 179q0 159 -69 249q-51 66 -131 66zM299 0q-47 -51 -71 -95t-24 -81q0 -48 58 -84q100 -62 289 -62q180 0 265.5 63.5t85.5 135.5q0 52 -51 74q-52 22 -206 26q-225 6 -346 23z" />
    <glyph glyph-name="h" unicode="h" horiz-adv-x="1024" 
d="M333 1422v-670q111 122 176 156.5t130 34.5q78 0 134 -43t83 -135q19 -64 19 -234v-324q0 -87 14 -119q10 -24 34 -38t88 -14v-36h-450v36h21q64 0 89 19.5t35 57.5q3 16 3 94v324q0 150 -15.5 197t-49.5 70.5t-82 23.5q-49 0 -102 -26t-127 -105v-484q0 -94 10.5 -117
t39 -38.5t98.5 -15.5v-36h-454v36q61 0 96 19q20 10 32 38t12 114v829q0 157 -7.5 193t-23 49t-41.5 13q-21 0 -68 -16l-14 35l274 112h46z" />
    <glyph glyph-name="i" unicode="i" horiz-adv-x="569" 
d="M297 1422q42 0 71.5 -29.5t29.5 -71.5t-29.5 -72t-71.5 -30t-72 30t-30 72t29.5 71.5t72.5 29.5zM380 943v-736q0 -86 12.5 -114.5t37 -42.5t89.5 -14v-36h-445v36q67 0 90 13t36.5 43t13.5 115v353q0 149 -9 193q-7 32 -22 44.5t-41 12.5q-28 0 -68 -15l-14 36l276 112
h44z" />
    <glyph glyph-name="j" unicode="j" horiz-adv-x="569" 
d="M296 1423q43 0 73 -30t30 -73q0 -42 -30 -72t-73 -30q-42 0 -72 30t-30 72q0 43 30 73t72 30zM382 943v-922q0 -235 -100 -349t-260 -114q-91 0 -135 33t-44 68t24.5 60t57.5 25q26 0 53 -13q17 -7 65.5 -50.5t81.5 -43.5q24 0 47 18.5t34 62t11 188.5v652q0 151 -9 194
q-7 33 -22 45.5t-41 12.5q-28 0 -68 -15l-14 36l276 112h43z" />
    <glyph glyph-name="k" unicode="k" horiz-adv-x="1024" 
d="M335 1422v-911l233 212q74 68 86 86q8 12 8 24q0 20 -16.5 34.5t-54.5 16.5v32h398v-32q-82 -2 -136.5 -25t-119.5 -82l-235 -217l235 -297q98 -123 132 -156q48 -47 84 -61q25 -10 87 -10v-36h-445v36q38 1 51.5 11.5t13.5 29.5q0 23 -40 74l-281 359v-304
q0 -89 12.5 -117t35.5 -40t100 -13v-36h-466v36q70 0 105 17q21 11 32 34q15 33 15 114v834q0 159 -7 194.5t-23 49t-42 13.5q-21 0 -63 -17l-17 35l272 112h46z" />
    <glyph glyph-name="l" unicode="l" horiz-adv-x="569" 
d="M379 1422v-1215q0 -86 12.5 -114t38.5 -42.5t97 -14.5v-36h-449v36q63 0 86 13t36 43t13 115v832q0 155 -7 190.5t-22.5 48.5t-39.5 13q-26 0 -66 -16l-17 35l273 112h45z" />
    <glyph glyph-name="m" unicode="m" horiz-adv-x="1593" 
d="M336 748q100 100 118 115q45 38 97 59t103 21q86 0 148 -50t83 -145q103 120 174 157.5t146 37.5q73 0 129.5 -37.5t89.5 -122.5q22 -58 22 -182v-394q0 -86 13 -118q10 -22 37 -37.5t88 -15.5v-36h-452v36h19q59 0 92 23q23 16 33 51q4 17 4 97v394q0 112 -27 158
q-39 64 -125 64q-53 0 -106.5 -26.5t-129.5 -98.5l-2 -11l2 -43v-437q0 -94 10.5 -117t39.5 -38.5t99 -15.5v-36h-463v36q76 0 104.5 18t39.5 54q5 17 5 99v394q0 112 -33 161q-44 64 -123 64q-54 0 -107 -29q-83 -44 -128 -99v-491q0 -90 12.5 -117t37 -40.5t99.5 -13.5
v-36h-453v36q63 0 88 13.5t38 43t13 114.5v350q0 151 -9 195q-7 33 -22 45.5t-41 12.5q-28 0 -67 -15l-15 36l276 112h43v-195z" />
    <glyph glyph-name="n" unicode="n" horiz-adv-x="1024" 
d="M331 749q161 194 307 194q75 0 129 -37.5t86 -123.5q22 -60 22 -184v-391q0 -87 14 -118q11 -25 35.5 -39t90.5 -14v-36h-453v36h19q64 0 89.5 19.5t35.5 57.5q4 15 4 94v375q0 125 -32.5 181.5t-109.5 56.5q-119 0 -237 -130v-483q0 -93 11 -115q14 -29 38.5 -42.5
t99.5 -13.5v-36h-453v36h20q70 0 94.5 35.5t24.5 135.5v340q0 165 -7.5 201t-23 49t-41.5 13q-28 0 -67 -15l-15 36l276 112h43v-194z" />
    <glyph glyph-name="o" unicode="o" horiz-adv-x="1024" 
d="M512 943q208 0 334 -158q107 -135 107 -310q0 -123 -59 -249t-162.5 -190t-230.5 -64q-207 0 -329 165q-103 139 -103 312q0 126 62.5 250.5t164.5 184t216 59.5zM481 878q-53 0 -106.5 -31.5t-86.5 -110.5t-33 -203q0 -200 79.5 -345t209.5 -145q97 0 160 80t63 275
q0 244 -105 384q-71 96 -181 96z" />
    <glyph glyph-name="p" unicode="p" horiz-adv-x="1024" 
d="M-2 825l282 114h38v-214q71 121 142.5 169.5t150.5 48.5q138 0 230 -108q113 -132 113 -344q0 -237 -136 -392q-112 -127 -282 -127q-74 0 -128 21q-40 15 -90 60v-279q0 -94 11.5 -119.5t40 -40.5t103.5 -15v-37h-480v37h25q55 -1 94 21q19 11 29.5 35.5t10.5 124.5v866
q0 89 -8 113t-25.5 36t-47.5 12q-24 0 -61 -14zM318 666v-342q0 -111 9 -146q14 -58 68.5 -102t137.5 -44q100 0 162 78q81 102 81 287q0 210 -92 323q-64 78 -152 78q-48 0 -95 -24q-36 -18 -119 -108z" />
    <glyph glyph-name="q" unicode="q" horiz-adv-x="1024" 
d="M875 943v-1178q0 -88 12 -113t37.5 -39t99.5 -14v-37h-462v37h19q56 0 85 16q20 11 32 39.5t12 110.5v394q-91 -108 -159 -147.5t-141 -39.5q-133 0 -237.5 121t-104.5 324q0 233 138 379.5t333 146.5q57 0 105 -16t86 -48q58 28 111 64h34zM710 222v430q0 75 -19.5 118
t-69.5 73t-113 30q-112 0 -192 -95t-80 -288q0 -185 81.5 -281t196.5 -96q59 0 105 25.5t91 83.5z" />
    <glyph glyph-name="r" unicode="r" horiz-adv-x="682" 
d="M332 943v-206q115 206 236 206q55 0 91 -33.5t36 -77.5q0 -39 -26 -66t-62 -27q-35 0 -78.5 34.5t-64.5 34.5q-18 0 -39 -20q-45 -41 -93 -135v-439q0 -76 19 -115q13 -27 46 -45t95 -18v-36h-469v36q70 0 104 22q25 16 35 51q5 17 5 97v355q0 160 -6.5 190.5t-24 44.5
t-43.5 14q-31 0 -70 -15l-10 36l277 112h42z" />
    <glyph glyph-name="s" unicode="s" horiz-adv-x="797" 
d="M656 943v-312h-33q-38 147 -97.5 200t-151.5 53q-70 0 -113 -37t-43 -82q0 -56 32 -96q31 -41 126 -87l146 -71q203 -99 203 -261q0 -125 -94.5 -201.5t-211.5 -76.5q-84 0 -192 30q-33 10 -54 10q-23 0 -36 -26h-33v327h33q28 -140 107 -211t177 -71q69 0 112.5 40.5
t43.5 97.5q0 69 -48.5 116t-193.5 119t-190 130q-45 57 -45 144q0 113 77.5 189t200.5 76q54 0 131 -23q51 -15 68 -15q16 0 25 7t21 31h33z" />
    <glyph glyph-name="t" unicode="t" horiz-adv-x="569" 
d="M330 1217v-301h214v-70h-214v-594q0 -89 25.5 -120t65.5 -31q33 0 64 20.5t48 60.5h39q-35 -98 -99 -147.5t-132 -49.5q-46 0 -90 25.5t-65 73t-21 146.5v616h-145v33q55 22 112.5 74.5t102.5 124.5q23 38 64 139h31z" />
    <glyph glyph-name="u" unicode="u" horiz-adv-x="1024" 
d="M867 916v-555q0 -159 7.5 -194.5t24 -49.5t38.5 -14q31 0 70 17l14 -35l-274 -113h-45v194q-118 -128 -180 -161t-131 -33q-77 0 -133.5 44.5t-78.5 114.5t-22 198v409q0 65 -14 90t-41.5 38.5t-99.5 12.5v37h321v-613q0 -128 44.5 -168t107.5 -40q43 0 97.5 27
t129.5 103v519q0 78 -28.5 105.5t-118.5 29.5v37h312z" />
    <glyph glyph-name="v" unicode="v" horiz-adv-x="1024" 
d="M17 916h431v-37h-28q-39 0 -59.5 -19t-20.5 -51q0 -35 21 -83l213 -506l214 525q23 56 23 85q0 14 -8 23q-11 15 -28 20.5t-69 5.5v37h299v-37q-52 -4 -72 -21q-35 -30 -63 -100l-325 -786h-41l-327 773q-22 54 -42 77.5t-51 39.5q-17 9 -67 17v37z" />
    <glyph glyph-name="w" unicode="w" 
d="M13 916h384v-37q-53 -4 -69.5 -19t-16.5 -43q0 -31 17 -75l196 -527l197 429l-52 135q-24 60 -63 83q-22 14 -82 17v37h436v-37q-72 -3 -102 -26q-20 -16 -20 -51q0 -20 8 -41l208 -526l193 507q20 54 20 86q0 19 -19.5 34t-76.5 17v37h289v-37q-87 -13 -128 -118
l-306 -789h-41l-229 585l-267 -585h-37l-294 770q-29 73 -57 98.5t-88 38.5v37z" />
    <glyph glyph-name="x" unicode="x" horiz-adv-x="1024" 
d="M27 916h431v-37q-41 0 -57.5 -14t-16.5 -37q0 -24 35 -74q11 -16 33 -50l65 -104l75 104q72 99 72 125q0 21 -17 35.5t-55 14.5v37h310v-37q-49 -3 -85 -27q-49 -34 -134 -148l-125 -167l228 -328q84 -121 120 -145.5t93 -27.5v-36h-432v36q45 0 70 20q19 14 19 37
t-64 116l-134 196l-147 -196q-68 -91 -68 -108q0 -24 22.5 -43.5t67.5 -21.5v-36h-299v36q36 5 63 25q38 29 128 148l192 255l-174 252q-74 108 -114.5 135.5t-101.5 27.5v37z" />
    <glyph glyph-name="y" unicode="y" horiz-adv-x="1024" 
d="M12 916h427v-37h-21q-45 0 -67.5 -19.5t-22.5 -48.5q0 -39 33 -108l223 -462l205 506q17 41 17 81q0 18 -7 27q-8 11 -25 17.5t-60 6.5v37h298v-37q-37 -4 -57 -16t-44 -45q-9 -14 -34 -77l-373 -914q-54 -133 -141.5 -201t-168.5 -68q-59 0 -97 34t-38 78
q0 42 27.5 67.5t75.5 25.5q33 0 90 -22q40 -15 50 -15q30 0 65.5 31t71.5 120l65 159l-329 691q-15 31 -48 77q-25 35 -41 47q-23 16 -74 28v37z" />
    <glyph glyph-name="z" unicode="z" horiz-adv-x="909" 
d="M860 281l-11 -281h-808v36l608 810h-300q-97 0 -127 -12.5t-49 -47.5q-27 -50 -31 -124h-40l6 254h768v-37l-614 -812h334q105 0 142.5 17.5t60.5 61.5q16 32 27 135h34z" />
    <glyph glyph-name="braceleft" unicode="{" horiz-adv-x="983" 
d="M841 -407v-35q-167 23 -271.5 135.5t-104.5 249.5q0 72 23 167.5t23 148.5q0 72 -60.5 134.5t-167.5 76.5v41q107 14 167.5 76t60.5 135q0 53 -23 148t-23 168q0 136 104.5 249t271.5 135v-35q-117 -28 -171.5 -91.5t-54.5 -139.5q0 -59 22.5 -155.5t22.5 -164.5
q0 -101 -74 -196t-221 -147q144 -53 219.5 -150t75.5 -198q0 -68 -22.5 -164.5t-22.5 -155.5q0 -76 54.5 -139.5t171.5 -92.5z" />
    <glyph glyph-name="bar" unicode="|" horiz-adv-x="410" 
d="M244 1422v-1864h-83v1864h83z" />
    <glyph glyph-name="braceright" unicode="}" horiz-adv-x="983" 
d="M177 1387v35q167 -22 271.5 -134.5t104.5 -250.5q0 -72 -23 -167t-23 -148q0 -72 60.5 -134.5t167.5 -76.5v-41q-107 -14 -167.5 -76.5t-60.5 -134.5q0 -53 23 -148.5t23 -167.5q0 -136 -104.5 -249t-271.5 -136v35q117 29 171.5 92t54.5 140q0 59 -23 155.5t-23 163.5
q0 102 74.5 197t221.5 147q-144 53 -220 150t-76 198q0 68 23 164.5t23 155.5q0 76 -54.5 139.5t-171.5 91.5z" />
    <glyph glyph-name="asciitilde" unicode="~" horiz-adv-x="1108" 
d="M1042 675h45q-4 -130 -74 -203.5t-171 -73.5q-46 0 -99 15.5t-274 105.5q-154 64 -219 64q-70 0 -118 -43t-68 -140h-44q6 135 74 206.5t160 71.5q44 0 90 -14q104 -30 273.5 -102.5t238.5 -72.5q75 0 126 48t60 138z" />
    <glyph glyph-name="Adieresis" unicode="&#xc4;" 
d="M937 454h-525l-92 -214q-34 -79 -34 -118q0 -31 29.5 -54.5t127.5 -30.5v-37h-427v37q85 15 110 39q51 48 113 195l477 1116h35l472 -1128q57 -136 103.5 -176.5t129.5 -45.5v-37h-535v37q81 4 109.5 27t28.5 56q0 44 -40 139zM909 528l-230 548l-236 -548h466zM911 1708
q45 0 76.5 -32t31.5 -77t-31.5 -76.5t-76.5 -31.5t-77 31.5t-32 76.5t32 77t77 32zM558 1708q46 0 77.5 -32t31.5 -77t-32 -76.5t-76 -31.5q-45 0 -77 31.5t-32 76.5t31.5 77t76.5 32z" />
    <glyph glyph-name="Aring" unicode="&#xc5;" 
d="M937 454h-525l-92 -214q-34 -79 -34 -118q0 -31 29.5 -54.5t127.5 -30.5v-37h-427v37q85 15 110 39q51 48 113 195l477 1116h35l472 -1128q57 -136 103.5 -176.5t129.5 -45.5v-37h-535v37q81 4 109.5 27t28.5 56q0 44 -40 139zM909 528l-230 548l-236 -548h466zM731 1701
q80 0 136 -56t56 -135q0 -80 -56 -136t-136 -56q-79 0 -135 56t-56 136q0 79 55.5 135t135.5 56zM731 1632q-51 0 -86.5 -35.5t-35.5 -86.5q0 -50 35.5 -86t86.5 -36t86.5 36t35.5 86q0 51 -35.5 86.5t-86.5 35.5z" />
    <glyph glyph-name="Ccedilla" unicode="&#xc7;" horiz-adv-x="1366" 
d="M1233 1387l31 -461h-31q-62 207 -177 298t-276 91q-135 0 -244 -68.5t-171.5 -218.5t-62.5 -373q0 -184 59 -319t177.5 -207t270.5 -72q132 0 233 56.5t222 224.5l31 -20q-102 -181 -238 -265t-323 -84q-337 0 -522 250q-138 186 -138 438q0 203 91 373t250.5 263.5
t348.5 93.5q147 0 290 -72q42 -22 60 -22q27 0 47 19q26 27 37 75h35zM698 16h60l-50 -79q63 -16 94 -54t31 -92q0 -72 -60 -126.5t-155 -54.5q-37 0 -94 7v43q28 -4 48 -4q51 0 86 33.5t35 76.5q0 30 -23 52t-57 22q-10 0 -26 -2z" />
    <glyph glyph-name="Eacute" unicode="&#xc9;" horiz-adv-x="1251" 
d="M428 1282v-536h298q116 0 155 35q52 46 58 162h37v-472h-37q-14 99 -28 127q-18 35 -59 55t-126 20h-298v-447q0 -90 8 -109.5t28 -31t76 -11.5h230q115 0 167 16t100 63q62 62 127 187h40l-117 -340h-1045v37h48q48 0 91 23q32 16 43.5 48t11.5 131v881q0 129 -26 159
q-36 40 -120 40h-48v37h1045l15 -297h-39q-21 107 -46.5 147t-75.5 61q-40 15 -141 15h-372zM853 1797l-295 -345h-34l105 345h224z" />
    <glyph glyph-name="Ntilde" unicode="&#xd1;" 
d="M-27 1356h368l829 -1017v782q0 125 -28 156q-37 42 -117 42h-47v37h472v-37h-48q-86 0 -122 -52q-22 -32 -22 -146v-1143h-36l-894 1092v-835q0 -125 27 -156q38 -42 117 -42h48v-37h-472v37h47q87 0 123 52q22 32 22 146v943q-59 69 -89.5 91t-89.5 41q-29 9 -88 9v37z
M448 1465h-32q4 137 57 198t131 61q41 0 75 -13q45 -17 127.5 -71.5t122.5 -54.5q32 0 56.5 27t38.5 112h31q1 -93 -24.5 -147.5t-72 -85t-93.5 -30.5q-79 0 -196 80q-63 43 -85 52t-43 9q-41 0 -65 -36q-11 -17 -28 -101z" />
    <glyph glyph-name="Odieresis" unicode="&#xd6;" 
d="M749 1387q264 0 457.5 -200.5t193.5 -500.5q0 -309 -195 -513t-472 -204q-280 0 -470.5 199t-190.5 515q0 323 220 527q191 177 457 177zM730 1314q-182 0 -292 -135q-137 -168 -137 -492q0 -332 142 -511q109 -136 288 -136q191 0 315.5 149t124.5 470q0 348 -137 519
q-110 136 -304 136zM909 1708q45 0 76.5 -32t31.5 -77t-31.5 -76.5t-76.5 -31.5t-77 31.5t-32 76.5t32 77t77 32zM556 1708q46 0 77.5 -32t31.5 -77t-32 -76.5t-76 -31.5q-45 0 -77 31.5t-32 76.5t31.5 77t76.5 32z" />
    <glyph glyph-name="Udieresis" unicode="&#xdc;" 
d="M977 1319v37h480v-37h-51q-80 0 -123 -67q-21 -31 -21 -144v-550q0 -204 -40.5 -316.5t-159 -193t-322.5 -80.5q-222 0 -337 77t-163 207q-32 89 -32 334v530q0 125 -34.5 164t-111.5 39h-51v37h586v-37h-52q-84 0 -120 -53q-25 -36 -25 -150v-591q0 -79 14.5 -181
t52.5 -159t109.5 -94t175.5 -37q133 0 238 58t143.5 148.5t38.5 306.5v549q0 127 -28 159q-39 44 -116 44h-51zM960 1708q45 0 76.5 -32t31.5 -77t-31.5 -76.5t-76.5 -31.5t-77 31.5t-32 76.5t32 77t77 32zM607 1708q46 0 77.5 -32t31.5 -77t-32 -76.5t-76 -31.5
q-45 0 -77 31.5t-32 76.5t31.5 77t76.5 32z" />
    <glyph glyph-name="aacute" unicode="&#xe1;" horiz-adv-x="909" 
d="M583 132q-141 -109 -177 -126q-54 -25 -115 -25q-95 0 -156.5 65t-61.5 171q0 67 30 116q41 68 142.5 128t337.5 146v36q0 137 -43.5 188t-126.5 51q-63 0 -100 -34q-38 -34 -38 -78l2 -58q0 -46 -23.5 -71t-61.5 -25q-37 0 -60.5 26t-23.5 71q0 86 88 158t247 72
q122 0 200 -41q59 -31 87 -97q18 -43 18 -176v-311q0 -131 5 -160.5t16.5 -39.5t26.5 -10q16 0 28 7q21 13 81 73v-56q-112 -150 -214 -150q-49 0 -78 34t-30 116zM583 197v349q-151 -60 -195 -85q-79 -44 -113 -92t-34 -105q0 -72 43 -119.5t99 -47.5q76 0 200 100z
M682 1390l-295 -345h-34l105 345h224z" />
    <glyph glyph-name="agrave" unicode="&#xe0;" horiz-adv-x="909" 
d="M583 132q-141 -109 -177 -126q-54 -25 -115 -25q-95 0 -156.5 65t-61.5 171q0 67 30 116q41 68 142.5 128t337.5 146v36q0 137 -43.5 188t-126.5 51q-63 0 -100 -34q-38 -34 -38 -78l2 -58q0 -46 -23.5 -71t-61.5 -25q-37 0 -60.5 26t-23.5 71q0 86 88 158t247 72
q122 0 200 -41q59 -31 87 -97q18 -43 18 -176v-311q0 -131 5 -160.5t16.5 -39.5t26.5 -10q16 0 28 7q21 13 81 73v-56q-112 -150 -214 -150q-49 0 -78 34t-30 116zM583 197v349q-151 -60 -195 -85q-79 -44 -113 -92t-34 -105q0 -72 43 -119.5t99 -47.5q76 0 200 100z
M260 1390h223l106 -345h-35z" />
    <glyph glyph-name="acircumflex" unicode="&#xe2;" horiz-adv-x="909" 
d="M583 132q-141 -109 -177 -126q-54 -25 -115 -25q-95 0 -156.5 65t-61.5 171q0 67 30 116q41 68 142.5 128t337.5 146v36q0 137 -43.5 188t-126.5 51q-63 0 -100 -34q-38 -34 -38 -78l2 -58q0 -46 -23.5 -71t-61.5 -25q-37 0 -60.5 26t-23.5 71q0 86 88 158t247 72
q122 0 200 -41q59 -31 87 -97q18 -43 18 -176v-311q0 -131 5 -160.5t16.5 -39.5t26.5 -10q16 0 28 7q21 13 81 73v-56q-112 -150 -214 -150q-49 0 -78 34t-30 116zM583 197v349q-151 -60 -195 -85q-79 -44 -113 -92t-34 -105q0 -72 43 -119.5t99 -47.5q76 0 200 100z
M366 1385h184l190 -331h-31l-273 213l-229 -213h-30z" />
    <glyph glyph-name="adieresis" unicode="&#xe4;" horiz-adv-x="909" 
d="M583 132q-141 -109 -177 -126q-54 -25 -115 -25q-95 0 -156.5 65t-61.5 171q0 67 30 116q41 68 142.5 128t337.5 146v36q0 137 -43.5 188t-126.5 51q-63 0 -100 -34q-38 -34 -38 -78l2 -58q0 -46 -23.5 -71t-61.5 -25q-37 0 -60.5 26t-23.5 71q0 86 88 158t247 72
q122 0 200 -41q59 -31 87 -97q18 -43 18 -176v-311q0 -131 5 -160.5t16.5 -39.5t26.5 -10q16 0 28 7q21 13 81 73v-56q-112 -150 -214 -150q-49 0 -78 34t-30 116zM583 197v349q-151 -60 -195 -85q-79 -44 -113 -92t-34 -105q0 -72 43 -119.5t99 -47.5q76 0 200 100z
M634 1337q45 0 76.5 -32t31.5 -77t-31.5 -76.5t-76.5 -31.5t-77 31.5t-32 76.5t32 77t77 32zM281 1337q46 0 77.5 -32t31.5 -77t-32 -76.5t-76 -31.5q-45 0 -77 31.5t-32 76.5t31.5 77t76.5 32z" />
    <glyph glyph-name="atilde" unicode="&#xe3;" horiz-adv-x="909" 
d="M583 132q-141 -109 -177 -126q-54 -25 -115 -25q-95 0 -156.5 65t-61.5 171q0 67 30 116q41 68 142.5 128t337.5 146v36q0 137 -43.5 188t-126.5 51q-63 0 -100 -34q-38 -34 -38 -78l2 -58q0 -46 -23.5 -71t-61.5 -25q-37 0 -60.5 26t-23.5 71q0 86 88 158t247 72
q122 0 200 -41q59 -31 87 -97q18 -43 18 -176v-311q0 -131 5 -160.5t16.5 -39.5t26.5 -10q16 0 28 7q21 13 81 73v-56q-112 -150 -214 -150q-49 0 -78 34t-30 116zM583 197v349q-151 -60 -195 -85q-79 -44 -113 -92t-34 -105q0 -72 43 -119.5t99 -47.5q76 0 200 100z
M171 1097h-32q4 137 57 198t131 61q41 0 75 -13q45 -17 127.5 -71.5t122.5 -54.5q32 0 56.5 27t38.5 112h31q1 -93 -24.5 -147.5t-72 -85t-93.5 -30.5q-79 0 -196 80q-63 43 -85 52t-43 9q-41 0 -65 -36q-11 -17 -28 -101z" />
    <glyph glyph-name="aring" unicode="&#xe5;" horiz-adv-x="909" 
d="M583 132q-141 -109 -177 -126q-54 -25 -115 -25q-95 0 -156.5 65t-61.5 171q0 67 30 116q41 68 142.5 128t337.5 146v36q0 137 -43.5 188t-126.5 51q-63 0 -100 -34q-38 -34 -38 -78l2 -58q0 -46 -23.5 -71t-61.5 -25q-37 0 -60.5 26t-23.5 71q0 86 88 158t247 72
q122 0 200 -41q59 -31 87 -97q18 -43 18 -176v-311q0 -131 5 -160.5t16.5 -39.5t26.5 -10q16 0 28 7q21 13 81 73v-56q-112 -150 -214 -150q-49 0 -78 34t-30 116zM583 197v349q-151 -60 -195 -85q-79 -44 -113 -92t-34 -105q0 -72 43 -119.5t99 -47.5q76 0 200 100z
M458 1426q80 0 136 -56t56 -135q0 -80 -56 -136t-136 -56q-79 0 -135 56t-56 136q0 79 55.5 135t135.5 56zM458 1357q-51 0 -86.5 -35.5t-35.5 -86.5q0 -50 35.5 -86t86.5 -36t86.5 36t35.5 86q0 51 -35.5 86.5t-86.5 35.5z" />
    <glyph glyph-name="ccedilla" unicode="&#xe7;" horiz-adv-x="909" 
d="M842 348q-37 -181 -145 -278.5t-239 -97.5q-156 0 -272 131t-116 354q0 216 128.5 351t308.5 135q135 0 222 -71.5t87 -148.5q0 -38 -24.5 -61.5t-68.5 -23.5q-59 0 -89 38q-17 21 -22.5 80t-40.5 90q-35 30 -97 30q-100 0 -161 -74q-81 -98 -81 -259q0 -164 80.5 -289.5
t217.5 -125.5q98 0 176 67q55 46 107 167zM470 16h60l-50 -79q63 -16 94 -54t31 -92q0 -72 -60 -126.5t-155 -54.5q-37 0 -94 7v43q28 -4 48 -4q51 0 86 33.5t35 76.5q0 30 -23 52t-57 22q-10 0 -26 -2z" />
    <glyph glyph-name="eacute" unicode="&#xe9;" horiz-adv-x="909" 
d="M218 571q-1 -204 99 -320t235 -116q90 0 156.5 49.5t111.5 169.5l31 -20q-21 -137 -122 -249.5t-253 -112.5q-165 0 -282.5 128.5t-117.5 345.5q0 235 120.5 366.5t302.5 131.5q154 0 253 -101.5t99 -271.5h-633zM218 629h424q-5 88 -21 124q-25 56 -74.5 88t-103.5 32
q-83 0 -148.5 -64.5t-76.5 -179.5zM695 1390l-295 -345h-34l105 345h224z" />
    <glyph glyph-name="egrave" unicode="&#xe8;" horiz-adv-x="909" 
d="M218 571q-1 -204 99 -320t235 -116q90 0 156.5 49.5t111.5 169.5l31 -20q-21 -137 -122 -249.5t-253 -112.5q-165 0 -282.5 128.5t-117.5 345.5q0 235 120.5 366.5t302.5 131.5q154 0 253 -101.5t99 -271.5h-633zM218 629h424q-5 88 -21 124q-25 56 -74.5 88t-103.5 32
q-83 0 -148.5 -64.5t-76.5 -179.5zM285 1390h223l106 -345h-35z" />
    <glyph glyph-name="ecircumflex" unicode="&#xea;" horiz-adv-x="909" 
d="M218 571q-1 -204 99 -320t235 -116q90 0 156.5 49.5t111.5 169.5l31 -20q-21 -137 -122 -249.5t-253 -112.5q-165 0 -282.5 128.5t-117.5 345.5q0 235 120.5 366.5t302.5 131.5q154 0 253 -101.5t99 -271.5h-633zM218 629h424q-5 88 -21 124q-25 56 -74.5 88t-103.5 32
q-83 0 -148.5 -64.5t-76.5 -179.5zM403 1385h184l190 -331h-31l-273 213l-229 -213h-30z" />
    <glyph glyph-name="edieresis" unicode="&#xeb;" horiz-adv-x="909" 
d="M218 571q-1 -204 99 -320t235 -116q90 0 156.5 49.5t111.5 169.5l31 -20q-21 -137 -122 -249.5t-253 -112.5q-165 0 -282.5 128.5t-117.5 345.5q0 235 120.5 366.5t302.5 131.5q154 0 253 -101.5t99 -271.5h-633zM218 629h424q-5 88 -21 124q-25 56 -74.5 88t-103.5 32
q-83 0 -148.5 -64.5t-76.5 -179.5zM671 1336q45 0 76.5 -32t31.5 -77t-31.5 -76.5t-76.5 -31.5t-77 31.5t-32 76.5t32 77t77 32zM318 1336q46 0 77.5 -32t31.5 -77t-32 -76.5t-76 -31.5q-45 0 -77 31.5t-32 76.5t31.5 77t76.5 32z" />
    <glyph glyph-name="iacute" unicode="&#xed;" horiz-adv-x="569" 
d="M379 943v-736q0 -86 13 -114.5t37.5 -42.5t89.5 -14v-36h-445v36q67 0 90 13t36.5 43t13.5 115v353q0 149 -9 193q-7 32 -22 44.5t-41 12.5q-28 0 -68 -15l-14 36l276 112h43zM498 1390l-295 -345h-34l105 345h224z" />
    <glyph glyph-name="igrave" unicode="&#xec;" horiz-adv-x="569" 
d="M379 943v-736q0 -86 13 -114.5t37.5 -42.5t89.5 -14v-36h-445v36q67 0 90 13t36.5 43t13.5 115v353q0 149 -9 193q-7 32 -22 44.5t-41 12.5q-28 0 -68 -15l-14 36l276 112h43zM77 1390h223l106 -345h-35z" />
    <glyph glyph-name="icircumflex" unicode="&#xee;" horiz-adv-x="569" 
d="M379 943v-736q0 -86 13 -114.5t37.5 -42.5t89.5 -14v-36h-445v36q67 0 90 13t36.5 43t13.5 115v353q0 149 -9 193q-7 32 -22 44.5t-41 12.5q-28 0 -68 -15l-14 36l276 112h43zM202 1385h184l190 -331h-31l-273 213l-229 -213h-30z" />
    <glyph glyph-name="idieresis" unicode="&#xef;" horiz-adv-x="569" 
d="M379 943v-736q0 -86 13 -114.5t37.5 -42.5t89.5 -14v-36h-445v36q67 0 90 13t36.5 43t13.5 115v353q0 149 -9 193q-7 32 -22 44.5t-41 12.5q-28 0 -68 -15l-14 36l276 112h43zM463 1336q45 0 76.5 -32t31.5 -77t-31.5 -76.5t-76.5 -31.5t-77 31.5t-32 76.5t32 77t77 32z
M110 1336q46 0 77.5 -32t31.5 -77t-32 -76.5t-76 -31.5q-45 0 -77 31.5t-32 76.5t31.5 77t76.5 32z" />
    <glyph glyph-name="ntilde" unicode="&#xf1;" horiz-adv-x="1024" 
d="M331 749q161 194 307 194q75 0 129 -37.5t86 -123.5q22 -60 22 -184v-391q0 -87 14 -118q11 -25 35.5 -39t90.5 -14v-36h-453v36h19q64 0 89.5 19.5t35.5 57.5q4 15 4 94v375q0 125 -32.5 181.5t-109.5 56.5q-119 0 -237 -130v-483q0 -93 11 -115q14 -29 38.5 -42.5
t99.5 -13.5v-36h-453v36h20q70 0 94.5 35.5t24.5 135.5v340q0 165 -7.5 201t-23 49t-41.5 13q-28 0 -67 -15l-15 36l276 112h43v-194zM225 1097h-32q4 137 57 198t131 61q41 0 75 -13q45 -17 127.5 -71.5t122.5 -54.5q32 0 56.5 27t38.5 112h31q1 -93 -24.5 -147.5t-72 -85
t-93.5 -30.5q-79 0 -196 80q-63 43 -85 52t-43 9q-41 0 -65 -36q-11 -17 -28 -101z" />
    <glyph glyph-name="oacute" unicode="&#xf3;" horiz-adv-x="1024" 
d="M512 943q208 0 334 -158q107 -135 107 -310q0 -123 -59 -249t-162.5 -190t-230.5 -64q-207 0 -329 165q-103 139 -103 312q0 126 62.5 250.5t164.5 184t216 59.5zM481 878q-53 0 -106.5 -31.5t-86.5 -110.5t-33 -203q0 -200 79.5 -345t209.5 -145q97 0 160 80t63 275
q0 244 -105 384q-71 96 -181 96zM723 1390l-295 -345h-34l105 345h224z" />
    <glyph glyph-name="ograve" unicode="&#xf2;" horiz-adv-x="1024" 
d="M512 943q208 0 334 -158q107 -135 107 -310q0 -123 -59 -249t-162.5 -190t-230.5 -64q-207 0 -329 165q-103 139 -103 312q0 126 62.5 250.5t164.5 184t216 59.5zM481 878q-53 0 -106.5 -31.5t-86.5 -110.5t-33 -203q0 -200 79.5 -345t209.5 -145q97 0 160 80t63 275
q0 244 -105 384q-71 96 -181 96zM301 1390h223l106 -345h-35z" />
    <glyph glyph-name="ocircumflex" unicode="&#xf4;" horiz-adv-x="1024" 
d="M512 943q208 0 334 -158q107 -135 107 -310q0 -123 -59 -249t-162.5 -190t-230.5 -64q-207 0 -329 165q-103 139 -103 312q0 126 62.5 250.5t164.5 184t216 59.5zM481 878q-53 0 -106.5 -31.5t-86.5 -110.5t-33 -203q0 -200 79.5 -345t209.5 -145q97 0 160 80t63 275
q0 244 -105 384q-71 96 -181 96zM431 1385h184l190 -331h-31l-273 213l-229 -213h-30z" />
    <glyph glyph-name="odieresis" unicode="&#xf6;" horiz-adv-x="1024" 
d="M512 943q208 0 334 -158q107 -135 107 -310q0 -123 -59 -249t-162.5 -190t-230.5 -64q-207 0 -329 165q-103 139 -103 312q0 126 62.5 250.5t164.5 184t216 59.5zM481 878q-53 0 -106.5 -31.5t-86.5 -110.5t-33 -203q0 -200 79.5 -345t209.5 -145q97 0 160 80t63 275
q0 244 -105 384q-71 96 -181 96zM687 1336q45 0 76.5 -32t31.5 -77t-31.5 -76.5t-76.5 -31.5t-77 31.5t-32 76.5t32 77t77 32zM334 1336q46 0 77.5 -32t31.5 -77t-32 -76.5t-76 -31.5q-45 0 -77 31.5t-32 76.5t31.5 77t76.5 32z" />
    <glyph glyph-name="otilde" unicode="&#xf5;" horiz-adv-x="1024" 
d="M512 943q208 0 334 -158q107 -135 107 -310q0 -123 -59 -249t-162.5 -190t-230.5 -64q-207 0 -329 165q-103 139 -103 312q0 126 62.5 250.5t164.5 184t216 59.5zM481 878q-53 0 -106.5 -31.5t-86.5 -110.5t-33 -203q0 -200 79.5 -345t209.5 -145q97 0 160 80t63 275
q0 244 -105 384q-71 96 -181 96zM224 1097h-32q4 137 57 198t131 61q41 0 75 -13q45 -17 127.5 -71.5t122.5 -54.5q32 0 56.5 27t38.5 112h31q1 -93 -24.5 -147.5t-72 -85t-93.5 -30.5q-79 0 -196 80q-63 43 -85 52t-43 9q-41 0 -65 -36q-11 -17 -28 -101z" />
    <glyph glyph-name="uacute" unicode="&#xfa;" horiz-adv-x="1024" 
d="M867 916v-555q0 -159 7.5 -194.5t24 -49.5t38.5 -14q31 0 70 17l14 -35l-274 -113h-45v194q-118 -128 -180 -161t-131 -33q-77 0 -133.5 44.5t-78.5 114.5t-22 198v409q0 65 -14 90t-41.5 38.5t-99.5 12.5v37h321v-613q0 -128 44.5 -168t107.5 -40q43 0 97.5 27
t129.5 103v519q0 78 -28.5 105.5t-118.5 29.5v37h312zM699 1390l-295 -345h-34l105 345h224z" />
    <glyph glyph-name="ugrave" unicode="&#xf9;" horiz-adv-x="1024" 
d="M867 916v-555q0 -159 7.5 -194.5t24 -49.5t38.5 -14q31 0 70 17l14 -35l-274 -113h-45v194q-118 -128 -180 -161t-131 -33q-77 0 -133.5 44.5t-78.5 114.5t-22 198v409q0 65 -14 90t-41.5 38.5t-99.5 12.5v37h321v-613q0 -128 44.5 -168t107.5 -40q43 0 97.5 27
t129.5 103v519q0 78 -28.5 105.5t-118.5 29.5v37h312zM307 1390h223l106 -345h-35z" />
    <glyph glyph-name="ucircumflex" unicode="&#xfb;" horiz-adv-x="1024" 
d="M867 916v-555q0 -159 7.5 -194.5t24 -49.5t38.5 -14q31 0 70 17l14 -35l-274 -113h-45v194q-118 -128 -180 -161t-131 -33q-77 0 -133.5 44.5t-78.5 114.5t-22 198v409q0 65 -14 90t-41.5 38.5t-99.5 12.5v37h321v-613q0 -128 44.5 -168t107.5 -40q43 0 97.5 27
t129.5 103v519q0 78 -28.5 105.5t-118.5 29.5v37h312zM423 1385h184l190 -331h-31l-273 213l-229 -213h-30z" />
    <glyph glyph-name="udieresis" unicode="&#xfc;" horiz-adv-x="1024" 
d="M867 916v-555q0 -159 7.5 -194.5t24 -49.5t38.5 -14q31 0 70 17l14 -35l-274 -113h-45v194q-118 -128 -180 -161t-131 -33q-77 0 -133.5 44.5t-78.5 114.5t-22 198v409q0 65 -14 90t-41.5 38.5t-99.5 12.5v37h321v-613q0 -128 44.5 -168t107.5 -40q43 0 97.5 27
t129.5 103v519q0 78 -28.5 105.5t-118.5 29.5v37h312zM687 1336q45 0 76.5 -32t31.5 -77t-31.5 -76.5t-76.5 -31.5t-77 31.5t-32 76.5t32 77t77 32zM334 1336q46 0 77.5 -32t31.5 -77t-32 -76.5t-76 -31.5q-45 0 -77 31.5t-32 76.5t31.5 77t76.5 32z" />
    <glyph glyph-name="dagger" unicode="&#x2020;" horiz-adv-x="1024" 
d="M524 -421h-37q-4 436 -32 702q-21 199 -69 378q51 44 73 93t28 144q-65 -7 -132 -35q-105 -44 -153 -44q-45 0 -73 27t-28 68q0 42 29.5 70.5t73.5 28.5q25 0 46 -6q11 -3 105 -44q60 -26 132 -30q-1 41 -7 62q-7 31 -30 86q-54 128 -54 194q0 58 33 94t79 36
q42 0 75.5 -37.5t33.5 -92.5q0 -30 -8 -60q-10 -39 -45.5 -125.5t-39.5 -156.5q71 6 132 30q99 39 115 43q22 6 45 6q48 0 77.5 -28t29.5 -70q0 -40 -29.5 -68t-73.5 -28q-55 0 -165 47q-48 20 -69 25t-62 8q5 -94 27.5 -145t72.5 -92q-48 -183 -67 -363.5t-33 -716.5z" />
    <glyph glyph-name="degree" unicode="&#xb0;" horiz-adv-x="819" 
d="M405 1386q129 0 218.5 -90t89.5 -218q0 -127 -90 -217t-218 -90q-127 0 -217 90t-90 217q0 128 89.5 218t217.5 90zM405 1302q-93 0 -158 -65t-65 -158q0 -92 65 -157.5t158 -65.5q92 0 157.5 65.5t65.5 157.5q0 93 -65 158t-158 65z" />
    <glyph glyph-name="cent" unicode="&#xa2;" horiz-adv-x="1024" 
d="M900 349q-47 -188 -163 -292q-90 -81 -221 -81q-81 0 -162 35l-142 -390h-70l155 427q-81 76 -117 154q-51 110 -51 250q0 254 157 390q120 105 273 105q20 0 61 -4l140 383h72l-145 -402q101 -45 138 -87q48 -54 48 -115q0 -39 -24 -62t-70 -23q-55 0 -86 38
q-18 22 -26 82q-4 31 -17 65l-228 -631q56 -38 94 -51q28 -10 69 -10q61 0 117 25.5t85 60t83 146.5zM370 250l223 615q-28 12 -60 12q-102 0 -162 -74q-82 -100 -82 -268q0 -75 17.5 -138t63.5 -147z" />
    <glyph glyph-name="sterling" unicode="&#xa3;" horiz-adv-x="1024" 
d="M723 659h-258q1 -46 1 -68q0 -94 -13.5 -174t-48.5 -184q196 -63 224 -69q52 -12 102 -12q83 0 135 38.5t76 121.5l36 -9q-21 -161 -103.5 -244t-183.5 -83q-68 0 -123 24.5t-203 135.5q-40 -80 -86.5 -120t-99.5 -40q-50 0 -83.5 34.5t-33.5 94.5q0 67 46 111.5
t118 44.5q17 0 38 -2t47 -6q2 26 2.5 45t0.5 32q0 88 -21 329h-194v95h194q-13 149 -13 199q0 122 49 223t135.5 154.5t185.5 53.5q126 0 189.5 -68t63.5 -136q0 -32 -24.5 -57t-53.5 -25q-38 0 -63 38q-11 18 -15 77.5t-34 87.5q-31 28 -87 28q-79 0 -130.5 -62t-51.5 -218
q0 -73 12 -187q7 -75 10 -108h258v-95zM298 172q-22 14 -43 21t-42 7q-45 0 -70 -24.5t-25 -63.5q0 -36 19.5 -57t45.5 -21q33 0 64.5 31t50.5 107z" />
    <glyph glyph-name="section" unicode="&#xa7;" horiz-adv-x="1024" 
d="M377 843q-67 74 -95.5 135t-28.5 124q0 117 82 199.5t202 82.5q110 0 181.5 -67t71.5 -153q0 -39 -26 -69q-19 -21 -53 -21t-56 23t-22 54q0 15 8 53q5 23 5 43q0 41 -29 68t-80 27q-73 0 -123.5 -51t-50.5 -124q0 -64 27 -106q45 -70 151 -147q201 -145 275 -260
q52 -82 52 -172q0 -91 -53 -182t-168 -160q70 -77 96.5 -133t26.5 -121q0 -122 -82 -204t-202 -82q-108 0 -179.5 68.5t-71.5 156.5q0 37 23.5 62.5t54.5 25.5t53 -23.5t22 -63.5q0 -27 -8 -59.5t-8 -49.5q0 -29 25 -48q39 -30 95 -30q67 0 121.5 52t54.5 113q0 62 -31 111
q-48 75 -174 170q-188 140 -256 247q-51 81 -51 172q0 92 54 181.5t167 157.5zM409 812q-151 -91 -151 -222q0 -70 37 -129q52 -81 197 -191q70 -53 122 -101q153 93 153 220q0 65 -44 135.5t-181 177.5q-82 63 -133 110z" />
    <glyph glyph-name="bullet" unicode="&#x2022;" horiz-adv-x="717" 
d="M363 928q104 0 177.5 -73.5t73.5 -177.5t-73.5 -177.5t-177.5 -73.5t-177.5 73.5t-73.5 177.5t73 177.5t178 73.5z" />
    <glyph glyph-name="paragraph" unicode="&#xb6;" horiz-adv-x="928" 
d="M798 1301v-1743h-72v1743h-187v-1743h-73v1043q-191 8 -285.5 50.5t-144.5 131t-50 198.5t43 180q58 96 154.5 145.5t252.5 49.5h495v-55h-133z" />
    <glyph glyph-name="germandbls" unicode="&#xdf;" horiz-adv-x="1024" 
d="M35 0v36q60 5 85.5 21t36 44.5t10.5 123.5v741q0 249 93 353q93 103 264 103q162 0 257 -91.5t95 -233.5q0 -106 -54 -180q-40 -54 -137 -96q135 -40 204 -139t69 -260q0 -174 -91 -304.5t-244 -130.5q-87 0 -139.5 48t-52.5 114q0 42 21.5 64.5t57.5 22.5
q39 0 60.5 -21.5t21.5 -57.5q0 -16 -4 -33q-6 -24 -6 -35q0 -18 15 -32t41 -14q60 0 99 53q51 70 51 216q0 208 -73.5 330t-221.5 132v57q106 0 160.5 62.5t54.5 208.5q0 134 -52.5 194t-139.5 60q-81 0 -132 -64t-51 -255v-1037h-298z" />
    <glyph glyph-name="registered" unicode="&#xae;" horiz-adv-x="1556" 
d="M778 1387q179 0 349 -91.5t265.5 -262t95.5 -355.5q0 -184 -94 -353t-263 -262.5t-353 -93.5t-352.5 93.5t-262.5 262.5t-94 353q0 185 95.5 355.5t265.5 262t348 91.5zM778 1326q-163 0 -318 -84t-242 -239.5t-87 -324.5q0 -168 85.5 -322t239.5 -240t322 -86t322.5 86
t240 240t85.5 322q0 169 -87 324.5t-242 239.5t-319 84zM386 1114h386q145 0 221 -65.5t76 -158.5q0 -76 -51.5 -133.5t-170.5 -88.5l209 -298q38 -53 68 -73q19 -12 53 -15v-33h-184l-294 405h-76v-309q6 -33 28.5 -48t89.5 -15v-33h-367v33q48 0 68 11.5t29 33.5
q7 16 7 93v523q0 74 -3 87q-7 23 -25.5 35.5t-63.5 12.5v36zM623 697q118 0 172.5 23t83.5 64.5t29 94.5q0 81 -56.5 136t-144.5 55q-38 0 -84 -16v-357z" />
    <glyph glyph-name="copyright" unicode="&#xa9;" horiz-adv-x="1556" 
d="M778 1387q179 0 349 -91.5t265.5 -262t95.5 -355.5q0 -184 -94 -353t-263 -262.5t-353 -93.5t-352.5 93.5t-262.5 262.5t-94 353q0 185 95.5 355.5t265.5 262t348 91.5zM778 1326q-163 0 -318 -84t-242 -239.5t-87 -324.5q0 -168 85.5 -322t239.5 -240t322 -86t322.5 86
t240 240t85.5 322q0 169 -87 324.5t-242 239.5t-319 84zM1129 1134l20 -280h-39q-36 119 -114.5 177.5t-188.5 58.5q-82 0 -146 -34t-105 -91q-30 -43 -50 -114t-20 -150q0 -212 91 -312.5t240 -100.5q195 0 312 162l37 -19q-139 -203 -383 -203q-200 0 -331.5 129.5
t-131.5 314.5q0 192 140 327.5t358 135.5q46 0 76.5 -6t108.5 -32q25 -8 37 -8q16 0 27 8.5t22 36.5h40z" />
    <glyph glyph-name="trademark" unicode="&#x2122;" horiz-adv-x="2007" 
d="M51 1356h728l22 -201h-34q-10 72 -52.5 106.5t-141.5 34.5h-75v-579q0 -84 20 -106.5t86 -25.5v-36h-374v36q65 6 82.5 27.5t17.5 103.5v580h-76q-95 0 -135 -31.5t-55 -109.5h-34zM1156 1356l273 -572l265 572h279v-37q-56 -1 -74.5 -11t-27.5 -32t-9 -92v-468
q0 -85 19 -106t92 -25v-36h-398v36q59 1 79.5 12t30 32t9.5 86v492l-307 -658h-32l-308 649v-482q0 -68 8.5 -88.5t27 -31.5t57.5 -11h36v-36h-306v36q56 0 75.5 10t28.5 31t9 90v466q0 76 -8.5 96t-28.5 30.5t-76 10.5v37h286z" />
    <glyph glyph-name="acute" unicode="&#xb4;" horiz-adv-x="682" 
d="M565 1390l-295 -345h-34l105 345h224z" />
    <glyph glyph-name="dieresis" unicode="&#xa8;" horiz-adv-x="682" 
d="M518 1337q45 0 76.5 -32t31.5 -77t-31.5 -76.5t-76.5 -31.5t-77 31.5t-32 76.5t32 77t77 32zM165 1337q46 0 77.5 -32t31.5 -77t-32 -76.5t-76 -31.5q-45 0 -77 31.5t-32 76.5t31.5 77t76.5 32z" />
    <glyph glyph-name="notequal" unicode="&#x2260;" horiz-adv-x="1124" 
d="M25 818h602l210 533h80l-206 -533h388v-94h-425l-144 -370h569v-93h-605l-211 -531h-80l209 531h-387v93h423l145 370h-568v94z" />
    <glyph glyph-name="AE" unicode="&#xc6;" horiz-adv-x="1821" 
d="M1027 1282v-536h257q115 0 162 43t55 154h36v-471h-36q-12 100 -32.5 134.5t-68.5 55.5q-23 11 -116 11h-257v-449q0 -91 7 -108.5t29 -29.5t79 -12h182q109 0 168 18t114 70q73 68 120 179h38l-108 -341h-1018v37h51q83 0 122 49q24 32 24 153v286h-396l-124 -233
q-70 -132 -70 -173q0 -28 30.5 -51.5t126.5 -30.5v-37h-426v37q44 1 75.5 19t68.5 65t94 153l412 771q77 143 77 193q0 32 -27 50q-34 25 -146 31v37h1111l15 -298h-34q-13 103 -50 157q-27 39 -78 57q-29 10 -136 10h-331zM835 1282l-357 -684h357v684z" />
    <glyph glyph-name="Oslash" unicode="&#xd8;" 
d="M1147 1238l131 162l58 -44l-133 -167q104 -113 151 -229t47 -273q0 -343 -244 -555q-188 -163 -413 -163q-103 0 -216.5 37.5t-197.5 105.5l-129 -159l-59 47l132 164q-201 207 -201 528q0 294 196 494.5t472 200.5q227 0 406 -149zM1063 1135q-116 181 -327 181
q-93 0 -147 -22q-75 -30 -134 -96q-79 -88 -116 -215t-37 -286q0 -231 73 -408zM1101 1063l-685 -846q54 -82 116 -120q89 -56 198 -56q105 0 172 31.5t125.5 97.5t100.5 186t42 300q0 123 -18 228q-14 77 -51 179z" />
    <glyph glyph-name="infinity" unicode="&#x221e;" horiz-adv-x="1460" 
d="M653 667q68 156 149 216.5t221 60.5q161 0 272 -116t111 -301q0 -183 -108 -301.5t-241 -118.5q-99 0 -184 73q-56 48 -153 213q-64 -124 -140 -178.5t-184 -54.5q-144 0 -243.5 103t-99.5 266q0 165 92 266t215 101q86 0 152 -44.5t141 -184.5zM749 464
q75 -156 148 -209.5t164 -53.5q123 0 205.5 88.5t82.5 237.5q0 147 -87 243t-195 96q-69 0 -120.5 -35t-93.5 -112q-24 -45 -104 -255zM624 590q-49 110 -112 162t-155 52q-106 0 -177.5 -74.5t-71.5 -199.5q0 -133 70.5 -212.5t159.5 -79.5q95 0 168 85q47 56 118 267z" />
    <glyph glyph-name="plusminus" unicode="&#xb1;" horiz-adv-x="1124" 
d="M8 141v81h498v418h-498v82h498v497h80v-497h500v-82h-500v-418h501v-81h-1079z" />
    <glyph glyph-name="lessequal" unicode="&#x2264;" horiz-adv-x="1124" 
d="M1098 246l-1073 456v83l1073 454v-102l-950 -393l950 -396v-102zM24 -70h1076v-93h-1076v93z" />
    <glyph glyph-name="greaterequal" unicode="&#x2265;" horiz-adv-x="1124" 
d="M25 1239l1073 -456v-83l-1073 -454v102l950 393l-950 396v102zM24 -70h1076v-93h-1076v93z" />
    <glyph glyph-name="yen" unicode="&#xa5;" horiz-adv-x="1024" 
d="M597 425h426v-73h-426v-108q0 -112 11 -143q9 -22 34 -38q37 -22 85 -22h41v-41h-515v41h32q70 0 104 26q24 19 33 57q4 19 4 120v108h-424v73h424v144l-15 36h-409v73h377l-213 496q-37 87 -72.5 115t-91.5 29v38h442v-38q-72 -5 -96.5 -23t-24.5 -39q0 -16 18 -59
l214 -519l213 504q21 50 21 75q0 21 -21 41q-14 13 -64 17q-9 0 -27 3v38h346v-38q-60 0 -87 -23q-43 -35 -86 -132l-214 -485h387v-73h-419l-7 -16v-164z" />
    <glyph glyph-name="mu" unicode="&#xb5;" horiz-adv-x="1180" 
d="M196 916h164v-533q0 -145 18 -198q13 -40 48 -65t76 -25q118 0 236 134v687h165v-654q0 -100 8 -131q7 -24 24 -37.5t36 -13.5q26 0 44 22q26 31 37 102h42q-9 -121 -63 -176.5t-135 -55.5q-78 0 -120 58q-30 43 -38 132q-87 -102 -162 -146t-152 -44q-53 0 -92 21
q-28 16 -63 64q-1 -31 -1 -46q0 -79 34 -239q13 -61 13 -104q0 -48 -28 -79t-66 -31q-37 0 -62 29t-25 80q0 46 29 165q20 80 22 104q12 103 12 179q0 5 -1 75v726z" />
    <glyph glyph-name="partialdiff" unicode="&#x2202;" horiz-adv-x="1012" 
d="M929 717q12 113 12 186q0 180 -94.5 278.5t-251.5 98.5q-106 0 -176 -40t-125 -119h-46q77 158 166 229.5t215 71.5q90 0 175.5 -49t138 -158t52.5 -295q0 -354 -154 -636q-173 -315 -438 -315q-156 0 -247.5 90t-91.5 245q0 117 46.5 229.5t117.5 190.5t158 124
q113 60 230 60q82 0 148.5 -31.5t109.5 -76.5q27 -28 55 -83zM912 628q-39 111 -116.5 168t-170.5 57q-90 0 -177 -62t-151 -217.5t-64 -310.5q0 -114 55 -175.5t140 -61.5q123 0 251 130q163 166 233 472z" />
    <glyph glyph-name="summation" unicode="&#x2211;" horiz-adv-x="1460" 
d="M1356 -442h-1313v37l669 901l-669 887v37h1278l27 -337h-40q-16 138 -77.5 197t-171.5 59h-740l562 -757l-629 -847h818q70 0 153 27q57 18 94.5 66.5t62.5 152.5l40 -8z" />
    <glyph glyph-name="product" unicode="&#x220f;" horiz-adv-x="1686" 
d="M1240 1342h-795v-1591q0 -83 37 -119t125 -36h36v-38h-597v38h35q88 0 125.5 35.5t37.5 119.5v1477q0 83 -37 119t-126 36h-35v37h1594v-37h-35q-88 0 -125 -36t-37 -119v-1477q0 -83 37 -119t125 -36h35v-38h-597v38h35q88 0 125 35.5t37 119.5v1591z" />
    <glyph glyph-name="integral" unicode="&#x222b;" horiz-adv-x="561" 
d="M200 895l18 581q8 154 50 255q27 67 74 99.5t93 32.5q50 0 87.5 -33.5t37.5 -73.5q0 -47 -26.5 -75.5t-65.5 -28.5q-35 0 -76 36q-23 20 -40 20t-28.5 -14.5t-11.5 -49.5q0 -41 9 -145q37 -411 37 -663q0 -70 -16 -590q-8 -295 -90 -399q-54 -67 -134 -67q-52 0 -85 34
t-33 87q0 45 25.5 72t64.5 27q40 0 69 -32t49 -32q17 0 28 14t11 47q0 42 -9 120q-17 143 -26 338q-12 249 -12 440z" />
    <glyph glyph-name="ordfeminine" unicode="&#xaa;" horiz-adv-x="565" 
d="M340 1180q0 109 -26.5 142.5t-79.5 33.5q-48 0 -71 -21.5t-23 -67.5q0 -45 -16.5 -65.5t-41.5 -20.5q-23 0 -39.5 17t-16.5 43q0 55 56.5 99t177.5 44q92 0 141.5 -31t63 -64t13.5 -109v-218q0 -53 2 -61q3 -13 11 -20q7 -6 13 -6q14 0 58 30v-48q-73 -53 -98 -63.5
t-51 -10.5q-25 0 -44.5 20.5t-28.5 74.5q-63 -45 -117 -68t-98 -23q-53 0 -92 38t-39 86q0 44 22 77q30 46 107 93q52 31 217 99zM340 1142q-120 -40 -163.5 -88t-43.5 -96q0 -34 25.5 -60t63.5 -26q22 0 51.5 11t66.5 33v226z" />
    <glyph glyph-name="ordmasculine" unicode="&#xba;" horiz-adv-x="635" 
d="M324 1384q124 0 205.5 -84.5t81.5 -208.5t-89 -214t-211 -90q-118 0 -200 81.5t-82 206.5q0 138 82.5 223.5t212.5 85.5zM296 1341q-52 0 -89 -45t-37 -143q0 -159 69 -258q39 -57 102 -57q57 0 94.5 44.5t37.5 140.5q0 157 -71 256q-44 62 -106 62z" />
    <glyph glyph-name="Omega" unicode="&#x2126;" horiz-adv-x="1573" 
d="M645 290l30 -290h-604v334h34q20 -79 47 -101t99 -22h303v29q-158 47 -248 118t-143 191.5t-53 244.5q0 152 81 293.5t236 218t360 76.5q204 0 359 -76t236 -217.5t81 -294.5q0 -125 -53 -245t-142.5 -191t-248.5 -118v-29h303q73 0 100 22t47 101h34v-334h-605l31 290
q123 45 185 131q104 145 104 376q0 256 -115.5 386t-310.5 130q-205 0 -306 -114q-130 -146 -130 -401q0 -146 40.5 -256.5t112.5 -175.5q48 -44 136 -76z" />
    <glyph glyph-name="ae" unicode="&#xe6;" horiz-adv-x="1366" 
d="M734 567q-1 -51 -1 -74q0 -201 72 -286t184 -85q97 0 176 61q50 39 107 159l32 -22q-36 -162 -155 -270q-86 -78 -215 -78q-108 0 -185 47q-36 23 -111 113q-12 -9 -55 -43q-58 -47 -78 -58q-47 -27 -100 -43t-109 -16q-94 0 -158.5 66.5t-64.5 162.5q0 87 43.5 148
t170.5 126q156 80 276 122v92q0 108 -40 152.5t-107 44.5q-66 0 -103 -32q-38 -33 -38 -73q0 -84 -8.5 -109t-26.5 -38t-45 -13q-39 0 -60 23q-30 32 -30 72q0 52 36.5 104t115 88t183.5 36q124 0 187 -35.5t83 -87.5q48 60 101 87q71 36 168 36q144 0 234.5 -97t90.5 -280
h-570zM734 632h378q-2 126 -53.5 183.5t-131.5 57.5t-135.5 -62.5t-57.5 -178.5zM610 184q-21 45 -34 117.5t-13 141.5v89q-135 -42 -248 -128q-74 -57 -74 -146q0 -79 47.5 -129t113.5 -50q39 0 82.5 20.5t125.5 84.5z" />
    <glyph glyph-name="oslash" unicode="&#xf8;" horiz-adv-x="1024" 
d="M806 832l133 147l46 -43l-135 -152q106 -135 106 -312q0 -118 -58 -244.5t-160.5 -191t-230.5 -64.5q-83 0 -147 25.5t-139 88.5l-135 -153l-47 43l141 159q-50 62 -78 152t-28 168q0 119 60.5 240t162.5 184.5t224 63.5q82 0 148.5 -26t136.5 -85zM704 719
q-51 89 -100.5 123.5t-115.5 34.5q-98 0 -163 -80t-65 -265q0 -124 39 -262zM732 654l-403 -450q51 -92 100 -126.5t118 -34.5q99 0 161.5 80t62.5 279q0 121 -39 252z" />
    <glyph glyph-name="questiondown" unicode="&#xbf;" horiz-adv-x="909" 
d="M452 975q46 0 78.5 -32.5t32.5 -78.5t-32.5 -78.5t-78.5 -32.5t-78.5 32.5t-32.5 78.5t32.5 78.5t78.5 32.5zM441 626h39q-5 -124 -24.5 -196.5t-102 -246.5t-82.5 -289q0 -132 66 -204t170 -72q87 0 137 41t50 90q0 31 -31 84.5t-31 85.5q0 34 24 57.5t57 23.5
q41 0 76 -41.5t35 -110.5q0 -115 -97.5 -202.5t-266.5 -87.5q-170 0 -270.5 93.5t-100.5 223.5q0 83 29 152q43 98 150 221.5t137 191.5t36 186z" />
    <glyph glyph-name="exclamdown" unicode="&#xa1;" horiz-adv-x="682" 
d="M342 974q47 0 79 -32.5t32 -78.5t-32.5 -78t-78.5 -32t-78 32t-32 78t32 78.5t78 32.5zM322 587h38l89 -810q5 -53 5 -79q0 -63 -33.5 -101.5t-79.5 -38.5q-47 0 -80 38t-33 114q0 24 5 67z" />
    <glyph glyph-name="logicalnot" unicode="&#xac;" horiz-adv-x="1155" 
d="M36 878h1080v-406h-79v325h-1001v81z" />
    <glyph glyph-name="radical" unicode="&#x221a;" horiz-adv-x="1124" 
d="M1049 1869h74l-312 -1947l-496 1021l-198 -91l-34 64l301 151l405 -823z" />
    <glyph glyph-name="florin" unicode="&#x192;" horiz-adv-x="1024" 
d="M687 875h178l-17 -66h-174q-52 -269 -172 -708q-94 -341 -205 -449q-84 -83 -173 -83q-56 0 -89 30.5t-33 74.5q0 39 23.5 64t53.5 25q26 0 45.5 -18t19.5 -38q0 -22 -14 -38q-10 -12 -10 -19q0 -8 7 -14.5t18 -6.5q20 0 37 10q30 17 59 64t60 177q6 22 86 415
q7 35 123 514h-177l15 66q99 7 124.5 15.5t42.5 31.5q26 34 60 134q73 212 140 272q66 59 147 59q62 0 99.5 -33t37.5 -79q0 -35 -20 -56t-48 -21q-26 0 -44.5 17.5t-18.5 38.5q0 16 11 34.5t11 26.5q0 11 -9 19q-9 7 -26 7q-32 0 -58 -24q-35 -33 -46 -84
q-27 -121 -64 -358z" />
    <glyph glyph-name="approxequal" unicode="&#x2248;" horiz-adv-x="1124" 
d="M1052 1038h43q-3 -126 -72.5 -199.5t-169.5 -73.5q-46 0 -98 15t-275 106q-156 64 -221 64q-70 0 -118.5 -43.5t-67.5 -139.5h-43q4 89 33.5 147.5t86 92t112.5 33.5q43 0 89 -13q104 -30 291 -110q97 -42 156 -58q30 -8 67 -8q75 0 126 48t61 139zM1052 547h43
q-3 -127 -72.5 -200.5t-169.5 -73.5q-46 0 -150 31l-223 91q-156 63 -221 63q-70 0 -118.5 -43.5t-67.5 -139.5h-43q4 89 33 147.5t85.5 92.5t112.5 34q43 0 89 -13q105 -31 292 -111q98 -42 156 -57q30 -8 67 -8q75 0 126 47.5t61 139.5z" />
    <glyph glyph-name="Delta" unicode="&#x2206;" horiz-adv-x="1253" 
d="M1226 0h-1200l628 1387zM990 82l-399 967l-440 -967h839z" />
    <glyph glyph-name="guillemotleft" unicode="&#xab;" horiz-adv-x="1024" 
d="M508 -8h-57l-387 472l387 470h57l-244 -470zM960 -8h-58l-394 472l394 470h58l-243 -470z" />
    <glyph glyph-name="guillemotright" unicode="&#xbb;" horiz-adv-x="1024" 
d="M516 934h57l387 -472l-387 -470h-57l244 470zM64 934h58l394 -472l-394 -470h-58l243 470z" />
    <glyph glyph-name="ellipsis" unicode="&#x2026;" horiz-adv-x="2048" 
d="M341 194q47 0 79 -32.5t32 -78.5t-32.5 -78.5t-78.5 -32.5t-78.5 32.5t-32.5 78.5q0 47 32.5 79t78.5 32zM1024 194q46 0 78.5 -32.5t32.5 -78.5t-32.5 -78.5t-78.5 -32.5t-78.5 32.5t-32.5 78.5q0 47 32.5 79t78.5 32zM1707 194q46 0 78.5 -32.5t32.5 -78.5t-32.5 -78.5
t-78.5 -32.5t-78.5 32.5t-32.5 78.5q0 47 32 79t79 32z" />
    <glyph glyph-name="Agrave" unicode="&#xc0;" 
d="M937 454h-525l-92 -214q-34 -79 -34 -118q0 -31 29.5 -54.5t127.5 -30.5v-37h-427v37q85 15 110 39q51 48 113 195l477 1116h35l472 -1128q57 -136 103.5 -176.5t129.5 -45.5v-37h-535v37q81 4 109.5 27t28.5 56q0 44 -40 139zM909 528l-230 548l-236 -548h466zM513 1797
h223l106 -345h-35z" />
    <glyph glyph-name="Atilde" unicode="&#xc3;" 
d="M937 454h-525l-92 -214q-34 -79 -34 -118q0 -31 29.5 -54.5t127.5 -30.5v-37h-427v37q85 15 110 39q51 48 113 195l477 1116h35l472 -1128q57 -136 103.5 -176.5t129.5 -45.5v-37h-535v37q81 4 109.5 27t28.5 56q0 44 -40 139zM909 528l-230 548l-236 -548h466zM449 1465
h-32q4 137 57 198t131 61q41 0 75 -13q45 -17 127.5 -71.5t122.5 -54.5q32 0 56.5 27t38.5 112h31q1 -93 -24.5 -147.5t-72 -85t-93.5 -30.5q-79 0 -196 80q-63 43 -85 52t-43 9q-41 0 -65 -36q-11 -17 -28 -101z" />
    <glyph glyph-name="Otilde" unicode="&#xd5;" 
d="M749 1387q264 0 457.5 -200.5t193.5 -500.5q0 -309 -195 -513t-472 -204q-280 0 -470.5 199t-190.5 515q0 323 220 527q191 177 457 177zM730 1314q-182 0 -292 -135q-137 -168 -137 -492q0 -332 142 -511q109 -136 288 -136q191 0 315.5 149t124.5 470q0 348 -137 519
q-110 136 -304 136zM446 1465h-32q4 137 57 198t131 61q41 0 75 -13q45 -17 127.5 -71.5t122.5 -54.5q32 0 56.5 27t38.5 112h31q1 -93 -24.5 -147.5t-72 -85t-93.5 -30.5q-79 0 -196 80q-63 43 -85 52t-43 9q-41 0 -65 -36q-11 -17 -28 -101z" />
    <glyph glyph-name="OE" unicode="&#x152;" horiz-adv-x="1821" 
d="M1104 1282v-535h183q115 0 163 47.5t47 148.5h39v-472h-39q-9 123 -51 162.5t-159 39.5h-183v-448q0 -80 10 -104t33 -37q15 -8 77 -8h104q120 0 167.5 13t98.5 59q75 68 129 192h40l-108 -340h-485q-141 0 -171 -1q-12 0 -167 -9q-108 -6 -145 -6q-169 0 -308.5 85.5
t-221.5 250t-82 356.5q0 258 141 455q169 237 493 237q23 0 194 -7q140 -5 267 -5h473l12 -298h-32q-24 118 -43 149q-25 40 -77 62q-33 13 -143 13h-256zM912 1042q0 130 -18.5 171.5t-53.5 61.5q-50 29 -127 29q-124 0 -218.5 -73t-142 -223.5t-47.5 -339.5
q0 -155 42 -301t135.5 -229t226.5 -83q76 0 122 25.5t63.5 71.5t17.5 188v702z" />
    <glyph glyph-name="oe" unicode="&#x153;" 
d="M863 573q-2 -25 -2 -38q0 -94 33.5 -196t99.5 -152t145 -50q80 0 141.5 51t97.5 167l33 -17q-36 -193 -125.5 -279.5t-214.5 -86.5q-97 0 -165.5 47t-103.5 114q-62 -80 -141.5 -120.5t-176.5 -40.5q-176 0 -296.5 128.5t-120.5 342.5q0 229 123.5 364.5t299.5 135.5
q107 0 186 -44t126 -114q59 85 124 122t159 37q147 0 239 -99t87 -272h-548zM453 888q-36 0 -85.5 -26.5t-76.5 -90.5q-37 -83 -37 -232q0 -258 102 -406q62 -90 153 -90q89 0 147.5 74t58.5 261q0 233 -67.5 371.5t-194.5 138.5zM863 638h351q1 70 -24 134q-18 48 -61 76.5
t-90 28.5q-67 0 -118.5 -60t-57.5 -179z" />
    <glyph glyph-name="endash" unicode="&#x2013;" horiz-adv-x="1024" 
d="M1041 453h-1059v73h1059v-73z" />
    <glyph glyph-name="emdash" unicode="&#x2014;" horiz-adv-x="2048" 
d="M2066 453h-2085v74h2085v-74z" />
    <glyph glyph-name="quotedblleft" unicode="&#x201c;" horiz-adv-x="909" 
d="M326 1387v-41q-88 -46 -126 -96t-38 -109q0 -35 10 -48q9 -14 22 -14t35 7.5t40 7.5q41 0 71.5 -30.5t30.5 -74.5q0 -48 -37 -82.5t-92 -34.5q-67 0 -121 58t-54 143q0 100 66.5 186.5t192.5 127.5zM803 1384v-38q-101 -58 -133 -104t-32 -108q0 -28 11 -42t23 -14
q11 0 33 8t44 8q41 0 71.5 -29.5t30.5 -72.5q0 -49 -38.5 -85t-94.5 -36q-66 0 -119 57t-53 142q0 105 67 191.5t190 122.5z" />
    <glyph glyph-name="quotedblright" unicode="&#x201d;" horiz-adv-x="909" 
d="M115 871v42q101 57 132.5 103.5t31.5 107.5q0 28 -10 42q-11 14 -24 14q-10 0 -32 -8t-44 -8q-42 0 -72 30t-30 73q0 48 38.5 84t93.5 36q66 0 119.5 -57t53.5 -144q0 -105 -67.5 -192t-189.5 -123zM592 871v42q87 45 125.5 95.5t38.5 109.5q0 35 -10 49q-10 13 -22 13
q-13 0 -35 -8q-23 -8 -40 -8q-41 0 -71.5 31t-30.5 74q0 48 37 83t91 35q68 0 122 -58.5t54 -143.5q0 -100 -66.5 -186.5t-192.5 -127.5z" />
    <glyph glyph-name="quoteleft" unicode="&#x2018;" horiz-adv-x="682" 
d="M444 1387v-43q-102 -62 -139 -115q-27 -39 -27 -92q0 -32 12 -47q11 -15 26 -15q10 0 28 7q27 9 44 9q40 0 71 -30t31 -75q0 -51 -31 -79q-43 -38 -100 -38q-68 0 -121 57t-53 141q0 118 88 215q59 64 171 105z" />
    <glyph glyph-name="quoteright" unicode="&#x2019;" horiz-adv-x="682" 
d="M238 869v47q103 61 140 114q26 38 26 91q0 31 -11 46q-12 15 -26 15q-11 0 -29 -7q-26 -9 -43 -9q-40 0 -71 30t-31 75q0 50 31 78q42 38 100 38q67 0 120.5 -56.5t53.5 -140.5q0 -118 -89 -215q-59 -64 -171 -106z" />
    <glyph glyph-name="divide" unicode="&#xf7;" horiz-adv-x="1124" 
d="M562 1075q36 0 61.5 -25.5t25.5 -61.5t-25.5 -61.5t-62.5 -25.5q-36 0 -61.5 25.5t-25.5 61.5t25.5 61.5t62.5 25.5zM1101 640h-1078v82h1078v-82zM562 455q37 0 62.5 -26t25.5 -62t-26 -62t-62 -26t-62 26t-26 62t25.5 62t62.5 26z" />
    <glyph glyph-name="ydieresis" unicode="&#xff;" horiz-adv-x="1024" 
d="M12 916h427v-37h-21q-45 0 -67.5 -19.5t-22.5 -48.5q0 -39 33 -108l223 -462l205 506q17 41 17 81q0 18 -7 27q-8 11 -25 17.5t-60 6.5v37h298v-37q-37 -4 -57 -16t-44 -45q-9 -14 -34 -77l-373 -914q-54 -133 -141.5 -201t-168.5 -68q-59 0 -97 34t-38 78
q0 42 27.5 67.5t75.5 25.5q33 0 90 -22q40 -15 50 -15q30 0 65.5 31t71.5 120l65 159l-329 691q-15 31 -48 77q-25 35 -41 47q-23 16 -74 28v37zM725 1337q45 0 76.5 -32t31.5 -77t-31.5 -76.5t-76.5 -31.5t-77 31.5t-32 76.5t32 77t77 32zM372 1337q46 0 77.5 -32t31.5 -77
t-32 -76.5t-76 -31.5q-45 0 -77 31.5t-32 76.5t31.5 77t76.5 32z" />
    <glyph glyph-name="Ydieresis" unicode="&#x178;" 
d="M976 1356h473v-37h-26q-26 0 -76 -23t-91 -66t-101 -140l-327 -515v-340q0 -125 28 -156q38 -42 120 -42h44v-37h-576v37h48q86 0 122 52q22 32 22 146v321l-372 568q-66 100 -89.5 125t-97.5 60q-20 10 -58 10v37h580v-37h-30q-47 0 -86.5 -22t-39.5 -66q0 -36 61 -130
l283 -437l266 418q60 94 60 140q0 28 -14.5 50t-41.5 34.5t-81 12.5v37zM936 1708q45 0 76.5 -32t31.5 -77t-31.5 -76.5t-76.5 -31.5t-77 31.5t-32 76.5t32 77t77 32zM583 1708q46 0 77.5 -32t31.5 -77t-32 -76.5t-76 -31.5q-45 0 -77 31.5t-32 76.5t31.5 77t76.5 32z" />
    <glyph glyph-name="fraction" unicode="&#x2044;" horiz-adv-x="342" 
d="M683 1384l-935 -1438h-89l935 1438h89z" />
    <glyph glyph-name="fraction" unicode="&#x2215;" horiz-adv-x="342" 
d="M683 1384l-935 -1438h-89l935 1438h89z" />
    <glyph glyph-name="Euro" unicode="&#x20ac;" horiz-adv-x="1024" 
d="M847 737h-574q-3 -42 -3 -83h552l-23 -78h-527q8 -211 84 -352q89 -164 240 -164q134 0 224 69q54 41 137 156l31 -20q-86 -136 -156 -194q-115 -95 -276 -95q-230 0 -356 191q-103 156 -122 409h-101l23 78h74v16q0 30 2 67h-99l23 78h84q34 237 162 391
q147 178 376 178q171 0 340 -88v-299h-39q-26 321 -301 321q-158 0 -250 -167q-71 -130 -93 -336h591z" />
    <glyph glyph-name="guilsinglleft" unicode="&#x2039;" horiz-adv-x="682" 
d="M563 -8h-57l-387 472l387 470h57l-244 -470z" />
    <glyph glyph-name="guilsinglright" unicode="&#x203a;" horiz-adv-x="682" 
d="M115 934h58l394 -472l-394 -470h-58l243 470z" />
    <glyph glyph-name="daggerdbl" unicode="&#x2021;" horiz-adv-x="1024" 
d="M530 976q8 -66 26 -98t68 -72q-50 -73 -72 -144t-22 -178q0 -100 21 -168.5t73 -145.5q-48 -41 -66.5 -73.5t-27.5 -96.5q39 6 56.5 11t71.5 27q85 35 134 35q41 0 67 -25t26 -63q0 -40 -26 -66t-66 -26q-41 0 -127 37q-46 19 -74 26q-21 5 -62 7q8 -61 13 -80.5
t21 -55.5q50 -110 50 -164q0 -45 -29 -75t-72 -30q-42 0 -71 31t-29 77q0 23 6.5 49.5t39.5 114.5q24 65 31 133q-45 -2 -70.5 -8t-74.5 -28q-76 -34 -113 -34q-41 0 -66 24.5t-25 63.5q0 41 26.5 66.5t69.5 25.5q40 0 113 -32q49 -21 76 -27q21 -5 64 -7q-9 61 -27.5 92.5
t-68.5 70.5q46 61 66 120q31 91 31 206q0 118 -32 205q-19 54 -65 105q48 36 66.5 68.5t29.5 101.5q-41 -3 -58.5 -7.5t-86.5 -32t-118 -27.5q-38 0 -63 25t-25 63q0 37 24.5 61.5t62.5 24.5q46 0 131 -34q51 -21 76 -27q18 -5 57 -8q-2 43 -8 63q-11 40 -45 129
q-21 53 -23 60q-4 18 -4 45q0 50 29 80.5t72 30.5t70 -29t27 -86q0 -31 -5.5 -51t-36 -90.5t-36.5 -151.5q44 3 63 7.5t76 28.5q76 33 126 33q40 0 65 -24.5t25 -62.5q0 -39 -26 -64t-68 -25q-47 0 -126 33q-51 23 -71 28t-64 8z" />
    <glyph glyph-name="uni2219" unicode="&#x2219;" horiz-adv-x="512" 
d="M256 789q47 0 79 -32.5t32 -78.5t-32.5 -78.5t-78.5 -32.5t-78.5 32.5t-32.5 78.5t32.5 78.5t78.5 32.5z" />
    <glyph glyph-name="quotesinglbase" unicode="&#x201a;" horiz-adv-x="682" 
d="M203 -341v44q103 34 159.5 105.5t56.5 151.5q0 19 -9 32q-7 9 -14 9q-11 0 -48 -20q-18 -9 -38 -9q-49 0 -78 29t-29 80q0 49 37.5 84t91.5 35q66 0 117.5 -57.5t51.5 -152.5q0 -103 -71.5 -191.5t-226.5 -139.5z" />
    <glyph glyph-name="quotedblbase" unicode="&#x201e;" horiz-adv-x="909" 
d="M115 -316v42q101 57 132.5 103.5t31.5 107.5q0 28 -10 42q-11 14 -24 14q-10 0 -32 -8t-44 -8q-42 0 -72 30t-30 73q0 48 38.5 84t93.5 36q66 0 119.5 -57t53.5 -144q0 -105 -67.5 -192t-189.5 -123zM592 -316v42q87 45 125.5 95.5t38.5 109.5q0 35 -10 49q-10 13 -22 13
q-13 0 -35 -8q-23 -8 -40 -8q-41 0 -71.5 31t-30.5 74q0 48 37 83t91 35q68 0 122 -58.5t54 -143.5q0 -100 -66.5 -186.5t-192.5 -127.5z" />
    <glyph glyph-name="perthousand" unicode="&#x2030;" horiz-adv-x="2048" 
d="M1220 1387l-972 -1442h-89l972 1442h89zM353 1387q77 0 145 -45t106.5 -131t38.5 -190q0 -169 -85 -265.5t-201 -96.5q-74 0 -143.5 44t-109 128t-39.5 191q0 104 39 191.5t106.5 130.5t142.5 43zM349 1334q-30 0 -50 -16q-33 -29 -51 -87q-22 -77 -22 -214
q0 -185 47 -258q33 -50 82 -50q46 0 79 52q49 78 49 269q0 179 -48 252q-35 52 -86 52zM1029 673q72 0 140 -44.5t107.5 -130.5t39.5 -186q0 -109 -39 -193t-109.5 -129t-141.5 -45q-113 0 -200.5 97.5t-87.5 265.5q0 105 40 192t110.5 130t140.5 43zM1025 620
q-31 0 -54 -19q-35 -29 -54 -91.5t-19 -209.5q0 -180 46 -251q32 -49 80 -49q49 0 82 50q49 75 49 253q0 188 -50 266q-32 51 -80 51zM1691 673q68 0 140.5 -43.5t111 -126t38.5 -183.5q0 -121 -36 -202.5t-107.5 -127t-144.5 -45.5t-141.5 44.5t-107 127t-38.5 184.5
q0 117 38 203t111 127.5t136 41.5zM1691 620q-50 0 -80 -47q-45 -73 -45 -269q0 -183 46 -254q33 -50 83 -50q30 0 53 19q34 29 53.5 94.5t19.5 215.5q0 170 -47 240q-35 51 -83 51z" />
    <glyph glyph-name="Acircumflex" unicode="&#xc2;" 
d="M937 454h-525l-92 -214q-34 -79 -34 -118q0 -31 29.5 -54.5t127.5 -30.5v-37h-427v37q85 15 110 39q51 48 113 195l477 1116h35l472 -1128q57 -136 103.5 -176.5t129.5 -45.5v-37h-535v37q81 4 109.5 27t28.5 56q0 44 -40 139zM909 528l-230 548l-236 -548h466zM643 1793
h184l190 -331h-31l-273 213l-229 -213h-30z" />
    <glyph glyph-name="Ecircumflex" unicode="&#xca;" horiz-adv-x="1251" 
d="M428 1282v-536h298q116 0 155 35q52 46 58 162h37v-472h-37q-14 99 -28 127q-18 35 -59 55t-126 20h-298v-447q0 -90 8 -109.5t28 -31t76 -11.5h230q115 0 167 16t100 63q62 62 127 187h40l-117 -340h-1045v37h48q48 0 91 23q32 16 43.5 48t11.5 131v881q0 129 -26 159
q-36 40 -120 40h-48v37h1045l15 -297h-39q-21 107 -46.5 147t-75.5 61q-40 15 -141 15h-372zM537 1793h184l190 -331h-31l-273 213l-229 -213h-30z" />
    <glyph glyph-name="Aacute" unicode="&#xc1;" 
d="M937 454h-525l-92 -214q-34 -79 -34 -118q0 -31 29.5 -54.5t127.5 -30.5v-37h-427v37q85 15 110 39q51 48 113 195l477 1116h35l472 -1128q57 -136 103.5 -176.5t129.5 -45.5v-37h-535v37q81 4 109.5 27t28.5 56q0 44 -40 139zM909 528l-230 548l-236 -548h466zM959 1797
l-295 -345h-34l105 345h224z" />
    <glyph glyph-name="Edieresis" unicode="&#xcb;" horiz-adv-x="1251" 
d="M428 1282v-536h298q116 0 155 35q52 46 58 162h37v-472h-37q-14 99 -28 127q-18 35 -59 55t-126 20h-298v-447q0 -90 8 -109.5t28 -31t76 -11.5h230q115 0 167 16t100 63q62 62 127 187h40l-117 -340h-1045v37h48q48 0 91 23q32 16 43.5 48t11.5 131v881q0 129 -26 159
q-36 40 -120 40h-48v37h1045l15 -297h-39q-21 107 -46.5 147t-75.5 61q-40 15 -141 15h-372zM805 1708q45 0 76.5 -32t31.5 -77t-31.5 -76.5t-76.5 -31.5t-77 31.5t-32 76.5t32 77t77 32zM452 1708q46 0 77.5 -32t31.5 -77t-32 -76.5t-76 -31.5q-45 0 -77 31.5t-32 76.5
t31.5 77t76.5 32z" />
    <glyph glyph-name="Egrave" unicode="&#xc8;" horiz-adv-x="1251" 
d="M428 1282v-536h298q116 0 155 35q52 46 58 162h37v-472h-37q-14 99 -28 127q-18 35 -59 55t-126 20h-298v-447q0 -90 8 -109.5t28 -31t76 -11.5h230q115 0 167 16t100 63q62 62 127 187h40l-117 -340h-1045v37h48q48 0 91 23q32 16 43.5 48t11.5 131v881q0 129 -26 159
q-36 40 -120 40h-48v37h1045l15 -297h-39q-21 107 -46.5 147t-75.5 61q-40 15 -141 15h-372zM406 1797h223l106 -345h-35z" />
    <glyph glyph-name="Iacute" unicode="&#xcd;" horiz-adv-x="682" 
d="M632 37v-37h-581v37h48q84 0 122 49q24 32 24 154v876q0 103 -13 136q-10 25 -41 43q-44 24 -92 24h-48v37h581v-37h-49q-83 0 -121 -49q-25 -32 -25 -154v-876q0 -103 13 -136q10 -25 42 -43q43 -24 91 -24h49zM565 1797l-295 -345h-34l105 345h224z" />
    <glyph glyph-name="Icircumflex" unicode="&#xce;" horiz-adv-x="682" 
d="M632 37v-37h-581v37h48q84 0 122 49q24 32 24 154v876q0 103 -13 136q-10 25 -41 43q-44 24 -92 24h-48v37h581v-37h-49q-83 0 -121 -49q-25 -32 -25 -154v-876q0 -103 13 -136q10 -25 42 -43q43 -24 91 -24h49zM249 1793h184l190 -331h-31l-273 213l-229 -213h-30z" />
    <glyph glyph-name="Idieresis" unicode="&#xcf;" horiz-adv-x="682" 
d="M632 37v-37h-581v37h48q84 0 122 49q24 32 24 154v876q0 103 -13 136q-10 25 -41 43q-44 24 -92 24h-48v37h581v-37h-49q-83 0 -121 -49q-25 -32 -25 -154v-876q0 -103 13 -136q10 -25 42 -43q43 -24 91 -24h49zM517 1708q45 0 76.5 -32t31.5 -77t-31.5 -76.5
t-76.5 -31.5t-77 31.5t-32 76.5t32 77t77 32zM164 1708q46 0 77.5 -32t31.5 -77t-32 -76.5t-76 -31.5q-45 0 -77 31.5t-32 76.5t31.5 77t76.5 32z" />
    <glyph glyph-name="Igrave" unicode="&#xcc;" horiz-adv-x="682" 
d="M632 37v-37h-581v37h48q84 0 122 49q24 32 24 154v876q0 103 -13 136q-10 25 -41 43q-44 24 -92 24h-48v37h581v-37h-49q-83 0 -121 -49q-25 -32 -25 -154v-876q0 -103 13 -136q10 -25 42 -43q43 -24 91 -24h49zM119 1797h223l106 -345h-35z" />
    <glyph glyph-name="Oacute" unicode="&#xd3;" 
d="M749 1387q264 0 457.5 -200.5t193.5 -500.5q0 -309 -195 -513t-472 -204q-280 0 -470.5 199t-190.5 515q0 323 220 527q191 177 457 177zM730 1314q-182 0 -292 -135q-137 -168 -137 -492q0 -332 142 -511q109 -136 288 -136q191 0 315.5 149t124.5 470q0 348 -137 519
q-110 136 -304 136zM957 1797l-295 -345h-34l105 345h224z" />
    <glyph glyph-name="Ocircumflex" unicode="&#xd4;" 
d="M749 1387q264 0 457.5 -200.5t193.5 -500.5q0 -309 -195 -513t-472 -204q-280 0 -470.5 199t-190.5 515q0 323 220 527q191 177 457 177zM730 1314q-182 0 -292 -135q-137 -168 -137 -492q0 -332 142 -511q109 -136 288 -136q191 0 315.5 149t124.5 470q0 348 -137 519
q-110 136 -304 136zM641 1793h184l190 -331h-31l-273 213l-229 -213h-30z" />
    <glyph glyph-name="Ograve" unicode="&#xd2;" 
d="M749 1387q264 0 457.5 -200.5t193.5 -500.5q0 -309 -195 -513t-472 -204q-280 0 -470.5 199t-190.5 515q0 323 220 527q191 177 457 177zM730 1314q-182 0 -292 -135q-137 -168 -137 -492q0 -332 142 -511q109 -136 288 -136q191 0 315.5 149t124.5 470q0 348 -137 519
q-110 136 -304 136zM511 1797h223l106 -345h-35z" />
    <glyph glyph-name="Uacute" unicode="&#xda;" 
d="M977 1319v37h480v-37h-51q-80 0 -123 -67q-21 -31 -21 -144v-550q0 -204 -40.5 -316.5t-159 -193t-322.5 -80.5q-222 0 -337 77t-163 207q-32 89 -32 334v530q0 125 -34.5 164t-111.5 39h-51v37h586v-37h-52q-84 0 -120 -53q-25 -36 -25 -150v-591q0 -79 14.5 -181
t52.5 -159t109.5 -94t175.5 -37q133 0 238 58t143.5 148.5t38.5 306.5v549q0 127 -28 159q-39 44 -116 44h-51zM960 1797l-295 -345h-34l105 345h224z" />
    <glyph glyph-name="Ucircumflex" unicode="&#xdb;" 
d="M977 1319v37h480v-37h-51q-80 0 -123 -67q-21 -31 -21 -144v-550q0 -204 -40.5 -316.5t-159 -193t-322.5 -80.5q-222 0 -337 77t-163 207q-32 89 -32 334v530q0 125 -34.5 164t-111.5 39h-51v37h586v-37h-52q-84 0 -120 -53q-25 -36 -25 -150v-591q0 -79 14.5 -181
t52.5 -159t109.5 -94t175.5 -37q133 0 238 58t143.5 148.5t38.5 306.5v549q0 127 -28 159q-39 44 -116 44h-51zM691 1793h184l190 -331h-31l-273 213l-229 -213h-30z" />
    <glyph glyph-name="Ugrave" unicode="&#xd9;" 
d="M977 1319v37h480v-37h-51q-80 0 -123 -67q-21 -31 -21 -144v-550q0 -204 -40.5 -316.5t-159 -193t-322.5 -80.5q-222 0 -337 77t-163 207q-32 89 -32 334v530q0 125 -34.5 164t-111.5 39h-51v37h586v-37h-52q-84 0 -120 -53q-25 -36 -25 -150v-591q0 -79 14.5 -181
t52.5 -159t109.5 -94t175.5 -37q133 0 238 58t143.5 148.5t38.5 306.5v549q0 127 -28 159q-39 44 -116 44h-51zM562 1797h223l106 -345h-35z" />
    <glyph glyph-name="dotlessi" unicode="&#x131;" horiz-adv-x="569" 
d="M379 943v-736q0 -86 13 -114.5t37.5 -42.5t89.5 -14v-36h-445v36q67 0 90 13t36.5 43t13.5 115v353q0 149 -9 193q-7 32 -22 44.5t-41 12.5q-28 0 -68 -15l-14 36l276 112h43z" />
    <glyph glyph-name="circumflex" unicode="&#x2c6;" horiz-adv-x="682" 
d="M249 1385h184l190 -331h-31l-273 213l-229 -213h-30z" />
    <glyph glyph-name="tilde" unicode="&#x2dc;" horiz-adv-x="682" 
d="M54 1097h-32q4 137 57 198t131 61q41 0 75 -13q45 -17 127.5 -71.5t122.5 -54.5q32 0 56.5 27t38.5 112h31q1 -93 -24.5 -147.5t-72 -85t-93.5 -30.5q-79 0 -196 80q-63 43 -85 52t-43 9q-41 0 -65 -36q-11 -17 -28 -101z" />
    <glyph glyph-name="uni02C9" unicode="&#x2c9;" horiz-adv-x="682" 
d="M23 1353h638v-128h-638v128z" />
    <glyph glyph-name="breve" unicode="&#x2d8;" horiz-adv-x="682" 
d="M55 1358h31q33 -61 76 -86q72 -43 181 -43t180 42q51 29 71 87h33q-9 -124 -91.5 -202t-194.5 -78q-111 0 -193 77.5t-93 202.5z" />
    <glyph glyph-name="dotaccent" unicode="&#x2d9;" horiz-adv-x="682" 
d="M342 1337q45 0 77 -32t32 -77t-32 -77t-77 -32t-77 32t-32 77t31.5 77t77.5 32z" />
    <glyph glyph-name="ring" unicode="&#x2da;" horiz-adv-x="682" 
d="M341 1424q80 0 136 -56t56 -135q0 -80 -56 -136t-136 -56q-79 0 -135 56t-56 136q0 79 55.5 135t135.5 56zM341 1355q-51 0 -86.5 -35.5t-35.5 -86.5q0 -50 35.5 -86t86.5 -36t86.5 36t35.5 86q0 51 -35.5 86.5t-86.5 35.5z" />
    <glyph glyph-name="cedilla" unicode="&#xb8;" horiz-adv-x="682" 
d="M361 16h60l-50 -79q63 -16 94 -54t31 -92q0 -72 -60 -126.5t-155 -54.5q-37 0 -94 7v43q28 -4 48 -4q51 0 86 33.5t35 76.5q0 30 -23 52t-57 22q-10 0 -26 -2z" />
    <glyph glyph-name="hungarumlaut" unicode="&#x2dd;" horiz-adv-x="682" 
d="M144 1390h187l-220 -346h-33zM457 1390h187l-218 -346h-34z" />
    <glyph glyph-name="ogonek" unicode="&#x2db;" horiz-adv-x="682" 
d="M327 60q-28 -30 -57.5 -62t-53.5 -66t-40 -70.5t-17 -75.5q-2 -52 26.5 -87t78.5 -35q19 0 43 7t44 19l15 -29q-40 -40 -82 -65t-96 -25q-37 0 -67 12.5t-50.5 34.5t-31 50.5t-9.5 60.5q2 43 21 84t49 77q18 21 35.5 38.5t38.5 36.5t49 41t69 54h35z" />
    <glyph glyph-name="caron" unicode="&#x2c7;" horiz-adv-x="682" 
d="M434 1054h-184l-190 331h31l273 -212l229 212h30z" />
    <glyph glyph-name="Lslash" unicode="&#x141;" horiz-adv-x="1251" 
d="M1086 0h-1049v37h42q47 0 92 23q33 17 45.5 49.5t12.5 133.5v299l-207 -166v92l207 174v470q0 114 -11 140.5t-45.5 46.5t-93.5 20h-42v37h602v-37h-60q-71 0 -104.5 -22.5t-46.5 -67.5q-7 -23 -7 -117v-311l227 187v-95l-227 -192v-453q0 -89 11 -112t41 -37
q21 -11 114 -11h152q145 0 193 15q69 20 130.5 85.5t104.5 187.5l32 -8z" />
    <glyph glyph-name="lslash" unicode="&#x142;" horiz-adv-x="569" 
d="M380 1422v-608l171 141v-85l-171 -142v-522q0 -96 10.5 -119t34.5 -34q37 -19 101 -17v-36h-462v36l25 -1q52 0 83 18q22 13 33 39t11 125v379l-186 -153v84l186 154v355q0 149 -9 186q-5 26 -24 42t-42 16q-17 0 -67 -17l-10 36l284 123h32z" />
    <glyph glyph-name="Scaron" unicode="&#x160;" horiz-adv-x="1139" 
d="M939 1387v-469h-37q-18 135 -64.5 215t-132.5 127t-178 47q-104 0 -172 -63.5t-68 -144.5q0 -62 43 -113q62 -75 295 -200q190 -102 259.5 -156.5t107 -128.5t37.5 -155q0 -154 -119.5 -265.5t-307.5 -111.5q-59 0 -111 9q-31 5 -128.5 36.5t-123.5 31.5q-25 0 -39.5 -15
t-21.5 -62h-37v465h37q26 -146 70 -218.5t134.5 -120.5t198.5 -48q125 0 197.5 66t72.5 156q0 50 -27.5 101t-85.5 95q-39 30 -213 127.5t-247.5 155.5t-111.5 128t-38 154q0 146 112 251.5t285 105.5q108 0 229 -53q56 -25 79 -25q26 0 42.5 15.5t26.5 62.5h37zM657 1462
h-184l-190 331h31l273 -212l229 212h30z" />
    <glyph glyph-name="scaron" unicode="&#x161;" horiz-adv-x="797" 
d="M656 943v-312h-33q-38 147 -97.5 200t-151.5 53q-70 0 -113 -37t-43 -82q0 -56 32 -96q31 -41 126 -87l146 -71q203 -99 203 -261q0 -125 -94.5 -201.5t-211.5 -76.5q-84 0 -192 30q-33 10 -54 10q-23 0 -36 -26h-33v327h33q28 -140 107 -211t177 -71q69 0 112.5 40.5
t43.5 97.5q0 69 -48.5 116t-193.5 119t-190 130q-45 57 -45 144q0 113 77.5 189t200.5 76q54 0 131 -23q51 -15 68 -15q16 0 25 7t21 31h33zM491 1054h-184l-190 331h31l273 -212l229 212h30z" />
    <glyph glyph-name="Zcaron" unicode="&#x17d;" horiz-adv-x="1251" 
d="M1178 1356l-891 -1274h556q128 0 196.5 56t121.5 227l33 -6l-64 -359h-1104v37l870 1238h-434q-108 0 -156.5 -23.5t-74 -68t-46.5 -166.5h-38l28 339h1003zM734 1462h-184l-190 331h31l273 -212l229 212h30z" />
    <glyph glyph-name="zcaron" unicode="&#x17e;" horiz-adv-x="909" 
d="M860 281l-11 -281h-808v36l608 810h-300q-97 0 -127 -12.5t-49 -47.5q-27 -50 -31 -124h-40l6 254h768v-37l-614 -812h334q105 0 142.5 17.5t60.5 61.5q16 32 27 135h34zM563 1054h-184l-190 331h31l273 -212l229 212h30z" />
    <glyph glyph-name="brokenbar" unicode="&#xa6;" horiz-adv-x="410" 
d="M244 1422v-742h-83v742h83zM244 300v-742h-83v742h83z" />
    <glyph glyph-name="Eth" unicode="&#xd0;" 
d="M35 0v37h51q86 0 123 56q21 32 21 147v438h-195v74h195v364q0 127 -28 159q-39 44 -116 44h-51v37h552q315 0 466 -71.5t249 -229t98 -368.5q0 -287 -183.5 -487t-576.5 -200h-605zM423 100q127 -28 213 -28q231 0 384 163t153 442q0 281 -153 443t-392 162
q-90 0 -205 -29v-501h393v-74h-393v-578z" />
    <glyph glyph-name="eth" unicode="&#xf0;" horiz-adv-x="1024" 
d="M469 1169l-247 -135l-30 55l233 132q-66 67 -99.5 94.5t-88.5 63.5l27 43q120 -60 247 -155l249 139l34 -55l-229 -130q190 -165 287 -363.5t97 -383.5q0 -139 -57.5 -255.5t-161.5 -181.5t-231 -65q-179 0 -305 133.5t-126 335.5q0 211 138 365q118 129 282 129
q49 0 88 -13q31 -10 81 -46q-80 165 -188 293zM479 874q-96 0 -161 -81t-65 -275q0 -136 40.5 -250.5t109.5 -170t144 -55.5q91 0 154 79t63 256q0 225 -79 361t-206 136z" />
    <glyph glyph-name="Yacute" unicode="&#xdd;" 
d="M976 1356h473v-37h-26q-26 0 -76 -23t-91 -66t-101 -140l-327 -515v-340q0 -125 28 -156q38 -42 120 -42h44v-37h-576v37h48q86 0 122 52q22 32 22 146v321l-372 568q-66 100 -89.5 125t-97.5 60q-20 10 -58 10v37h580v-37h-30q-47 0 -86.5 -22t-39.5 -66q0 -36 61 -130
l283 -437l266 418q60 94 60 140q0 28 -14.5 50t-41.5 34.5t-81 12.5v37zM996 1797l-295 -345h-34l105 345h224z" />
    <glyph glyph-name="yacute" unicode="&#xfd;" horiz-adv-x="1024" 
d="M12 916h427v-37h-21q-45 0 -67.5 -19.5t-22.5 -48.5q0 -39 33 -108l223 -462l205 506q17 41 17 81q0 18 -7 27q-8 11 -25 17.5t-60 6.5v37h298v-37q-37 -4 -57 -16t-44 -45q-9 -14 -34 -77l-373 -914q-54 -133 -141.5 -201t-168.5 -68q-59 0 -97 34t-38 78
q0 42 27.5 67.5t75.5 25.5q33 0 90 -22q40 -15 50 -15q30 0 65.5 31t71.5 120l65 159l-329 691q-15 31 -48 77q-25 35 -41 47q-23 16 -74 28v37zM732 1390l-295 -345h-34l105 345h224z" />
    <glyph glyph-name="Thorn" unicode="&#xde;" horiz-adv-x="1139" 
d="M420 1048h74q150 0 224 -12q108 -19 179.5 -64.5t117 -121.5t45.5 -170q0 -77 -29 -142.5t-78 -112.5t-111 -75t-161 -41q-36 -5 -191 -5h-70v-61q0 -129 34.5 -167.5t118.5 -38.5h41v-37h-578v37h38q93 0 133 56q20 28 20 147v868q0 114 -11 140.5t-48.5 48.5t-91.5 22
h-40v37h578v-37h-40q-44 0 -94 -23q-30 -14 -45 -49t-15 -134v-65zM420 970v-595h44q122 0 190 28q90 38 133 109t43 165q0 75 -31 138t-81.5 98.5t-112.5 48.5q-40 8 -137 8h-48z" />
    <glyph glyph-name="thorn" unicode="&#xfe;" horiz-adv-x="1024" 
d="M-2 1308l282 114h38v-697q71 121 142.5 169.5t150.5 48.5q138 0 230 -108q113 -132 113 -344q0 -237 -136 -392q-112 -127 -282 -127q-74 0 -128 21q-40 15 -90 60v-279q0 -93 11.5 -118t40 -40t103.5 -15v-38h-480v38l25 -1q55 -1 94 21q19 11 29.5 35.5t10.5 123.5
v1349q0 89 -8 113.5t-25.5 36.5t-47.5 12q-24 0 -61 -15zM318 666v-342q0 -111 9 -146q14 -58 68.5 -102t137.5 -44q100 0 162 78q81 102 81 287q0 210 -92 323q-64 78 -152 78q-48 0 -95 -24q-36 -18 -119 -108z" />
    <glyph glyph-name="minus" unicode="&#x2212;" horiz-adv-x="1155" 
d="M1115 640h-1078v82h1078v-82z" />
    <glyph glyph-name="multiply" unicode="&#xd7;" horiz-adv-x="1155" 
d="M165 328l353 353l-352 352l58 58l352 -352l352 352l56 -57l-352 -352l354 -354l-57 -58l-354 354l-353 -353z" />
    <glyph glyph-name="uni00B9" unicode="&#xb9;" horiz-adv-x="614" 
d="M136 1297l205 87h35v-592q0 -60 6 -74q5 -9 16 -14q16 -8 79 -8v-32h-325v32q64 0 80 7q12 5 17 16t5 73v374q0 71 -5 94q-3 16 -10.5 22.5t-19.5 6.5q-20 0 -67 -20z" />
    <glyph glyph-name="uni00B2" unicode="&#xb2;" horiz-adv-x="614" 
d="M575 816l-61 -152h-494v29q247 192 328 313q50 74 50 143q0 61 -41.5 102.5t-104.5 41.5q-57 0 -100 -29.5t-65 -88.5h-45q14 98 77.5 153.5t164.5 55.5q106 0 172.5 -58t66.5 -130q0 -66 -48 -141q-75 -117 -295 -295h186q87 0 115.5 12t48.5 44h45z" />
    <glyph glyph-name="uni00B3" unicode="&#xb3;" horiz-adv-x="614" 
d="M55 1229q36 74 81 108q64 47 149 47q92 0 145 -46t53 -101q0 -68 -105 -155q72 -26 108.5 -74.5t36.5 -107.5q0 -103 -85.5 -177t-246.5 -74q-84 0 -121 24q-26 17 -26 39q0 17 16.5 31t42.5 14q28 0 81 -24t91 -24q56 0 96 39.5t40 92.5q0 45 -26.5 86t-68.5 57
q-60 23 -107 23h-30v28q77 0 129.5 47t52.5 108q0 49 -33 80t-88 31q-85 0 -147 -88z" />
    <glyph glyph-name="franc" unicode="&#x20a3;" horiz-adv-x="1024" 
d="M419 392h274v-75h-274v-77q0 -103 13 -136q10 -25 42 -43q44 -24 92 -24h49v-37h-582v37h48q84 0 122 49q24 32 24 154v77h-194v75h194v724q0 133 -30 162q-42 41 -116 41h-48v37h903l12 -298h-34q-27 95 -61.5 139.5t-85 64.5t-155.5 20h-193v-533h177q85 0 124 37.5
t53 148.5h36v-459h-36q-1 79 -20.5 116t-54.5 55.5t-102 18.5h-177v-274z" />
    <glyph glyph-name="Gbreve" unicode="&#x11e;" 
d="M1257 1387l35 -428h-35q-53 160 -137 241q-121 117 -311 117q-259 0 -394 -205q-113 -173 -113 -412q0 -194 75 -354t196.5 -234.5t249.5 -74.5q75 0 145 19t135 56v392q0 102 -15.5 133.5t-48 48t-114.5 16.5v38h525v-38h-25q-78 0 -107 -52q-20 -37 -20 -146v-415
q-115 -62 -227 -91t-249 -29q-393 0 -597 252q-153 189 -153 436q0 179 86 343q102 195 280 300q149 87 352 87q74 0 134.5 -12t171.5 -53q56 -21 75 -21t32.5 17.5t16.5 68.5h37zM523 1756h31q33 -61 76 -86q72 -43 181 -43t180 42q51 29 71 87h33q-9 -124 -91.5 -202
t-194.5 -78q-111 0 -193 77.5t-93 202.5z" />
    <glyph glyph-name="gbreve" unicode="&#x11f;" horiz-adv-x="1024" 
d="M309 334q-84 41 -129 114.5t-45 162.5q0 136 102.5 234t262.5 98q131 0 227 -64h194q43 0 50 -2.5t10 -8.5q6 -9 6 -32q0 -26 -5 -36q-3 -5 -10.5 -8t-50.5 -3h-119q56 -72 56 -184q0 -128 -98 -219t-263 -91q-68 0 -139 20q-44 -38 -59.5 -66.5t-15.5 -48.5
q0 -17 16.5 -33t64.5 -23q28 -4 140 -7q206 -5 267 -14q93 -13 148.5 -69t55.5 -138q0 -113 -106 -212q-156 -146 -407 -146q-193 0 -326 87q-75 50 -75 104q0 24 11 48q17 37 70 103q7 9 102 108q-52 31 -73.5 55.5t-21.5 55.5q0 35 28.5 82t131.5 133zM483 895
q-74 0 -124 -59t-50 -181q0 -158 68 -245q52 -66 132 -66q76 0 125 57t49 179q0 159 -69 249q-51 66 -131 66zM299 0q-47 -51 -71 -95t-24 -81q0 -48 58 -84q100 -62 289 -62q180 0 265.5 63.5t85.5 135.5q0 52 -51 74q-52 22 -206 26q-225 6 -346 23zM238 1358h31
q33 -61 76 -86q72 -43 181 -43t180 42q51 29 71 87h33q-9 -124 -91.5 -202t-194.5 -78q-111 0 -193 77.5t-93 202.5z" />
    <glyph glyph-name="Idotaccent" unicode="&#x130;" horiz-adv-x="682" 
d="M632 37v-37h-581v37h48q84 0 122 49q24 32 24 154v876q0 103 -13 136q-10 25 -41 43q-44 24 -92 24h-48v37h581v-37h-49q-83 0 -121 -49q-25 -32 -25 -154v-876q0 -103 13 -136q10 -25 42 -43q43 -24 91 -24h49zM341 1709q45 0 77 -32t32 -77t-32 -77t-77 -32t-77 32
t-32 77t31.5 77t77.5 32z" />
    <glyph glyph-name="Scedilla" unicode="&#x15e;" horiz-adv-x="1139" 
d="M939 1387v-469h-37q-18 135 -64.5 215t-132.5 127t-178 47q-104 0 -172 -63.5t-68 -144.5q0 -62 43 -113q62 -75 295 -200q190 -102 259.5 -156.5t107 -128.5t37.5 -155q0 -154 -119.5 -265.5t-307.5 -111.5q-59 0 -111 9q-31 5 -128.5 36.5t-123.5 31.5q-25 0 -39.5 -15
t-21.5 -62h-37v465h37q26 -146 70 -218.5t134.5 -120.5t198.5 -48q125 0 197.5 66t72.5 156q0 50 -27.5 101t-85.5 95q-39 30 -213 127.5t-247.5 155.5t-111.5 128t-38 154q0 146 112 251.5t285 105.5q108 0 229 -53q56 -25 79 -25q26 0 42.5 15.5t26.5 62.5h37zM556 16h60
l-50 -79q63 -16 94 -54t31 -92q0 -72 -60 -126.5t-155 -54.5q-37 0 -94 7v43q28 -4 48 -4q51 0 86 33.5t35 76.5q0 30 -23 52t-57 22q-10 0 -26 -2z" />
    <glyph glyph-name="scedilla" unicode="&#x15f;" horiz-adv-x="797" 
d="M656 943v-312h-33q-38 147 -97.5 200t-151.5 53q-70 0 -113 -37t-43 -82q0 -56 32 -96q31 -41 126 -87l146 -71q203 -99 203 -261q0 -125 -94.5 -201.5t-211.5 -76.5q-84 0 -192 30q-33 10 -54 10q-23 0 -36 -26h-33v327h33q28 -140 107 -211t177 -71q69 0 112.5 40.5
t43.5 97.5q0 69 -48.5 116t-193.5 119t-190 130q-45 57 -45 144q0 113 77.5 189t200.5 76q54 0 131 -23q51 -15 68 -15q16 0 25 7t21 31h33zM402 16h60l-50 -79q63 -16 94 -54t31 -92q0 -72 -60 -126.5t-155 -54.5q-37 0 -94 7v43q28 -4 48 -4q51 0 86 33.5t35 76.5
q0 30 -23 52t-57 22q-10 0 -26 -2z" />
    <glyph glyph-name="Cacute" unicode="&#x106;" horiz-adv-x="1366" 
d="M1233 1387l31 -461h-31q-62 207 -177 298t-276 91q-135 0 -244 -68.5t-171.5 -218.5t-62.5 -373q0 -184 59 -319t177.5 -207t270.5 -72q132 0 233 56.5t222 224.5l31 -20q-102 -181 -238 -265t-323 -84q-337 0 -522 250q-138 186 -138 438q0 203 91 373t250.5 263.5
t348.5 93.5q147 0 290 -72q42 -22 60 -22q27 0 47 19q26 27 37 75h35zM977 1797l-295 -345h-34l105 345h224z" />
    <glyph glyph-name="cacute" unicode="&#x107;" horiz-adv-x="909" 
d="M842 348q-37 -181 -145 -278.5t-239 -97.5q-156 0 -272 131t-116 354q0 216 128.5 351t308.5 135q135 0 222 -71.5t87 -148.5q0 -38 -24.5 -61.5t-68.5 -23.5q-59 0 -89 38q-17 21 -22.5 80t-40.5 90q-35 30 -97 30q-100 0 -161 -74q-81 -98 -81 -259q0 -164 80.5 -289.5
t217.5 -125.5q98 0 176 67q55 46 107 167zM712 1390l-295 -345h-34l105 345h224z" />
    <glyph glyph-name="Ccaron" unicode="&#x10c;" horiz-adv-x="1366" 
d="M1233 1387l31 -461h-31q-62 207 -177 298t-276 91q-135 0 -244 -68.5t-171.5 -218.5t-62.5 -373q0 -184 59 -319t177.5 -207t270.5 -72q132 0 233 56.5t222 224.5l31 -20q-102 -181 -238 -265t-323 -84q-337 0 -522 250q-138 186 -138 438q0 203 91 373t250.5 263.5
t348.5 93.5q147 0 290 -72q42 -22 60 -22q27 0 47 19q26 27 37 75h35zM850 1462h-184l-190 331h31l273 -212l229 212h30z" />
    <glyph glyph-name="ccaron" unicode="&#x10d;" horiz-adv-x="909" 
d="M842 348q-37 -181 -145 -278.5t-239 -97.5q-156 0 -272 131t-116 354q0 216 128.5 351t308.5 135q135 0 222 -71.5t87 -148.5q0 -38 -24.5 -61.5t-68.5 -23.5q-59 0 -89 38q-17 21 -22.5 80t-40.5 90q-35 30 -97 30q-100 0 -161 -74q-81 -98 -81 -259q0 -164 80.5 -289.5
t217.5 -125.5q98 0 176 67q55 46 107 167zM585 1054h-184l-190 331h31l273 -212l229 212h30z" />
    <glyph glyph-name="dcroat" unicode="&#x111;" horiz-adv-x="1024" 
d="M681 1068h-291v82h290q-4 96 -20.5 118.5t-49.5 22.5q-26 0 -69 -16l-13 35l273 112h45v-272h153v-82h-153v-705q0 -161 7.5 -196.5t24 -49.5t38.5 -14q27 0 72 17l11 -35l-272 -113h-46v131q-67 -70 -131 -100.5t-138 -30.5q-150 0 -262 125.5t-112 322.5t124 360.5
t319 163.5q121 0 200 -77v201zM681 173v472q-6 68 -36 124t-79.5 84.5t-96.5 28.5q-88 0 -157 -79q-91 -104 -91 -304q0 -202 88 -309.5t196 -107.5q91 0 176 91z" />
    <glyph glyph-name="macron" unicode="&#xaf;" horiz-adv-x="1024" 
d="M1042 1462h-1059v84h1059v-84z" />
    <glyph glyph-name="periodcentered" unicode="&#xb7;" horiz-adv-x="682" 
d="M341 808q44 0 74.5 -30.5t30.5 -74.5q0 -43 -31 -74t-74 -31t-74 31t-31 74q0 44 30.5 74.5t74.5 30.5z" />
    <glyph glyph-name="Abreve" unicode="&#x102;" 
d="M937 454h-525l-92 -214q-34 -79 -34 -118q0 -31 29.5 -54.5t127.5 -30.5v-37h-427v37q85 15 110 39q51 48 113 195l477 1116h35l472 -1128q57 -136 103.5 -176.5t129.5 -45.5v-37h-535v37q81 4 109.5 27t28.5 56q0 44 -40 139zM909 528l-230 548l-236 -548h466zM450 1759
h31q33 -61 76 -86q72 -43 181 -43t180 42q51 29 71 87h33q-9 -124 -91.5 -202t-194.5 -78q-111 0 -193 77.5t-93 202.5z" />
    <glyph glyph-name="abreve" unicode="&#x103;" horiz-adv-x="909" 
d="M583 132q-141 -109 -177 -126q-54 -25 -115 -25q-95 0 -156.5 65t-61.5 171q0 67 30 116q41 68 142.5 128t337.5 146v36q0 137 -43.5 188t-126.5 51q-63 0 -100 -34q-38 -34 -38 -78l2 -58q0 -46 -23.5 -71t-61.5 -25q-37 0 -60.5 26t-23.5 71q0 86 88 158t247 72
q122 0 200 -41q59 -31 87 -97q18 -43 18 -176v-311q0 -131 5 -160.5t16.5 -39.5t26.5 -10q16 0 28 7q21 13 81 73v-56q-112 -150 -214 -150q-49 0 -78 34t-30 116zM583 197v349q-151 -60 -195 -85q-79 -44 -113 -92t-34 -105q0 -72 43 -119.5t99 -47.5q76 0 200 100z
M167 1358h31q33 -61 76 -86q72 -43 181 -43t180 42q51 29 71 87h33q-9 -124 -91.5 -202t-194.5 -78q-111 0 -193 77.5t-93 202.5z" />
    <glyph glyph-name="Aogonek" unicode="&#x104;" 
d="M937 454h-525l-92 -214q-34 -79 -34 -118q0 -31 29.5 -54.5t127.5 -30.5v-37h-427v37q85 15 110 39q51 48 113 195l477 1116h35l472 -1128q57 -136 103.5 -176.5t129.5 -45.5v-37h-535v37q81 4 109.5 27t28.5 56q0 44 -40 139zM909 528l-230 548l-236 -548h466zM1281 60
q-28 -30 -57.5 -62t-53.5 -66t-40 -70.5t-17 -75.5q-2 -52 26.5 -87t78.5 -35q19 0 43 7t44 19l15 -29q-40 -40 -82 -65t-96 -25q-37 0 -67 12.5t-50.5 34.5t-31 50.5t-9.5 60.5q2 43 21 84t49 77q18 21 35.5 38.5t38.5 36.5t49 41t69 54h35z" />
    <glyph glyph-name="aogonek" unicode="&#x105;" horiz-adv-x="909" 
d="M583 132q-141 -109 -177 -126q-54 -25 -115 -25q-95 0 -156.5 65t-61.5 171q0 67 30 116q41 68 142.5 128t337.5 146v36q0 137 -43.5 188t-126.5 51q-63 0 -100 -34q-38 -34 -38 -78l2 -58q0 -46 -23.5 -71t-61.5 -25q-37 0 -60.5 26t-23.5 71q0 86 88 158t247 72
q122 0 200 -41q59 -31 87 -97q18 -43 18 -176v-311q0 -131 5 -160.5t16.5 -39.5t26.5 -10q16 0 28 7q21 13 81 73v-56q-112 -150 -214 -150q-49 0 -78 34t-30 116zM583 197v349q-151 -60 -195 -85q-79 -44 -113 -92t-34 -105q0 -72 43 -119.5t99 -47.5q76 0 200 100zM802 60
q-28 -30 -57.5 -62t-53.5 -66t-40 -70.5t-17 -75.5q-2 -52 26.5 -87t78.5 -35q19 0 43 7t44 19l15 -29q-40 -40 -82 -65t-96 -25q-37 0 -67 12.5t-50.5 34.5t-31 50.5t-9.5 60.5q2 43 21 84t49 77q18 21 35.5 38.5t38.5 36.5t49 41t69 54h35z" />
    <glyph glyph-name="Dcaron" unicode="&#x10e;" 
d="M35 0v37h51q86 0 122 55q22 33 22 148v876q0 127 -28 159q-39 44 -116 44h-51v37h552q304 0 462.5 -69t255 -230t96.5 -372q0 -283 -172 -473q-193 -212 -588 -212h-606zM422 98q127 -28 213 -28q232 0 385 163t153 442q0 281 -153 443t-393 162q-90 0 -205 -29v-1153z
M774 1462h-184l-190 331h31l273 -212l229 212h30z" />
    <glyph glyph-name="dcaron" unicode="&#x10f;" horiz-adv-x="1324" 
d="M1047 904v47q102 61 140 114q26 38 26 91q0 31 -11 46q-12 15 -26 15q-11 0 -29 -7q-26 -10 -45 -10q-39 0 -69.5 30.5t-30.5 75.5q0 50 31 78q42 38 100 38q67 0 120 -56.5t53 -140.5q0 -118 -88 -215q-59 -64 -171 -106zM711 103q-67 -70 -131 -100.5t-138 -30.5
q-150 0 -262 125.5t-112 322.5t124 360.5t319 163.5q121 0 200 -77v169q0 157 -7.5 193t-23.5 49t-40 13q-26 0 -69 -16l-13 35l273 112h45v-1059q0 -161 7.5 -196.5t24 -49.5t38.5 -14q27 0 72 17l11 -35l-272 -113h-46v131zM711 173v472q-6 68 -36 124t-79.5 84.5
t-96.5 28.5q-88 0 -157 -79q-91 -104 -91 -304q0 -202 88 -309.5t196 -107.5q91 0 176 91z" />
    <glyph glyph-name="Dcroat" unicode="&#x110;" 
d="M35 0v37h51q86 0 123 56q21 32 21 147v438h-195v74h195v364q0 127 -28 159q-39 44 -116 44h-51v37h552q315 0 466 -71.5t249 -229t98 -368.5q0 -287 -183.5 -487t-576.5 -200h-605zM423 100q127 -28 213 -28q231 0 384 163t153 442q0 281 -153 443t-392 162
q-90 0 -205 -29v-501h393v-74h-393v-578z" />
    <glyph glyph-name="Eogonek" unicode="&#x118;" horiz-adv-x="1251" 
d="M428 1282v-536h298q116 0 155 35q52 46 58 162h37v-472h-37q-14 99 -28 127q-18 35 -59 55t-126 20h-298v-447q0 -90 8 -109.5t28 -31t76 -11.5h230q115 0 167 16t100 63q62 62 127 187h40l-117 -340h-1045v37h48q48 0 91 23q32 16 43.5 48t11.5 131v881q0 129 -26 159
q-36 40 -120 40h-48v37h1045l15 -297h-39q-21 107 -46.5 147t-75.5 61q-40 15 -141 15h-372zM1043 60q-28 -30 -57.5 -62t-53.5 -66t-40 -70.5t-17 -75.5q-2 -52 26.5 -87t78.5 -35q19 0 43 7t44 19l15 -29q-40 -40 -82 -65t-96 -25q-37 0 -67 12.5t-50.5 34.5t-31 50.5
t-9.5 60.5q2 43 21 84t49 77q18 21 35.5 38.5t38.5 36.5t49 41t69 54h35z" />
    <glyph glyph-name="eogonek" unicode="&#x119;" horiz-adv-x="909" 
d="M218 571q-1 -204 99 -320t235 -116q90 0 156.5 49.5t111.5 169.5l31 -20q-21 -137 -122 -249.5t-253 -112.5q-165 0 -282.5 128.5t-117.5 345.5q0 235 120.5 366.5t302.5 131.5q154 0 253 -101.5t99 -271.5h-633zM218 629h424q-5 88 -21 124q-25 56 -74.5 88t-103.5 32
q-83 0 -148.5 -64.5t-76.5 -179.5zM681 60q-28 -30 -57.5 -62t-53.5 -66t-40 -70.5t-17 -75.5q-2 -52 26.5 -87t78.5 -35q19 0 43 7t44 19l15 -29q-40 -40 -82 -65t-96 -25q-37 0 -67 12.5t-50.5 34.5t-31 50.5t-9.5 60.5q2 43 21 84t49 77q18 21 35.5 38.5t38.5 36.5t49 41
t69 54h35z" />
    <glyph glyph-name="Ecaron" unicode="&#x11a;" horiz-adv-x="1251" 
d="M428 1282v-536h298q116 0 155 35q52 46 58 162h37v-472h-37q-14 99 -28 127q-18 35 -59 55t-126 20h-298v-447q0 -90 8 -109.5t28 -31t76 -11.5h230q115 0 167 16t100 63q62 62 127 187h40l-117 -340h-1045v37h48q48 0 91 23q32 16 43.5 48t11.5 131v881q0 129 -26 159
q-36 40 -120 40h-48v37h1045l15 -297h-39q-21 107 -46.5 147t-75.5 61q-40 15 -141 15h-372zM715 1462h-184l-190 331h31l273 -212l229 212h30z" />
    <glyph glyph-name="ecaron" unicode="&#x11b;" horiz-adv-x="909" 
d="M218 571q-1 -204 99 -320t235 -116q90 0 156.5 49.5t111.5 169.5l31 -20q-21 -137 -122 -249.5t-253 -112.5q-165 0 -282.5 128.5t-117.5 345.5q0 235 120.5 366.5t302.5 131.5q154 0 253 -101.5t99 -271.5h-633zM218 629h424q-5 88 -21 124q-25 56 -74.5 88t-103.5 32
q-83 0 -148.5 -64.5t-76.5 -179.5zM580 1054h-184l-190 331h31l273 -212l229 212h30z" />
    <glyph glyph-name="Lacute" unicode="&#x139;" horiz-adv-x="1251" 
d="M1174 375l33 -7l-116 -368h-1050v37h51q86 0 123 56q21 32 21 148v875q0 127 -28 159q-39 44 -116 44h-51v37h614v-37q-108 1 -151.5 -20t-59.5 -53t-16 -153v-852q0 -83 16 -114q12 -21 37 -31t156 -10h99q156 0 219 23t115 81.5t104 184.5zM759 1797l-295 -345h-34
l105 345h224z" />
    <glyph glyph-name="lacute" unicode="&#x13a;" horiz-adv-x="569" 
d="M379 1422v-1215q0 -86 12.5 -114t38.5 -42.5t97 -14.5v-36h-449v36q63 0 86 13t36 43t13 115v832q0 155 -7 190.5t-22.5 48.5t-39.5 13q-26 0 -66 -16l-17 35l273 112h45zM514 1797l-295 -345h-34l105 345h224z" />
    <glyph glyph-name="Lcaron" unicode="&#x13d;" horiz-adv-x="1251" 
d="M819 847v44q103 33 159.5 104.5t56.5 151.5q0 20 -9 32q-8 9 -14 9q-11 0 -48 -19q-18 -10 -38 -10q-49 0 -78 29t-29 80q0 49 37.5 84t91.5 35q66 0 117.5 -57.5t51.5 -151.5q0 -103 -71.5 -191.5t-226.5 -139.5zM1174 375l33 -7l-116 -368h-1050v37h51q86 0 123 56
q21 32 21 148v875q0 127 -28 159q-39 44 -116 44h-51v37h614v-37q-108 1 -151.5 -20t-59.5 -53t-16 -153v-852q0 -83 16 -114q12 -21 37 -31t156 -10h99q156 0 219 23t115 81.5t104 184.5z" />
    <glyph glyph-name="lcaron" unicode="&#x13e;" horiz-adv-x="832" 
d="M555 904v47q102 61 139 114q27 38 27 91q0 31 -12 46t-26 15q-11 0 -29 -7q-26 -10 -43 -10q-40 0 -71 30.5t-31 75.5q0 50 31 78q43 38 100 38q68 0 121 -56.5t53 -140.5q0 -118 -88 -215q-60 -64 -171 -106zM378 1422v-1215q0 -86 12.5 -114t38.5 -42.5t97 -14.5v-36
h-449v36q63 0 86 13t36 43t13 115v832q0 155 -7 190.5t-22.5 48.5t-39.5 13q-26 0 -66 -16l-17 35l273 112h45z" />
    <glyph glyph-name="Ldot" unicode="&#x13f;" horiz-adv-x="1251" 
d="M1174 375l33 -7l-116 -368h-1050v37h51q86 0 123 56q21 32 21 148v875q0 127 -28 159q-39 44 -116 44h-51v37h614v-37q-108 1 -151.5 -20t-59.5 -53t-16 -153v-852q0 -83 16 -114q12 -21 37 -31t156 -10h99q156 0 219 23t115 81.5t104 184.5zM761 813q44 0 74.5 -30.5
t30.5 -74.5q0 -43 -31 -74t-74 -31t-74 31t-31 74q0 44 30.5 74.5t74.5 30.5z" />
    <glyph glyph-name="ldot" unicode="&#x140;" horiz-adv-x="704" 
d="M379 1422v-1215q0 -86 12.5 -114t38.5 -42.5t97 -14.5v-36h-449v36q63 0 86 13t36 43t13 115v832q0 155 -7 190.5t-22.5 48.5t-39.5 13q-26 0 -66 -16l-17 35l273 112h45zM588 808q44 0 74.5 -30.5t30.5 -74.5q0 -43 -31 -74t-74 -31t-74 31t-31 74q0 44 30.5 74.5
t74.5 30.5z" />
    <glyph glyph-name="Nacute" unicode="&#x143;" 
d="M-27 1356h368l829 -1017v782q0 125 -28 156q-37 42 -117 42h-47v37h472v-37h-48q-86 0 -122 -52q-22 -32 -22 -146v-1143h-36l-894 1092v-835q0 -125 27 -156q38 -42 117 -42h48v-37h-472v37h47q87 0 123 52q22 32 22 146v943q-59 69 -89.5 91t-89.5 41q-29 9 -88 9v37z
M931 1797l-295 -345h-34l105 345h224z" />
    <glyph glyph-name="nacute" unicode="&#x144;" horiz-adv-x="1024" 
d="M331 749q161 194 307 194q75 0 129 -37.5t86 -123.5q22 -60 22 -184v-391q0 -87 14 -118q11 -25 35.5 -39t90.5 -14v-36h-453v36h19q64 0 89.5 19.5t35.5 57.5q4 15 4 94v375q0 125 -32.5 181.5t-109.5 56.5q-119 0 -237 -130v-483q0 -93 11 -115q14 -29 38.5 -42.5
t99.5 -13.5v-36h-453v36h20q70 0 94.5 35.5t24.5 135.5v340q0 165 -7.5 201t-23 49t-41.5 13q-28 0 -67 -15l-15 36l276 112h43v-194zM709 1390l-295 -345h-34l105 345h224z" />
    <glyph glyph-name="Ncaron" unicode="&#x147;" 
d="M-27 1356h368l829 -1017v782q0 125 -28 156q-37 42 -117 42h-47v37h472v-37h-48q-86 0 -122 -52q-22 -32 -22 -146v-1143h-36l-894 1092v-835q0 -125 27 -156q38 -42 117 -42h48v-37h-472v37h47q87 0 123 52q22 32 22 146v943q-59 69 -89.5 91t-89.5 41q-29 9 -88 9v37z
M840 1462h-184l-190 331h31l273 -212l229 212h30z" />
    <glyph glyph-name="ncaron" unicode="&#x148;" horiz-adv-x="1024" 
d="M331 749q161 194 307 194q75 0 129 -37.5t86 -123.5q22 -60 22 -184v-391q0 -87 14 -118q11 -25 35.5 -39t90.5 -14v-36h-453v36h19q64 0 89.5 19.5t35.5 57.5q4 15 4 94v375q0 125 -32.5 181.5t-109.5 56.5q-119 0 -237 -130v-483q0 -93 11 -115q14 -29 38.5 -42.5
t99.5 -13.5v-36h-453v36h20q70 0 94.5 35.5t24.5 135.5v340q0 165 -7.5 201t-23 49t-41.5 13q-28 0 -67 -15l-15 36l276 112h43v-194zM582 1054h-184l-190 331h31l273 -212l229 212h30z" />
    <glyph glyph-name="Ohungarumlaut" unicode="&#x150;" 
d="M749 1387q264 0 457.5 -200.5t193.5 -500.5q0 -309 -195 -513t-472 -204q-280 0 -470.5 199t-190.5 515q0 323 220 527q191 177 457 177zM730 1314q-182 0 -292 -135q-137 -168 -137 -492q0 -332 142 -511q109 -136 288 -136q191 0 315.5 149t124.5 470q0 348 -137 519
q-110 136 -304 136zM587 1797h187l-220 -346h-33zM900 1797h187l-218 -346h-34z" />
    <glyph glyph-name="ohungarumlaut" unicode="&#x151;" horiz-adv-x="1024" 
d="M512 943q208 0 334 -158q107 -135 107 -310q0 -123 -59 -249t-162.5 -190t-230.5 -64q-207 0 -329 165q-103 139 -103 312q0 126 62.5 250.5t164.5 184t216 59.5zM481 878q-53 0 -106.5 -31.5t-86.5 -110.5t-33 -203q0 -200 79.5 -345t209.5 -145q97 0 160 80t63 275
q0 244 -105 384q-71 96 -181 96zM350 1390h187l-220 -346h-33zM663 1390h187l-218 -346h-34z" />
    <glyph glyph-name="Racute" unicode="&#x154;" horiz-adv-x="1366" 
d="M1384 0h-362l-459 634q-51 -2 -83 -2q-13 0 -28 0.5t-31 1.5v-394q0 -128 28 -159q38 -44 114 -44h53v-37h-581v37h51q86 0 123 56q21 31 21 147v876q0 128 -28 159q-39 44 -116 44h-51v37h494q216 0 318.5 -31.5t174 -116t71.5 -201.5q0 -125 -81.5 -217t-252.5 -130
l280 -389q96 -134 165 -178t180 -56v-37zM421 697q19 0 33 -0.5t23 -0.5q194 0 292.5 84t98.5 214q0 127 -79.5 206.5t-210.5 79.5q-58 0 -157 -19v-564zM809 1797l-295 -345h-34l105 345h224z" />
    <glyph glyph-name="racute" unicode="&#x155;" horiz-adv-x="682" 
d="M332 943v-206q115 206 236 206q55 0 91 -33.5t36 -77.5q0 -39 -26 -66t-62 -27q-35 0 -78.5 34.5t-64.5 34.5q-18 0 -39 -20q-45 -41 -93 -135v-439q0 -76 19 -115q13 -27 46 -45t95 -18v-36h-469v36q70 0 104 22q25 16 35 51q5 17 5 97v355q0 160 -6.5 190.5t-24 44.5
t-43.5 14q-31 0 -70 -15l-10 36l277 112h42zM574 1390l-295 -345h-34l105 345h224z" />
    <glyph glyph-name="Rcaron" unicode="&#x158;" horiz-adv-x="1366" 
d="M1384 0h-362l-459 634q-51 -2 -83 -2q-13 0 -28 0.5t-31 1.5v-394q0 -128 28 -159q38 -44 114 -44h53v-37h-581v37h51q86 0 123 56q21 31 21 147v876q0 128 -28 159q-39 44 -116 44h-51v37h494q216 0 318.5 -31.5t174 -116t71.5 -201.5q0 -125 -81.5 -217t-252.5 -130
l280 -389q96 -134 165 -178t180 -56v-37zM421 697q19 0 33 -0.5t23 -0.5q194 0 292.5 84t98.5 214q0 127 -79.5 206.5t-210.5 79.5q-58 0 -157 -19v-564zM698 1462h-184l-190 331h31l273 -212l229 212h30z" />
    <glyph glyph-name="rcaron" unicode="&#x159;" horiz-adv-x="682" 
d="M332 943v-206q115 206 236 206q55 0 91 -33.5t36 -77.5q0 -39 -26 -66t-62 -27q-35 0 -78.5 34.5t-64.5 34.5q-18 0 -39 -20q-45 -41 -93 -135v-439q0 -76 19 -115q13 -27 46 -45t95 -18v-36h-469v36q70 0 104 22q25 16 35 51q5 17 5 97v355q0 160 -6.5 190.5t-24 44.5
t-43.5 14q-31 0 -70 -15l-10 36l277 112h42zM447 1054h-184l-190 331h31l273 -212l229 212h30z" />
    <glyph glyph-name="Sacute" unicode="&#x15a;" horiz-adv-x="1139" 
d="M939 1387v-469h-37q-18 135 -64.5 215t-132.5 127t-178 47q-104 0 -172 -63.5t-68 -144.5q0 -62 43 -113q62 -75 295 -200q190 -102 259.5 -156.5t107 -128.5t37.5 -155q0 -154 -119.5 -265.5t-307.5 -111.5q-59 0 -111 9q-31 5 -128.5 36.5t-123.5 31.5q-25 0 -39.5 -15
t-21.5 -62h-37v465h37q26 -146 70 -218.5t134.5 -120.5t198.5 -48q125 0 197.5 66t72.5 156q0 50 -27.5 101t-85.5 95q-39 30 -213 127.5t-247.5 155.5t-111.5 128t-38 154q0 146 112 251.5t285 105.5q108 0 229 -53q56 -25 79 -25q26 0 42.5 15.5t26.5 62.5h37zM762 1797
l-295 -345h-34l105 345h224z" />
    <glyph glyph-name="sacute" unicode="&#x15b;" horiz-adv-x="797" 
d="M656 943v-312h-33q-38 147 -97.5 200t-151.5 53q-70 0 -113 -37t-43 -82q0 -56 32 -96q31 -41 126 -87l146 -71q203 -99 203 -261q0 -125 -94.5 -201.5t-211.5 -76.5q-84 0 -192 30q-33 10 -54 10q-23 0 -36 -26h-33v327h33q28 -140 107 -211t177 -71q69 0 112.5 40.5
t43.5 97.5q0 69 -48.5 116t-193.5 119t-190 130q-45 57 -45 144q0 113 77.5 189t200.5 76q54 0 131 -23q51 -15 68 -15q16 0 25 7t21 31h33zM632 1390l-295 -345h-34l105 345h224z" />
    <glyph glyph-name="uni0162" unicode="&#x162;" horiz-adv-x="1251" 
d="M1185 1356l15 -318h-38q-11 84 -30 120q-31 58 -82.5 85.5t-135.5 27.5h-191v-1036q0 -125 27 -156q38 -42 117 -42h47v-37h-575v37h48q86 0 122 52q22 32 22 146v1036h-163q-95 0 -135 -14q-52 -19 -89 -73t-44 -146h-38l16 318h1107zM611 16h60l-50 -79q63 -16 94 -54
t31 -92q0 -72 -60 -126.5t-155 -54.5q-37 0 -94 7v43q28 -4 48 -4q51 0 86 33.5t35 76.5q0 30 -23 52t-57 22q-10 0 -26 -2z" />
    <glyph glyph-name="uni0163" unicode="&#x163;" horiz-adv-x="569" 
d="M330 1217v-301h214v-70h-214v-594q0 -89 25.5 -120t65.5 -31q33 0 64 20.5t48 60.5h39q-35 -98 -99 -147.5t-132 -49.5q-46 0 -90 25.5t-65 73t-21 146.5v616h-145v33q55 22 112.5 74.5t102.5 124.5q23 38 64 139h31zM341 16h60l-50 -79q63 -16 94 -54t31 -92
q0 -72 -60 -126.5t-155 -54.5q-37 0 -94 7v43q28 -4 48 -4q51 0 86 33.5t35 76.5q0 30 -23 52t-57 22q-10 0 -26 -2z" />
    <glyph glyph-name="Tcaron" unicode="&#x164;" horiz-adv-x="1251" 
d="M1185 1356l15 -318h-38q-11 84 -30 120q-31 58 -82.5 85.5t-135.5 27.5h-191v-1036q0 -125 27 -156q38 -42 117 -42h47v-37h-575v37h48q86 0 122 52q22 32 22 146v1036h-163q-95 0 -135 -14q-52 -19 -89 -73t-44 -146h-38l16 318h1107zM724 1462h-184l-190 331h31
l273 -212l229 212h30z" />
    <glyph glyph-name="tcaron" unicode="&#x165;" horiz-adv-x="875" 
d="M598 904v47q102 61 139 114q27 38 27 91q0 31 -11 46q-12 15 -27 15q-10 0 -28 -7q-27 -10 -44 -10q-40 0 -71 30.5t-31 75.5q0 50 31 78q43 38 100 38q68 0 121 -56.5t53 -140.5q0 -118 -88 -215q-59 -64 -171 -106zM329 1217v-301h214v-70h-214v-594q0 -89 25.5 -120
t65.5 -31q33 0 64 20.5t48 60.5h39q-35 -98 -99 -147.5t-132 -49.5q-46 0 -90 25.5t-65 73t-21 146.5v616h-145v33q55 22 112.5 74.5t102.5 124.5q23 38 64 139h31z" />
    <glyph glyph-name="Uring" unicode="&#x16e;" 
d="M977 1319v37h480v-37h-51q-80 0 -123 -67q-21 -31 -21 -144v-550q0 -204 -40.5 -316.5t-159 -193t-322.5 -80.5q-222 0 -337 77t-163 207q-32 89 -32 334v530q0 125 -34.5 164t-111.5 39h-51v37h586v-37h-52q-84 0 -120 -53q-25 -36 -25 -150v-591q0 -79 14.5 -181
t52.5 -159t109.5 -94t175.5 -37q133 0 238 58t143.5 148.5t38.5 306.5v549q0 127 -28 159q-39 44 -116 44h-51zM783 1814q80 0 136 -56t56 -135q0 -80 -56 -136t-136 -56q-79 0 -135 56t-56 136q0 79 55.5 135t135.5 56zM783 1745q-51 0 -86.5 -35.5t-35.5 -86.5
q0 -50 35.5 -86t86.5 -36t86.5 36t35.5 86q0 51 -35.5 86.5t-86.5 35.5z" />
    <glyph glyph-name="uring" unicode="&#x16f;" horiz-adv-x="1024" 
d="M867 916v-555q0 -159 7.5 -194.5t24 -49.5t38.5 -14q31 0 70 17l14 -35l-274 -113h-45v194q-118 -128 -180 -161t-131 -33q-77 0 -133.5 44.5t-78.5 114.5t-22 198v409q0 65 -14 90t-41.5 38.5t-99.5 12.5v37h321v-613q0 -128 44.5 -168t107.5 -40q43 0 97.5 27
t129.5 103v519q0 78 -28.5 105.5t-118.5 29.5v37h312zM490 1424q80 0 136 -56t56 -135q0 -80 -56 -136t-136 -56q-79 0 -135 56t-56 136q0 79 55.5 135t135.5 56zM490 1355q-51 0 -86.5 -35.5t-35.5 -86.5q0 -50 35.5 -86t86.5 -36t86.5 36t35.5 86q0 51 -35.5 86.5
t-86.5 35.5z" />
    <glyph glyph-name="Uhungarumlaut" unicode="&#x170;" 
d="M977 1319v37h480v-37h-51q-80 0 -123 -67q-21 -31 -21 -144v-550q0 -204 -40.5 -316.5t-159 -193t-322.5 -80.5q-222 0 -337 77t-163 207q-32 89 -32 334v530q0 125 -34.5 164t-111.5 39h-51v37h586v-37h-52q-84 0 -120 -53q-25 -36 -25 -150v-591q0 -79 14.5 -181
t52.5 -159t109.5 -94t175.5 -37q133 0 238 58t143.5 148.5t38.5 306.5v549q0 127 -28 159q-39 44 -116 44h-51zM609 1797h187l-220 -346h-33zM922 1797h187l-218 -346h-34z" />
    <glyph glyph-name="uhungarumlaut" unicode="&#x171;" horiz-adv-x="1024" 
d="M867 916v-555q0 -159 7.5 -194.5t24 -49.5t38.5 -14q31 0 70 17l14 -35l-274 -113h-45v194q-118 -128 -180 -161t-131 -33q-77 0 -133.5 44.5t-78.5 114.5t-22 198v409q0 65 -14 90t-41.5 38.5t-99.5 12.5v37h321v-613q0 -128 44.5 -168t107.5 -40q43 0 97.5 27
t129.5 103v519q0 78 -28.5 105.5t-118.5 29.5v37h312zM314 1390h187l-220 -346h-33zM627 1390h187l-218 -346h-34z" />
    <glyph glyph-name="Zacute" unicode="&#x179;" horiz-adv-x="1251" 
d="M1178 1356l-891 -1274h556q128 0 196.5 56t121.5 227l33 -6l-64 -359h-1104v37l870 1238h-434q-108 0 -156.5 -23.5t-74 -68t-46.5 -166.5h-38l28 339h1003zM854 1797l-295 -345h-34l105 345h224z" />
    <glyph glyph-name="zacute" unicode="&#x17a;" horiz-adv-x="909" 
d="M860 281l-11 -281h-808v36l608 810h-300q-97 0 -127 -12.5t-49 -47.5q-27 -50 -31 -124h-40l6 254h768v-37l-614 -812h334q105 0 142.5 17.5t60.5 61.5q16 32 27 135h34zM678 1390l-295 -345h-34l105 345h224z" />
    <glyph glyph-name="Zdotaccent" unicode="&#x17b;" horiz-adv-x="1251" 
d="M1178 1356l-891 -1274h556q128 0 196.5 56t121.5 227l33 -6l-64 -359h-1104v37l870 1238h-434q-108 0 -156.5 -23.5t-74 -68t-46.5 -166.5h-38l28 339h1003zM646 1709q45 0 77 -32t32 -77t-32 -77t-77 -32t-77 32t-32 77t31.5 77t77.5 32z" />
    <glyph glyph-name="zdotaccent" unicode="&#x17c;" horiz-adv-x="909" 
d="M860 281l-11 -281h-808v36l608 810h-300q-97 0 -127 -12.5t-49 -47.5q-27 -50 -31 -124h-40l6 254h768v-37l-614 -812h334q105 0 142.5 17.5t60.5 61.5q16 32 27 135h34zM486 1337q45 0 77 -32t32 -77t-32 -77t-77 -32t-77 32t-32 77t31.5 77t77.5 32z" />
    <glyph glyph-name="Gamma" unicode="&#x393;" horiz-adv-x="1184" 
d="M1125 1356l5 -317h-39q-4 96 -41 154t-90.5 73.5t-154.5 15.5h-380v-1035q0 -134 34.5 -170t159.5 -40v-37h-582v37q126 4 161 40t35 170v862q0 134 -35 170t-161 40v37h1088z" />
    <glyph glyph-name="Theta" unicode="&#x398;" 
d="M753 1387q249 0 450 -192.5t201 -509.5q0 -315 -198 -515.5t-469 -200.5q-301 0 -481 211t-180 503q0 316 202.5 510t474.5 194zM734 1314q-194 0 -311.5 -160.5t-117.5 -466.5q0 -286 110 -466.5t320 -180.5q204 0 322 158.5t118 460.5q0 306 -110.5 480.5t-330.5 174.5
zM499 920h38q0 -86 35 -123t129 -37h81q89 0 125 36.5t36 123.5h38v-483h-38q0 85 -35 122t-128 37h-83q-89 0 -124.5 -37t-35.5 -122h-38v483z" />
    <glyph glyph-name="Phi" unicode="&#x3a6;" horiz-adv-x="1497" 
d="M844 191q13 -154 192 -154v-37h-576v37q179 0 192 154q-264 0 -422.5 142t-158.5 345q0 217 161 346.5t420 140.5q-12 154 -192 154v37h576v-37q-179 0 -192 -154q286 -9 433.5 -150.5t147.5 -336.5q0 -203 -158 -345t-423 -142zM652 1110q-171 -10 -268 -106.5
t-97 -342.5q0 -394 365 -415v864zM844 1110v-864q165 7 265.5 102t100.5 346q0 395 -366 416z" />
    <glyph glyph-name="alpha" unicode="&#x3b1;" horiz-adv-x="1073" 
d="M788 916h170l-103 -463q-30 -132 -41 -162q40 -184 116 -184q90 0 93 124h36q-3 -116 -42.5 -187.5t-103.5 -71.5q-53 0 -79 43t-56 176q-104 -219 -340 -219q-161 0 -256 125.5t-95 359.5q0 230 104 358t250 128q103 0 169 -73t117 -238zM700 524q-47 161 -105 251.5
t-139 90.5q-183 0 -183 -428q0 -406 175 -406q152 0 225 358z" />
    <glyph glyph-name="delta" unicode="&#x3b4;" horiz-adv-x="965" 
d="M494 853q-50 56 -139 134q-98 86 -132 135.5t-34 108.5q0 88 82 138.5t214 50.5t230.5 -45t98.5 -124q0 -38 -24 -63t-56 -25q-46 0 -108 69q-63 70 -106.5 98.5t-101.5 28.5q-74 0 -121.5 -33t-47.5 -84q0 -48 39 -90t201 -153q173 -119 244.5 -186t116.5 -163t45 -203
q0 -188 -132.5 -331.5t-309.5 -143.5q-161 0 -272 115t-111 307q0 185 122.5 309t301.5 150zM538 807q-287 -47 -287 -394q0 -179 71.5 -278t166.5 -99q99 0 163 95.5t64 258.5q0 236 -178 417z" />
    <glyph glyph-name="epsilon" unicode="&#x3b5;" horiz-adv-x="860" 
d="M316 485q-197 70 -197 212q0 112 104.5 179t259.5 67q141 0 224 -46.5t83 -111.5q0 -34 -26 -59.5t-60 -25.5q-56 0 -92 78q-50 108 -150 108q-79 0 -130 -52t-51 -145q0 -183 189 -183q20 0 46 4q45 6 70 6q61 0 61 -35q0 -39 -62 -39q-22 0 -66 7q-33 6 -51 6
q-200 0 -200 -204q0 -99 53 -159.5t148 -60.5q119 0 158 123q20 65 44.5 90t65.5 25q34 0 61.5 -24.5t27.5 -62.5q0 -91 -102 -150.5t-247 -59.5q-159 0 -282.5 76t-123.5 203q0 159 245 234z" />
    <glyph glyph-name="sigma" unicode="&#x3c3;" horiz-adv-x="1104" 
d="M1063 916v-146h-390q128 -73 209 -184.5t81 -236.5q0 -163 -128.5 -270t-291.5 -107q-193 0 -333 151.5t-140 352.5q0 142 73.5 251t171 149t263.5 40h485zM606 770h-35q-150 0 -239.5 -74.5t-89.5 -233.5q0 -169 94 -298.5t220 -129.5q101 0 167 97.5t66 235.5
q0 219 -183 403z" />
    <glyph glyph-name="tau" unicode="&#x3c4;" horiz-adv-x="823" 
d="M493 770l-29 -287q-7 -75 -7 -150q0 -143 33.5 -173.5t76.5 -30.5q96 0 114 121h37q-33 -278 -221 -278q-197 0 -197 226q0 114 22 284l37 288h-99q-82 0 -127.5 -27.5t-84.5 -110.5h-36q32 110 76 174.5t84 87t119 22.5h492v-146h-290z" />
    <glyph glyph-name="phi" unicode="&#x3c6;" horiz-adv-x="1182" 
d="M474 943v-36q-221 -57 -221 -418q0 -391 275 -460v581q0 127 16 185.5t70.5 103t131.5 44.5q135 0 250.5 -127t115.5 -331q0 -191 -118.5 -341t-357.5 -171v-411h-108v411q-208 18 -333.5 155.5t-125.5 357.5q0 198 114 323.5t291 133.5zM636 29q315 47 315 407
q0 166 -67.5 278.5t-158.5 112.5q-33 0 -55.5 -23.5t-28 -55.5t-5.5 -126v-593z" />
    <glyph glyph-name="underscoredbl" unicode="&#x2017;" horiz-adv-x="1024" 
d="M1042 -284h-1059v84h1059v-84zM1042 -442h-1059v84h1059v-84z" />
    <glyph glyph-name="exclamdbl" unicode="&#x203c;" horiz-adv-x="1173" 
d="M360 359h-38l-88 810q-6 53 -6 79q0 63 33.5 101t80.5 38t79.5 -38t32.5 -113q0 -24 -4 -67zM340 193q46 0 78.5 -32.5t32.5 -77.5q0 -46 -32.5 -78.5t-78.5 -32.5t-78.5 32.5t-32.5 78.5q0 45 32.5 77.5t78.5 32.5zM851 359h-38l-88 810q-6 53 -6 79q0 63 33.5 101
t80.5 38t79.5 -38t32.5 -113q0 -24 -4 -67zM831 193q46 0 78.5 -32.5t32.5 -77.5q0 -46 -32.5 -78.5t-78.5 -32.5t-78.5 32.5t-32.5 78.5q0 45 32.5 77.5t78.5 32.5z" />
    <glyph glyph-name="uni207F" unicode="&#x207f;" horiz-adv-x="645" 
d="M210 1026q97 114 191 114q69 0 111 -49q41 -49 41 -162v-231q0 -49 7 -64t21.5 -22t58.5 -7v-36h-289v36q49 0 67 8q13 6 21 22q6 12 6 63v222q0 79 -22 106t-67 27q-75 0 -146 -74v-281q0 -51 6 -63q8 -16 23 -23t65 -7v-36h-289v36q41 0 60 9q14 7 19 19q8 17 8 65v201
q0 95 -4 115t-12.5 26.5t-27.5 6.5q-18 0 -42 -9l-14 33l179 69h29v-114z" />
    <glyph glyph-name="peseta" unicode="&#x20a7;" horiz-adv-x="1984" 
d="M44 1356h514q151 0 267.5 -50.5t180.5 -147.5q43 -64 53 -172q48 52 72.5 93.5t54.5 125.5h34v-291h171v-58h-171v-614q0 -72 7.5 -95t24 -35t35.5 -12q15 0 34 10t65 55v141h37q17 -97 48.5 -152t88.5 -88t107 -33q64 0 108 42t44 101q0 54 -41 104t-173.5 126
t-176.5 133t-44 136q0 111 73.5 186t181.5 75q50 0 136 -25q31 -9 42 -9q12 0 34 10h43v-275h-36q-21 130 -81.5 187t-142.5 57q-58 0 -98 -39t-40 -90q0 -53 47 -101q34 -34 176 -114.5t190 -144.5t48 -144q0 -116 -82.5 -195.5t-209.5 -79.5q-47 0 -128 24q-51 16 -73 16
q-17 0 -34 -13h-44v86q-57 -65 -97 -89t-82 -24q-64 0 -106 51.5t-42 166.5l1 48v617h-20q-55 -119 -133 -173q-110 -76 -256 -76q-40 0 -94 11t-122 32v-444q0 -90 42.5 -131.5t136.5 -39.5v-35h-570v35q73 0 108.5 19t53 53.5t17.5 113.5v939q0 80 -39.5 119.5
t-139.5 41.5v35zM435 714q38 -18 72 -27.5t64 -9.5q98 0 171 81t73 216q0 142 -78 223t-200 81q-44 0 -102 -18v-546z" />
    <glyph glyph-name="orthogonal" unicode="&#x221f;" horiz-adv-x="2005" 
d="M362 1279h100v-1179h1181v-100h-1281v1279z" />
    <glyph glyph-name="intersection" unicode="&#x2229;" 
d="M302 0h-110v560q0 248 6 314q12 119 44 195t102 149.5t173.5 119.5t219.5 46q112 0 214 -44t177 -119.5t107 -160.5t42 -212q4 -50 4 -288v-560h-109v566q0 218 -6 281q-11 111 -36.5 176.5t-80 123t-139 94.5t-174.5 37q-74 0 -143.5 -25.5t-119 -63t-80 -77
t-44.5 -74.5q-25 -60 -36 -146.5t-11 -325.5v-566z" />
    <glyph glyph-name="equivalence" unicode="&#x2261;" horiz-adv-x="1155" 
d="M38 1046h1079v-82h-1079v82zM38 720h1079v-82h-1079v82zM38 393h1079v-81h-1079v81z" />
    <glyph glyph-name="IJ" unicode="&#x132;" horiz-adv-x="1451" 
d="M632 37v-37h-581v37h48q84 0 122 49q24 32 24 154v876q0 103 -13 136q-10 25 -41 43q-44 24 -92 24h-48v37h581v-37h-49q-83 0 -121 -49q-25 -32 -25 -154v-876q0 -103 13 -136q10 -25 42 -43q43 -24 91 -24h49zM864 1319v37h581v-37h-49q-83 0 -121 -49
q-24 -32 -24 -154v-663q0 -153 -33.5 -248t-115.5 -165.5t-198 -70.5q-94 0 -148 46.5t-54 106.5q0 49 25 74q33 31 77 31q32 0 57.5 -21t64.5 -112q23 -54 59 -54q27 0 50.5 33t23.5 117v926q0 103 -13 136q-10 25 -42 43q-43 24 -91 24h-49z" />
    <glyph glyph-name="ij" unicode="&#x133;" horiz-adv-x="1131" 
d="M297 1422q42 0 71.5 -29.5t29.5 -71.5t-29.5 -72t-71.5 -30t-72 30t-30 72t29.5 71.5t72.5 29.5zM380 943v-736q0 -86 12.5 -114.5t37 -42.5t89.5 -14v-36h-445v36q67 0 90 13t36.5 43t13.5 115v353q0 149 -9 193q-7 32 -22 44.5t-41 12.5q-28 0 -68 -15l-14 36l276 112
h44zM864 1423q43 0 73 -30t30 -73q0 -42 -30 -72t-73 -30q-42 0 -72 30t-30 72q0 43 30 73t72 30zM950 943v-922q0 -235 -100 -349t-260 -114q-91 0 -135 33t-44 68t24.5 60t57.5 25q26 0 53 -13q17 -7 65.5 -50.5t81.5 -43.5q24 0 47 18.5t34 62t11 188.5v652q0 151 -9 194
q-7 33 -22 45.5t-41 12.5q-28 0 -68 -15l-14 36l276 112h43z" />
    <glyph glyph-name="napostrophe" unicode="&#x149;" horiz-adv-x="1237" 
d="M48 869v47q103 61 140 114q26 38 26 91q0 31 -11 46q-12 15 -26 15q-11 0 -29 -7q-26 -9 -43 -9q-40 0 -71 30t-31 75q0 50 31 78q42 38 100 38q67 0 120.5 -56.5t53.5 -140.5q0 -118 -89 -215q-59 -64 -171 -106zM546 749q161 194 307 194q75 0 129 -37.5t86 -123.5
q22 -60 22 -184v-391q0 -87 14 -118q11 -25 35.5 -39t90.5 -14v-36h-453v36h19q64 0 89.5 19.5t35.5 57.5q4 15 4 94v375q0 125 -32.5 181.5t-109.5 56.5q-119 0 -237 -130v-483q0 -93 11 -115q14 -29 38.5 -42.5t99.5 -13.5v-36h-453v36h20q70 0 94.5 35.5t24.5 135.5v340
q0 165 -7.5 201t-23 49t-41.5 13q-28 0 -67 -15l-15 36l276 112h43v-194z" />
    <glyph glyph-name="minute" unicode="&#x2032;" horiz-adv-x="448" 
d="M137 803l31 296q13 127 26 171q19 62 53.5 89.5t77.5 27.5q36 0 57 -20t21 -51q0 -23 -10 -50q-13 -39 -74 -168l-138 -295h-44z" />
    <glyph glyph-name="second" unicode="&#x2033;" horiz-adv-x="853" 
d="M162 803l31 296q13 127 26 171q19 62 53.5 89.5t77.5 27.5q36 0 57 -20t21 -51q0 -23 -10 -50q-13 -39 -74 -168l-138 -295h-44zM504 803l31 296q13 127 26 171q19 62 53.5 89.5t77.5 27.5q36 0 57 -20t21 -51q0 -23 -10 -50q-13 -39 -74 -168l-138 -295h-44z" />
    <glyph glyph-name="uni2105" unicode="&#x2105;" horiz-adv-x="1707" 
d="M632 940q-27 -135 -108.5 -208.5t-180.5 -73.5q-116 0 -203.5 98.5t-87.5 265.5q0 162 96.5 263.5t231.5 101.5q102 0 167 -54t65 -111q0 -28 -18.5 -46t-51.5 -18q-38 0 -58.5 19.5t-24.5 66.5t-30.5 70t-73.5 23q-75 0 -120 -56q-61 -73 -61 -195q0 -146 77 -240
q59 -71 147 -71q73 0 132 50q41 35 80 126zM1345 1387l-989 -1443h-88l988 1443h89zM1323 709q139 0 235 -100.5t96 -251.5q0 -93 -44.5 -187.5t-122.5 -142.5t-173 -48q-135 0 -229.5 101.5t-94.5 256.5q0 147 93.5 259.5t239.5 112.5zM1299 659q-64 0 -107 -45
q-62 -66 -62 -214q0 -184 81 -293q55 -75 136 -75q72 0 119.5 60.5t47.5 206.5q0 183 -79 288q-53 72 -136 72z" />
    <glyph glyph-name="uni2113" unicode="&#x2113;" horiz-adv-x="981" 
d="M100 319l191 193v480q0 199 82.5 297t203.5 98q91 0 144 -53t53 -142q0 -98 -63 -220t-264 -348v-328q0 -150 47 -207.5t122 -57.5q69 0 131.5 56t110.5 202h35q-40 -161 -138 -249q-74 -68 -182 -68q-88 0 -157.5 48t-100.5 129q-24 61 -24 211v99l-167 -164zM447 680
q273 301 273 476q0 83 -39.5 129t-96.5 46q-58 0 -97.5 -55.5t-39.5 -215.5v-380z" />
    <glyph glyph-name="Amacron" unicode="&#x100;" 
d="M937 454h-525l-92 -214q-34 -79 -34 -118q0 -31 29.5 -54.5t127.5 -30.5v-37h-427v37q85 15 110 39q51 48 113 195l477 1116h35l472 -1128q57 -136 103.5 -176.5t129.5 -45.5v-37h-535v37q81 4 109.5 27t28.5 56q0 44 -40 139zM909 528l-230 548l-236 -548h466zM415 1636
h638v-128h-638v128z" />
    <glyph glyph-name="amacron" unicode="&#x101;" horiz-adv-x="909" 
d="M583 132q-141 -109 -177 -126q-54 -25 -115 -25q-95 0 -156.5 65t-61.5 171q0 67 30 116q41 68 142.5 128t337.5 146v36q0 137 -43.5 188t-126.5 51q-63 0 -100 -34q-38 -34 -38 -78l2 -58q0 -46 -23.5 -71t-61.5 -25q-37 0 -60.5 26t-23.5 71q0 86 88 158t247 72
q122 0 200 -41q59 -31 87 -97q18 -43 18 -176v-311q0 -131 5 -160.5t16.5 -39.5t26.5 -10q16 0 28 7q21 13 81 73v-56q-112 -150 -214 -150q-49 0 -78 34t-30 116zM583 197v349q-151 -60 -195 -85q-79 -44 -113 -92t-34 -105q0 -72 43 -119.5t99 -47.5q76 0 200 100z
M137 1247h638v-128h-638v128z" />
    <glyph glyph-name="Ccircumflex" unicode="&#x108;" horiz-adv-x="1366" 
d="M1233 1387l31 -461h-31q-62 207 -177 298t-276 91q-135 0 -244 -68.5t-171.5 -218.5t-62.5 -373q0 -184 59 -319t177.5 -207t270.5 -72q132 0 233 56.5t222 224.5l31 -20q-102 -181 -238 -265t-323 -84q-337 0 -522 250q-138 186 -138 438q0 203 91 373t250.5 263.5
t348.5 93.5q147 0 290 -72q42 -22 60 -22q27 0 47 19q26 27 37 75h35zM623 1822h184l190 -331h-31l-273 213l-229 -213h-30z" />
    <glyph glyph-name="ccircumflex" unicode="&#x109;" horiz-adv-x="909" 
d="M842 348q-37 -181 -145 -278.5t-239 -97.5q-156 0 -272 131t-116 354q0 216 128.5 351t308.5 135q135 0 222 -71.5t87 -148.5q0 -38 -24.5 -61.5t-68.5 -23.5q-59 0 -89 38q-17 21 -22.5 80t-40.5 90q-35 30 -97 30q-100 0 -161 -74q-81 -98 -81 -259q0 -164 80.5 -289.5
t217.5 -125.5q98 0 176 67q55 46 107 167zM363 1385h184l190 -331h-31l-273 213l-229 -213h-30z" />
    <glyph glyph-name="Cdotaccent" unicode="&#x10a;" horiz-adv-x="1366" 
d="M1233 1387l31 -461h-31q-62 207 -177 298t-276 91q-135 0 -244 -68.5t-171.5 -218.5t-62.5 -373q0 -184 59 -319t177.5 -207t270.5 -72q132 0 233 56.5t222 224.5l31 -20q-102 -181 -238 -265t-323 -84q-337 0 -522 250q-138 186 -138 438q0 203 91 373t250.5 263.5
t348.5 93.5q147 0 290 -72q42 -22 60 -22q27 0 47 19q26 27 37 75h35zM723 1709q45 0 77 -32t32 -77t-32 -77t-77 -32t-77 32t-32 77t31.5 77t77.5 32z" />
    <glyph glyph-name="cdotaccent" unicode="&#x10b;" horiz-adv-x="909" 
d="M842 348q-37 -181 -145 -278.5t-239 -97.5q-156 0 -272 131t-116 354q0 216 128.5 351t308.5 135q135 0 222 -71.5t87 -148.5q0 -38 -24.5 -61.5t-68.5 -23.5q-59 0 -89 38q-17 21 -22.5 80t-40.5 90q-35 30 -97 30q-100 0 -161 -74q-81 -98 -81 -259q0 -164 80.5 -289.5
t217.5 -125.5q98 0 176 67q55 46 107 167zM456 1337q45 0 77 -32t32 -77t-32 -77t-77 -32t-77 32t-32 77t31.5 77t77.5 32z" />
    <glyph glyph-name="Emacron" unicode="&#x112;" horiz-adv-x="1251" 
d="M428 1282v-536h298q116 0 155 35q52 46 58 162h37v-472h-37q-14 99 -28 127q-18 35 -59 55t-126 20h-298v-447q0 -90 8 -109.5t28 -31t76 -11.5h230q115 0 167 16t100 63q62 62 127 187h40l-117 -340h-1045v37h48q48 0 91 23q32 16 43.5 48t11.5 131v881q0 129 -26 159
q-36 40 -120 40h-48v37h1045l15 -297h-39q-21 107 -46.5 147t-75.5 61q-40 15 -141 15h-372zM308 1636h638v-128h-638v128z" />
    <glyph glyph-name="emacron" unicode="&#x113;" horiz-adv-x="909" 
d="M218 571q-1 -204 99 -320t235 -116q90 0 156.5 49.5t111.5 169.5l31 -20q-21 -137 -122 -249.5t-253 -112.5q-165 0 -282.5 128.5t-117.5 345.5q0 235 120.5 366.5t302.5 131.5q154 0 253 -101.5t99 -271.5h-633zM218 629h424q-5 88 -21 124q-25 56 -74.5 88t-103.5 32
q-83 0 -148.5 -64.5t-76.5 -179.5zM137 1247h638v-128h-638v128z" />
    <glyph glyph-name="Ebreve" unicode="&#x114;" horiz-adv-x="1251" 
d="M428 1282v-536h298q116 0 155 35q52 46 58 162h37v-472h-37q-14 99 -28 127q-18 35 -59 55t-126 20h-298v-447q0 -90 8 -109.5t28 -31t76 -11.5h230q115 0 167 16t100 63q62 62 127 187h40l-117 -340h-1045v37h48q48 0 91 23q32 16 43.5 48t11.5 131v881q0 129 -26 159
q-36 40 -120 40h-48v37h1045l15 -297h-39q-21 107 -46.5 147t-75.5 61q-40 15 -141 15h-372zM339 1770h31q33 -61 76 -86q72 -43 181 -43t180 42q51 29 71 87h33q-9 -124 -91.5 -202t-194.5 -78q-111 0 -193 77.5t-93 202.5z" />
    <glyph glyph-name="ebreve" unicode="&#x115;" horiz-adv-x="909" 
d="M218 571q-1 -204 99 -320t235 -116q90 0 156.5 49.5t111.5 169.5l31 -20q-21 -137 -122 -249.5t-253 -112.5q-165 0 -282.5 128.5t-117.5 345.5q0 235 120.5 366.5t302.5 131.5q154 0 253 -101.5t99 -271.5h-633zM218 629h424q-5 88 -21 124q-25 56 -74.5 88t-103.5 32
q-83 0 -148.5 -64.5t-76.5 -179.5zM176 1358h31q33 -61 76 -86q72 -43 181 -43t180 42q51 29 71 87h33q-9 -124 -91.5 -202t-194.5 -78q-111 0 -193 77.5t-93 202.5z" />
    <glyph glyph-name="Edotaccent" unicode="&#x116;" horiz-adv-x="1251" 
d="M428 1282v-536h298q116 0 155 35q52 46 58 162h37v-472h-37q-14 99 -28 127q-18 35 -59 55t-126 20h-298v-447q0 -90 8 -109.5t28 -31t76 -11.5h230q115 0 167 16t100 63q62 62 127 187h40l-117 -340h-1045v37h48q48 0 91 23q32 16 43.5 48t11.5 131v881q0 129 -26 159
q-36 40 -120 40h-48v37h1045l15 -297h-39q-21 107 -46.5 147t-75.5 61q-40 15 -141 15h-372zM626 1709q45 0 77 -32t32 -77t-32 -77t-77 -32t-77 32t-32 77t31.5 77t77.5 32z" />
    <glyph glyph-name="edotaccent" unicode="&#x117;" horiz-adv-x="909" 
d="M218 571q-1 -204 99 -320t235 -116q90 0 156.5 49.5t111.5 169.5l31 -20q-21 -137 -122 -249.5t-253 -112.5q-165 0 -282.5 128.5t-117.5 345.5q0 235 120.5 366.5t302.5 131.5q154 0 253 -101.5t99 -271.5h-633zM218 629h424q-5 88 -21 124q-25 56 -74.5 88t-103.5 32
q-83 0 -148.5 -64.5t-76.5 -179.5zM456 1337q45 0 77 -32t32 -77t-32 -77t-77 -32t-77 32t-32 77t31.5 77t77.5 32z" />
    <glyph glyph-name="Gcircumflex" unicode="&#x11c;" 
d="M1257 1387l35 -428h-35q-53 160 -137 241q-121 117 -311 117q-259 0 -394 -205q-113 -173 -113 -412q0 -194 75 -354t196.5 -234.5t249.5 -74.5q75 0 145 19t135 56v392q0 102 -15.5 133.5t-48 48t-114.5 16.5v38h525v-38h-25q-78 0 -107 -52q-20 -37 -20 -146v-415
q-115 -62 -227 -91t-249 -29q-393 0 -597 252q-153 189 -153 436q0 179 86 343q102 195 280 300q149 87 352 87q74 0 134.5 -12t171.5 -53q56 -21 75 -21t32.5 17.5t16.5 68.5h37zM677 1822h184l190 -331h-31l-273 213l-229 -213h-30z" />
    <glyph glyph-name="gcircumflex" unicode="&#x11d;" horiz-adv-x="1024" 
d="M309 334q-84 41 -129 114.5t-45 162.5q0 136 102.5 234t262.5 98q131 0 227 -64h194q43 0 50 -2.5t10 -8.5q6 -9 6 -32q0 -26 -5 -36q-3 -5 -10.5 -8t-50.5 -3h-119q56 -72 56 -184q0 -128 -98 -219t-263 -91q-68 0 -139 20q-44 -38 -59.5 -66.5t-15.5 -48.5
q0 -17 16.5 -33t64.5 -23q28 -4 140 -7q206 -5 267 -14q93 -13 148.5 -69t55.5 -138q0 -113 -106 -212q-156 -146 -407 -146q-193 0 -326 87q-75 50 -75 104q0 24 11 48q17 37 70 103q7 9 102 108q-52 31 -73.5 55.5t-21.5 55.5q0 35 28.5 82t131.5 133zM483 895
q-74 0 -124 -59t-50 -181q0 -158 68 -245q52 -66 132 -66q76 0 125 57t49 179q0 159 -69 249q-51 66 -131 66zM299 0q-47 -51 -71 -95t-24 -81q0 -48 58 -84q100 -62 289 -62q180 0 265.5 63.5t85.5 135.5q0 52 -51 74q-52 22 -206 26q-225 6 -346 23zM420 1385h184
l190 -331h-31l-273 213l-229 -213h-30z" />
    <glyph glyph-name="Gdotaccent" unicode="&#x120;" 
d="M1257 1387l35 -428h-35q-53 160 -137 241q-121 117 -311 117q-259 0 -394 -205q-113 -173 -113 -412q0 -194 75 -354t196.5 -234.5t249.5 -74.5q75 0 145 19t135 56v392q0 102 -15.5 133.5t-48 48t-114.5 16.5v38h525v-38h-25q-78 0 -107 -52q-20 -37 -20 -146v-415
q-115 -62 -227 -91t-249 -29q-393 0 -597 252q-153 189 -153 436q0 179 86 343q102 195 280 300q149 87 352 87q74 0 134.5 -12t171.5 -53q56 -21 75 -21t32.5 17.5t16.5 68.5h37zM758 1709q45 0 77 -32t32 -77t-32 -77t-77 -32t-77 32t-32 77t31.5 77t77.5 32z" />
    <glyph glyph-name="gdotaccent" unicode="&#x121;" horiz-adv-x="1024" 
d="M309 334q-84 41 -129 114.5t-45 162.5q0 136 102.5 234t262.5 98q131 0 227 -64h194q43 0 50 -2.5t10 -8.5q6 -9 6 -32q0 -26 -5 -36q-3 -5 -10.5 -8t-50.5 -3h-119q56 -72 56 -184q0 -128 -98 -219t-263 -91q-68 0 -139 20q-44 -38 -59.5 -66.5t-15.5 -48.5
q0 -17 16.5 -33t64.5 -23q28 -4 140 -7q206 -5 267 -14q93 -13 148.5 -69t55.5 -138q0 -113 -106 -212q-156 -146 -407 -146q-193 0 -326 87q-75 50 -75 104q0 24 11 48q17 37 70 103q7 9 102 108q-52 31 -73.5 55.5t-21.5 55.5q0 35 28.5 82t131.5 133zM483 895
q-74 0 -124 -59t-50 -181q0 -158 68 -245q52 -66 132 -66q76 0 125 57t49 179q0 159 -69 249q-51 66 -131 66zM299 0q-47 -51 -71 -95t-24 -81q0 -48 58 -84q100 -62 289 -62q180 0 265.5 63.5t85.5 135.5q0 52 -51 74q-52 22 -206 26q-225 6 -346 23zM513 1337q45 0 77 -32
t32 -77t-32 -77t-77 -32t-77 32t-32 77t31.5 77t77.5 32z" />
    <glyph glyph-name="uni0122" unicode="&#x122;" 
d="M1257 1387l35 -428h-35q-53 160 -137 241q-121 117 -311 117q-259 0 -394 -205q-113 -173 -113 -412q0 -194 75 -354t196.5 -234.5t249.5 -74.5q75 0 145 19t135 56v392q0 102 -15.5 133.5t-48 48t-114.5 16.5v38h525v-38h-25q-78 0 -107 -52q-20 -37 -20 -146v-415
q-115 -62 -227 -91t-249 -29q-393 0 -597 252q-153 189 -153 436q0 179 86 343q102 195 280 300q149 87 352 87q74 0 134.5 -12t171.5 -53q56 -21 75 -21t32.5 17.5t16.5 68.5h37zM720 -65q43 5 76 5q82 0 126 -43t44 -106q0 -82 -65.5 -132t-165.5 -50q-36 0 -78 8v43
q24 -4 42 -4q59 0 93 34t34 76q0 32 -24 53t-59 21q-9 0 -23 -2v97z" />
    <glyph glyph-name="uni0123" unicode="&#x123;" horiz-adv-x="1024" 
d="M309 334q-84 41 -129 114.5t-45 162.5q0 136 102.5 234t262.5 98q131 0 227 -64h194q43 0 50 -2.5t10 -8.5q6 -9 6 -32q0 -26 -5 -36q-3 -5 -10.5 -8t-50.5 -3h-119q56 -72 56 -184q0 -128 -98 -219t-263 -91q-68 0 -139 20q-44 -38 -59.5 -66.5t-15.5 -48.5
q0 -17 16.5 -33t64.5 -23q28 -4 140 -7q206 -5 267 -14q93 -13 148.5 -69t55.5 -138q0 -113 -106 -212q-156 -146 -407 -146q-193 0 -326 87q-75 50 -75 104q0 24 11 48q17 37 70 103q7 9 102 108q-52 31 -73.5 55.5t-21.5 55.5q0 35 28.5 82t131.5 133zM483 895
q-74 0 -124 -59t-50 -181q0 -158 68 -245q52 -66 132 -66q76 0 125 57t49 179q0 159 -69 249q-51 66 -131 66zM299 0q-47 -51 -71 -95t-24 -81q0 -48 58 -84q100 -62 289 -62q180 0 265.5 63.5t85.5 135.5q0 52 -51 74q-52 22 -206 26q-225 6 -346 23zM627 1494v-41
q-71 0 -122.5 -43t-51.5 -98q0 -33 22 -33q7 0 25 9q25 14 42 14q85 0 85 -87q0 -48 -33.5 -72t-71.5 -24q-52 0 -92.5 41.5t-40.5 119.5q0 107 66 159t172 55z" />
    <glyph glyph-name="Hcircumflex" unicode="&#x124;" 
d="M421 727h630v388q0 104 -13 137q-10 25 -42 43q-43 24 -91 24h-48v37h580v-37h-48q-48 0 -91 -23q-32 -16 -43.5 -48.5t-11.5 -132.5v-875q0 -103 13 -136q10 -25 41 -43q44 -24 92 -24h48v-37h-580v37h48q83 0 121 49q25 32 25 154v413h-630v-413q0 -103 13 -136
q10 -25 42 -43q43 -24 91 -24h49v-37h-581v37h48q84 0 122 49q24 32 24 154v875q0 104 -13 137q-10 25 -41 43q-44 24 -92 24h-48v37h581v-37h-49q-48 0 -91 -23q-31 -16 -43 -48.5t-12 -132.5v-388zM648 1822h184l190 -331h-31l-273 213l-229 -213h-30z" />
    <glyph glyph-name="hcircumflex" unicode="&#x125;" horiz-adv-x="1024" 
d="M333 1422v-670q111 122 176 156.5t130 34.5q78 0 134 -43t83 -135q19 -64 19 -234v-324q0 -87 14 -119q10 -24 34 -38t88 -14v-36h-450v36h21q64 0 89 19.5t35 57.5q3 16 3 94v324q0 150 -15.5 197t-49.5 70.5t-82 23.5q-49 0 -102 -26t-127 -105v-484q0 -94 10.5 -117
t39 -38.5t98.5 -15.5v-36h-454v36q61 0 96 19q20 10 32 38t12 114v829q0 157 -7.5 193t-23 49t-41.5 13q-21 0 -68 -16l-14 35l274 112h46zM420 1822h184l190 -331h-31l-273 213l-229 -213h-30z" />
    <glyph glyph-name="Hbar" unicode="&#x126;" 
d="M1050 1150q-3 78 -13 103.5t-47 45.5t-85 20h-48v37h580v-37h-48q-49 0 -85.5 -21t-46.5 -44t-14 -104h185v-82h-185v-828q0 -106 13.5 -136t49.5 -48.5t83 -18.5h48v-37h-580v37h48q52 0 89 22.5t47 54t10 126.5v413h-630v-413q0 -106 13.5 -136t50 -48.5t82.5 -18.5h49
v-37h-581v37h48q52 0 89.5 22.5t47 54t9.5 126.5v828h-185v82h185q-3 78 -13.5 103.5t-47 45.5t-85.5 20h-48v37h581v-37h-49q-48 0 -85 -21t-47 -44t-13 -104h628zM1051 1068h-630v-351h630v351z" />
    <glyph glyph-name="hbar" unicode="&#x127;" horiz-adv-x="1024" 
d="M333 1150h290v-82h-290v-316q107 119 173.5 155t133.5 36q83 0 138 -46.5t76 -123t21 -242.5v-324q0 -113 28 -142t88 -29h21v-36h-451v36h21q62 0 87 18t33 45.5t8 107.5v324q0 176 -32 233.5t-114 57.5q-107 0 -231 -131v-484q0 -111 12.5 -122t31 -30t105.5 -19v-36
h-454v36q89 0 114.5 34.5t25.5 136.5v829l-1 32h-154v82h153q-2 95 -20.5 118t-49.5 23q-22 0 -68 -16l-15 35l274 112h46v-272z" />
    <glyph glyph-name="Itilde" unicode="&#x128;" horiz-adv-x="682" 
d="M632 37v-37h-581v37h48q84 0 122 49q24 32 24 154v876q0 103 -13 136q-10 25 -41 43q-44 24 -92 24h-48v37h581v-37h-49q-83 0 -121 -49q-25 -32 -25 -154v-876q0 -103 13 -136q10 -25 42 -43q43 -24 91 -24h49zM54 1491h-32q4 137 57 198t131 61q41 0 75 -13
q45 -17 127.5 -71.5t122.5 -54.5q32 0 56.5 27t38.5 112h31q1 -93 -24.5 -147.5t-72 -85t-93.5 -30.5q-79 0 -196 80q-63 43 -85 52t-43 9q-41 0 -65 -36q-11 -17 -28 -101z" />
    <glyph glyph-name="itilde" unicode="&#x129;" horiz-adv-x="569" 
d="M380 943v-736q0 -86 13 -114.5t37.5 -42.5t89.5 -14v-36h-445v36q67 0 90 13t36.5 43t13.5 115v353q0 149 -9 193q-7 32 -22 44.5t-41 12.5q-28 0 -68 -15l-14 36l276 112h43zM-2 1097h-32q4 137 57 198t131 61q41 0 75 -13q45 -17 127.5 -71.5t122.5 -54.5q32 0 56.5 27
t38.5 112h31q1 -93 -24.5 -147.5t-72 -85t-93.5 -30.5q-79 0 -196 80q-63 43 -85 52t-43 9q-41 0 -65 -36q-11 -17 -28 -101z" />
    <glyph glyph-name="Imacron" unicode="&#x12a;" horiz-adv-x="682" 
d="M632 37v-37h-581v37h48q84 0 122 49q24 32 24 154v876q0 103 -13 136q-10 25 -41 43q-44 24 -92 24h-48v37h581v-37h-49q-83 0 -121 -49q-25 -32 -25 -154v-876q0 -103 13 -136q10 -25 42 -43q43 -24 91 -24h49zM23 1636h638v-128h-638v128z" />
    <glyph glyph-name="imacron" unicode="&#x12b;" horiz-adv-x="569" 
d="M380 943v-736q0 -86 13 -114.5t37.5 -42.5t89.5 -14v-36h-445v36q67 0 90 13t36.5 43t13.5 115v353q0 149 -9 193q-7 32 -22 44.5t-41 12.5q-28 0 -68 -15l-14 36l276 112h43zM-43 1247h638v-128h-638v128z" />
    <glyph glyph-name="Ibreve" unicode="&#x12c;" horiz-adv-x="682" 
d="M632 37v-37h-581v37h48q84 0 122 49q24 32 24 154v876q0 103 -13 136q-10 25 -41 43q-44 24 -92 24h-48v37h581v-37h-49q-83 0 -121 -49q-25 -32 -25 -154v-876q0 -103 13 -136q10 -25 42 -43q43 -24 91 -24h49zM54 1770h31q33 -61 76 -86q72 -43 181 -43t180 42
q51 29 71 87h33q-9 -124 -91.5 -202t-194.5 -78q-111 0 -193 77.5t-93 202.5z" />
    <glyph glyph-name="ibreve" unicode="&#x12d;" horiz-adv-x="569" 
d="M380 943v-736q0 -86 13 -114.5t37.5 -42.5t89.5 -14v-36h-445v36q67 0 90 13t36.5 43t13.5 115v353q0 149 -9 193q-7 32 -22 44.5t-41 12.5q-28 0 -68 -15l-14 36l276 112h43zM-2 1358h31q33 -61 76 -86q72 -43 181 -43t180 42q51 29 71 87h33q-9 -124 -91.5 -202
t-194.5 -78q-111 0 -193 77.5t-93 202.5z" />
    <glyph glyph-name="Iogonek" unicode="&#x12e;" horiz-adv-x="682" 
d="M632 37v-37h-581v37h48q84 0 122 49q24 32 24 154v876q0 103 -13 136q-10 25 -41 43q-44 24 -92 24h-48v37h581v-37h-49q-83 0 -121 -49q-25 -32 -25 -154v-876q0 -103 13 -136q10 -25 42 -43q43 -24 91 -24h49zM468 60q-28 -30 -57.5 -62t-53.5 -66t-40 -70.5t-17 -75.5
q-2 -52 26.5 -87t78.5 -35q19 0 43 7t44 19l15 -29q-40 -40 -82 -65t-96 -25q-37 0 -67 12.5t-50.5 34.5t-31 50.5t-9.5 60.5q2 43 21 84t49 77q18 21 35.5 38.5t38.5 36.5t49 41t69 54h35z" />
    <glyph glyph-name="iogonek" unicode="&#x12f;" horiz-adv-x="569" 
d="M297 1422q42 0 71.5 -29.5t29.5 -71.5t-29.5 -72t-71.5 -30t-72 30t-30 72t29.5 71.5t72.5 29.5zM380 943v-736q0 -86 12.5 -114.5t37 -42.5t89.5 -14v-36h-445v36q67 0 90 13t36.5 43t13.5 115v353q0 149 -9 193q-7 32 -22 44.5t-41 12.5q-28 0 -68 -15l-14 36l276 112
h44zM403 60q-28 -30 -57.5 -62t-53.5 -66t-40 -70.5t-17 -75.5q-2 -52 26.5 -87t78.5 -35q19 0 43 7t44 19l15 -29q-40 -40 -82 -65t-96 -25q-37 0 -67 12.5t-50.5 34.5t-31 50.5t-9.5 60.5q2 43 21 84t49 77q18 21 35.5 38.5t38.5 36.5t49 41t69 54h35z" />
    <glyph glyph-name="Jcircumflex" unicode="&#x134;" horiz-adv-x="797" 
d="M204 1319v37h581v-37h-49q-83 0 -121 -49q-24 -32 -24 -154v-663q0 -153 -33.5 -248t-115.5 -165.5t-198 -70.5q-94 0 -148 46.5t-54 106.5q0 49 25 74q33 31 77 31q32 0 57.5 -21t64.5 -112q23 -54 59 -54q27 0 50.5 33t23.5 117v926q0 103 -13 136q-10 25 -42 43
q-43 24 -91 24h-49zM393 1822h184l190 -331h-31l-273 213l-229 -213h-30z" />
    <glyph glyph-name="jcircumflex" unicode="&#x135;" horiz-adv-x="569" 
d="M191 1385h184l190 -331h-31l-273 213l-229 -213h-30zM382 943v-922q0 -225 -96 -344t-264 -119q-84 0 -131.5 30.5t-47.5 70.5q0 30 22.5 57.5t59.5 27.5q46 0 114 -59q53 -48 86 -48q49 0 70.5 50t21.5 219v652q0 162 -12 207t-61 45q-27 0 -67 -15l-14 36l276 112h43z
" />
    <glyph glyph-name="uni0136" unicode="&#x136;" 
d="M612 752l500 -497q123 -123 210 -167.5t174 -50.5v-37h-645v37q58 0 83.5 19.5t25.5 43.5t-9.5 43t-62.5 71l-468 463v-437q0 -103 13 -136q10 -25 42 -43q43 -24 91 -24h46v-37h-578v37h48q84 0 122 49q24 32 24 154v876q0 103 -13 137q-10 24 -41 42q-44 24 -92 24h-48
v37h578v-37h-46q-47 0 -91 -23q-31 -16 -43 -48t-12 -132v-415q20 19 137 127q297 272 359 363q27 40 27 70q0 23 -21 40.5t-71 17.5h-31v37h498v-37q-44 -1 -80 -12t-88 -42.5t-128 -101.5q-22 -20 -203 -205zM649 -65q43 5 76 5q82 0 126 -43t44 -106q0 -82 -65.5 -132
t-165.5 -50q-36 0 -78 8v43q24 -4 42 -4q59 0 93 34t34 76q0 32 -24 53t-59 21q-9 0 -23 -2v97z" />
    <glyph glyph-name="uni0137" unicode="&#x137;" horiz-adv-x="1024" 
d="M335 1422v-911l233 212q74 68 86 86q8 12 8 24q0 20 -16.5 34.5t-54.5 16.5v32h398v-32q-82 -2 -136.5 -25t-119.5 -82l-235 -217l235 -297q98 -123 132 -156q48 -47 84 -61q25 -10 87 -10v-36h-445v36q38 1 51.5 11.5t13.5 29.5q0 23 -40 74l-281 359v-304
q0 -89 12.5 -117t35.5 -40t100 -13v-36h-466v36q70 0 105 17q21 11 32 34q15 33 15 114v834q0 159 -7 194.5t-23 49t-42 13.5q-21 0 -63 -17l-17 35l272 112h46zM421 -65q43 5 76 5q82 0 126 -43t44 -106q0 -82 -65.5 -132t-165.5 -50q-36 0 -78 8v43q24 -4 42 -4
q59 0 93 34t34 76q0 32 -24 53t-59 21q-9 0 -23 -2v97z" />
    <glyph glyph-name="kgreenlandic" unicode="&#x138;" horiz-adv-x="1024" 
d="M335 715v-204l229 208q68 62 80.5 77.5t12.5 31.5q0 46 -71 50v38h398v-38q-80 -1 -135.5 -24t-119.5 -82l-231 -212l235 -297q119 -150 166.5 -188t111.5 -38h25v-37h-445v37q65 1 65 41q0 22 -40 73l-281 359v-304q0 -101 21.5 -135t126.5 -34v-37h-466v37
q99 0 125.5 33t26.5 131v511q0 107 -28 136.5t-120 29.5v38h466v-38q-98 0 -125 -32t-27 -131z" />
    <glyph glyph-name="uni013B" unicode="&#x13b;" horiz-adv-x="1251" 
d="M1174 375l33 -7l-116 -368h-1050v37h51q86 0 123 56q21 32 21 148v875q0 127 -28 159q-39 44 -116 44h-51v37h614v-37q-108 1 -151.5 -20t-59.5 -53t-16 -153v-852q0 -83 16 -114q12 -21 37 -31t156 -10h99q156 0 219 23t115 81.5t104 184.5zM535 -65q43 5 76 5
q82 0 126 -43t44 -106q0 -82 -65.5 -132t-165.5 -50q-36 0 -78 8v43q24 -4 42 -4q59 0 93 34t34 76q0 32 -24 53t-59 21q-9 0 -23 -2v97z" />
    <glyph glyph-name="uni013C" unicode="&#x13c;" horiz-adv-x="569" 
d="M379 1422v-1215q0 -86 12.5 -114t38.5 -42.5t97 -14.5v-36h-449v36q63 0 86 13t36 43t13 115v832q0 155 -7 190.5t-22.5 48.5t-39.5 13q-26 0 -66 -16l-17 35l273 112h45zM194 -65q43 5 76 5q82 0 126 -43t44 -106q0 -82 -65.5 -132t-165.5 -50q-36 0 -78 8v43
q24 -4 42 -4q59 0 93 34t34 76q0 32 -24 53t-59 21q-9 0 -23 -2v97z" />
    <glyph glyph-name="uni0145" unicode="&#x145;" 
d="M-27 1356h368l829 -1017v782q0 125 -28 156q-37 42 -117 42h-47v37h472v-37h-48q-86 0 -122 -52q-22 -32 -22 -146v-1143h-36l-894 1092v-835q0 -125 27 -156q38 -42 117 -42h48v-37h-472v37h47q87 0 123 52q22 32 22 146v943q-59 69 -89.5 91t-89.5 41q-29 9 -88 9v37z
M648 -65q43 5 76 5q82 0 126 -43t44 -106q0 -82 -65.5 -132t-165.5 -50q-36 0 -78 8v43q24 -4 42 -4q59 0 93 34t34 76q0 32 -24 53t-59 21q-9 0 -23 -2v97z" />
    <glyph glyph-name="uni0146" unicode="&#x146;" horiz-adv-x="1024" 
d="M331 749q161 194 307 194q75 0 129 -37.5t86 -123.5q22 -60 22 -184v-391q0 -87 14 -118q11 -25 35.5 -39t90.5 -14v-36h-453v36h19q64 0 89.5 19.5t35.5 57.5q4 15 4 94v375q0 125 -32.5 181.5t-109.5 56.5q-119 0 -237 -130v-483q0 -93 11 -115q14 -29 38.5 -42.5
t99.5 -13.5v-36h-453v36h20q70 0 94.5 35.5t24.5 135.5v340q0 165 -7.5 201t-23 49t-41.5 13q-28 0 -67 -15l-15 36l276 112h43v-194zM421 -65q43 5 76 5q82 0 126 -43t44 -106q0 -82 -65.5 -132t-165.5 -50q-36 0 -78 8v43q24 -4 42 -4q59 0 93 34t34 76q0 32 -24 53
t-59 21q-9 0 -23 -2v97z" />
    <glyph glyph-name="Eng" unicode="&#x14a;" horiz-adv-x="1437" 
d="M424 1091q83 130 180.5 213t251.5 83q225 0 356.5 -172.5t131.5 -478.5q0 -203 -51.5 -382t-171 -282t-232.5 -103q-91 0 -153 59.5t-62 135.5q0 43 27.5 75.5t69.5 32.5q82 0 120 -137q15 -56 34 -69t46 -13q87 0 125 116.5t38 474.5q0 336 -78 490.5t-248 154.5
q-101 0 -191 -66t-193 -243v-740q0 -95 10 -126.5t47 -54t89 -22.5h49v-37h-581v37h48q47 0 83 18.5t49.5 48.5t13.5 136v884q0 133 -32.5 171.5t-113.5 38.5h-48v38h386v-281z" />
    <glyph glyph-name="eng" unicode="&#x14b;" horiz-adv-x="1013" 
d="M875 21q0 -225 -95 -344t-265 -119q-86 0 -132.5 31t-46.5 70q0 32 23.5 58.5t58.5 26.5q46 0 114 -59q54 -48 86 -48q50 0 71 50t21 219v676q0 126 -32.5 182t-108.5 56q-122 0 -238 -130v-483q0 -101 22 -135.5t106 -34.5h21v-37h-453v37h20q69 0 94 35t25 135v340
q0 177 -12 220t-61 43q-28 0 -66 -15l-15 36l276 112h43v-194q161 194 308 194q236 0 236 -345v-577z" />
    <glyph glyph-name="Omacron" unicode="&#x14c;" 
d="M749 1387q264 0 457.5 -200.5t193.5 -500.5q0 -309 -195 -513t-472 -204q-280 0 -470.5 199t-190.5 515q0 323 220 527q191 177 457 177zM730 1314q-182 0 -292 -135q-137 -168 -137 -492q0 -332 142 -511q109 -136 288 -136q191 0 315.5 149t124.5 470q0 348 -137 519
q-110 136 -304 136zM421 1636h638v-128h-638v128z" />
    <glyph glyph-name="omacron" unicode="&#x14d;" horiz-adv-x="1024" 
d="M512 943q208 0 334 -158q107 -135 107 -310q0 -123 -59 -249t-162.5 -190t-230.5 -64q-207 0 -329 165q-103 139 -103 312q0 126 62.5 250.5t164.5 184t216 59.5zM481 878q-53 0 -106.5 -31.5t-86.5 -110.5t-33 -203q0 -200 79.5 -345t209.5 -145q97 0 160 80t63 275
q0 244 -105 384q-71 96 -181 96zM194 1247h638v-128h-638v128z" />
    <glyph glyph-name="Obreve" unicode="&#x14e;" 
d="M749 1387q264 0 457.5 -200.5t193.5 -500.5q0 -309 -195 -513t-472 -204q-280 0 -470.5 199t-190.5 515q0 323 220 527q191 177 457 177zM730 1314q-182 0 -292 -135q-137 -168 -137 -492q0 -332 142 -511q109 -136 288 -136q191 0 315.5 149t124.5 470q0 348 -137 519
q-110 136 -304 136zM453 1770h31q33 -61 76 -86q72 -43 181 -43t180 42q51 29 71 87h33q-9 -124 -91.5 -202t-194.5 -78q-111 0 -193 77.5t-93 202.5z" />
    <glyph glyph-name="obreve" unicode="&#x14f;" horiz-adv-x="1024" 
d="M512 943q208 0 334 -158q107 -135 107 -310q0 -123 -59 -249t-162.5 -190t-230.5 -64q-207 0 -329 165q-103 139 -103 312q0 126 62.5 250.5t164.5 184t216 59.5zM481 878q-53 0 -106.5 -31.5t-86.5 -110.5t-33 -203q0 -200 79.5 -345t209.5 -145q97 0 160 80t63 275
q0 244 -105 384q-71 96 -181 96zM206 1358h31q33 -61 76 -86q72 -43 181 -43t180 42q51 29 71 87h33q-9 -124 -91.5 -202t-194.5 -78q-111 0 -193 77.5t-93 202.5z" />
    <glyph glyph-name="uni0156" unicode="&#x156;" horiz-adv-x="1366" 
d="M1384 0h-362l-459 634q-51 -2 -83 -2q-13 0 -28 0.5t-31 1.5v-394q0 -128 28 -159q38 -44 114 -44h53v-37h-581v37h51q86 0 123 56q21 31 21 147v876q0 128 -28 159q-39 44 -116 44h-51v37h494q216 0 318.5 -31.5t174 -116t71.5 -201.5q0 -125 -81.5 -217t-252.5 -130
l280 -389q96 -134 165 -178t180 -56v-37zM421 697q19 0 33 -0.5t23 -0.5q194 0 292.5 84t98.5 214q0 127 -79.5 206.5t-210.5 79.5q-58 0 -157 -19v-564zM603 -65q43 5 76 5q82 0 126 -43t44 -106q0 -82 -65.5 -132t-165.5 -50q-36 0 -78 8v43q24 -4 42 -4q59 0 93 34t34 76
q0 32 -24 53t-59 21q-9 0 -23 -2v97z" />
    <glyph glyph-name="uni0157" unicode="&#x157;" horiz-adv-x="682" 
d="M332 943v-206q115 206 236 206q55 0 91 -33.5t36 -77.5q0 -39 -26 -66t-62 -27q-35 0 -78.5 34.5t-64.5 34.5q-18 0 -39 -20q-45 -41 -93 -135v-439q0 -76 19 -115q13 -27 46 -45t95 -18v-36h-469v36q70 0 104 22q25 16 35 51q5 17 5 97v355q0 160 -6.5 190.5t-24 44.5
t-43.5 14q-31 0 -70 -15l-10 36l277 112h42zM208 -65q43 5 76 5q82 0 126 -43t44 -106q0 -82 -65.5 -132t-165.5 -50q-36 0 -78 8v43q24 -4 42 -4q59 0 93 34t34 76q0 32 -24 53t-59 21q-9 0 -23 -2v97z" />
    <glyph glyph-name="Scircumflex" unicode="&#x15c;" horiz-adv-x="1139" 
d="M939 1387v-469h-37q-18 135 -64.5 215t-132.5 127t-178 47q-104 0 -172 -63.5t-68 -144.5q0 -62 43 -113q62 -75 295 -200q190 -102 259.5 -156.5t107 -128.5t37.5 -155q0 -154 -119.5 -265.5t-307.5 -111.5q-59 0 -111 9q-31 5 -128.5 36.5t-123.5 31.5q-25 0 -39.5 -15
t-21.5 -62h-37v465h37q26 -146 70 -218.5t134.5 -120.5t198.5 -48q125 0 197.5 66t72.5 156q0 50 -27.5 101t-85.5 95q-39 30 -213 127.5t-247.5 155.5t-111.5 128t-38 154q0 146 112 251.5t285 105.5q108 0 229 -53q56 -25 79 -25q26 0 42.5 15.5t26.5 62.5h37zM478 1822
h184l190 -331h-31l-273 213l-229 -213h-30z" />
    <glyph glyph-name="scircumflex" unicode="&#x15d;" horiz-adv-x="797" 
d="M656 943v-312h-33q-38 147 -97.5 200t-151.5 53q-70 0 -113 -37t-43 -82q0 -56 32 -96q31 -41 126 -87l146 -71q203 -99 203 -261q0 -125 -94.5 -201.5t-211.5 -76.5q-84 0 -192 30q-33 10 -54 10q-23 0 -36 -26h-33v327h33q28 -140 107 -211t177 -71q69 0 112.5 40.5
t43.5 97.5q0 69 -48.5 116t-193.5 119t-190 130q-45 57 -45 144q0 113 77.5 189t200.5 76q54 0 131 -23q51 -15 68 -15q16 0 25 7t21 31h33zM307 1385h184l190 -331h-31l-273 213l-229 -213h-30z" />
    <glyph glyph-name="Tbar" unicode="&#x166;" horiz-adv-x="1251" 
d="M720 754h357v-81h-357v-438q0 -127 34 -162.5t110 -35.5h47v-37h-575v37h48q84 0 114 41t30 157v438h-348v81h348v517h-163q-97 0 -146 -19t-82.5 -75t-39.5 -139h-38l16 318h1107l15 -318h-38q-18 233 -248 233h-191v-517z" />
    <glyph glyph-name="tbar" unicode="&#x167;" horiz-adv-x="569" 
d="M326 583h214v-82h-214v-249q0 -102 32 -126.5t59 -24.5q77 0 112 81h39q-36 -97 -100 -147t-131 -50q-78 0 -127 54t-49 191v271h-145v82h145v263h-145v32q182 76 279 339h31v-301h214v-70h-214v-263z" />
    <glyph glyph-name="Utilde" unicode="&#x168;" 
d="M977 1319v37h480v-37h-51q-80 0 -123 -67q-21 -31 -21 -144v-550q0 -204 -40.5 -316.5t-159 -193t-322.5 -80.5q-222 0 -337 77t-163 207q-32 89 -32 334v530q0 125 -34.5 164t-111.5 39h-51v37h586v-37h-52q-84 0 -120 -53q-25 -36 -25 -150v-591q0 -79 14.5 -181
t52.5 -159t109.5 -94t175.5 -37q133 0 238 58t143.5 148.5t38.5 306.5v549q0 127 -28 159q-39 44 -116 44h-51zM487 1495h-32q4 137 57 198t131 61q41 0 75 -13q45 -17 127.5 -71.5t122.5 -54.5q32 0 56.5 27t38.5 112h31q1 -93 -24.5 -147.5t-72 -85t-93.5 -30.5
q-79 0 -196 80q-63 43 -85 52t-43 9q-41 0 -65 -36q-11 -17 -28 -101z" />
    <glyph glyph-name="utilde" unicode="&#x169;" horiz-adv-x="1024" 
d="M868 916v-555q0 -159 7.5 -194.5t24 -49.5t38.5 -14q31 0 70 17l14 -35l-274 -113h-45v194q-118 -128 -180 -161t-131 -33q-77 0 -133.5 44.5t-78.5 114.5t-22 198v409q0 65 -14 90t-41.5 38.5t-99.5 12.5v37h321v-613q0 -128 44.5 -168t107.5 -40q43 0 97.5 27
t129.5 103v519q0 78 -28.5 105.5t-118.5 29.5v37h312zM225 1097h-32q4 137 57 198t131 61q41 0 75 -13q45 -17 127.5 -71.5t122.5 -54.5q32 0 56.5 27t38.5 112h31q1 -93 -24.5 -147.5t-72 -85t-93.5 -30.5q-79 0 -196 80q-63 43 -85 52t-43 9q-41 0 -65 -36
q-11 -17 -28 -101z" />
    <glyph glyph-name="Umacron" unicode="&#x16a;" 
d="M978 1319v37h480v-37h-51q-80 0 -123 -67q-21 -31 -21 -144v-550q0 -204 -40.5 -316.5t-159 -193t-322.5 -80.5q-222 0 -337 77t-163 207q-32 89 -32 334v530q0 125 -34.5 164t-111.5 39h-51v37h586v-37h-52q-84 0 -120 -53q-25 -36 -25 -150v-591q0 -79 14.5 -181
t52.5 -159t109.5 -94t175.5 -37q133 0 238 58t143.5 148.5t38.5 306.5v549q0 127 -28 159q-39 44 -116 44h-51zM468 1636h638v-128h-638v128z" />
    <glyph glyph-name="umacron" unicode="&#x16b;" horiz-adv-x="1024" 
d="M868 916v-555q0 -159 7.5 -194.5t24 -49.5t38.5 -14q31 0 70 17l14 -35l-274 -113h-45v194q-118 -128 -180 -161t-131 -33q-77 0 -133.5 44.5t-78.5 114.5t-22 198v409q0 65 -14 90t-41.5 38.5t-99.5 12.5v37h321v-613q0 -128 44.5 -168t107.5 -40q43 0 97.5 27
t129.5 103v519q0 78 -28.5 105.5t-118.5 29.5v37h312zM191 1247h638v-128h-638v128z" />
    <glyph glyph-name="Ubreve" unicode="&#x16c;" 
d="M978 1319v37h480v-37h-51q-80 0 -123 -67q-21 -31 -21 -144v-550q0 -204 -40.5 -316.5t-159 -193t-322.5 -80.5q-222 0 -337 77t-163 207q-32 89 -32 334v530q0 125 -34.5 164t-111.5 39h-51v37h586v-37h-52q-84 0 -120 -53q-25 -36 -25 -150v-591q0 -79 14.5 -181
t52.5 -159t109.5 -94t175.5 -37q133 0 238 58t143.5 148.5t38.5 306.5v549q0 127 -28 159q-39 44 -116 44h-51zM453 1770h31q33 -61 76 -86q72 -43 181 -43t180 42q51 29 71 87h33q-9 -124 -91.5 -202t-194.5 -78q-111 0 -193 77.5t-93 202.5z" />
    <glyph glyph-name="ubreve" unicode="&#x16d;" horiz-adv-x="1024" 
d="M868 916v-555q0 -159 7.5 -194.5t24 -49.5t38.5 -14q31 0 70 17l14 -35l-274 -113h-45v194q-118 -128 -180 -161t-131 -33q-77 0 -133.5 44.5t-78.5 114.5t-22 198v409q0 65 -14 90t-41.5 38.5t-99.5 12.5v37h321v-613q0 -128 44.5 -168t107.5 -40q43 0 97.5 27
t129.5 103v519q0 78 -28.5 105.5t-118.5 29.5v37h312zM226 1358h31q33 -61 76 -86q72 -43 181 -43t180 42q51 29 71 87h33q-9 -124 -91.5 -202t-194.5 -78q-111 0 -193 77.5t-93 202.5z" />
    <glyph glyph-name="Uogonek" unicode="&#x172;" 
d="M977 1319v37h480v-37h-51q-80 0 -123 -67q-21 -31 -21 -144v-550q0 -204 -40.5 -316.5t-159 -193t-322.5 -80.5q-222 0 -337 77t-163 207q-32 89 -32 334v530q0 125 -34.5 164t-111.5 39h-51v37h586v-37h-52q-84 0 -120 -53q-25 -36 -25 -150v-591q0 -79 14.5 -181
t52.5 -159t109.5 -94t175.5 -37q133 0 238 58t143.5 148.5t38.5 306.5v549q0 127 -28 159q-39 44 -116 44h-51zM948 60q-28 -30 -57.5 -62t-53.5 -66t-40 -70.5t-17 -75.5q-2 -52 26.5 -87t78.5 -35q19 0 43 7t44 19l15 -29q-40 -40 -82 -65t-96 -25q-37 0 -67 12.5
t-50.5 34.5t-31 50.5t-9.5 60.5q2 43 21 84t49 77q18 21 35.5 38.5t38.5 36.5t49 41t69 54h35z" />
    <glyph glyph-name="uogonek" unicode="&#x173;" horiz-adv-x="1024" 
d="M867 916v-555q0 -159 7.5 -194.5t24 -49.5t38.5 -14q31 0 70 17l14 -35l-274 -113h-45v194q-118 -128 -180 -161t-131 -33q-77 0 -133.5 44.5t-78.5 114.5t-22 198v409q0 65 -14 90t-41.5 38.5t-99.5 12.5v37h321v-613q0 -128 44.5 -168t107.5 -40q43 0 97.5 27
t129.5 103v519q0 78 -28.5 105.5t-118.5 29.5v37h312zM902 60q-28 -30 -57.5 -62t-53.5 -66t-40 -70.5t-17 -75.5q-2 -52 26.5 -87t78.5 -35q19 0 43 7t44 19l15 -29q-40 -40 -82 -65t-96 -25q-37 0 -67 12.5t-50.5 34.5t-31 50.5t-9.5 60.5q2 43 21 84t49 77
q18 21 35.5 38.5t38.5 36.5t49 41t69 54h35z" />
    <glyph glyph-name="Wcircumflex" unicode="&#x174;" horiz-adv-x="1933" 
d="M1917 1356v-37q-53 0 -86 -19t-63 -71q-20 -35 -63 -167l-378 -1093h-40l-309 867l-307 -867h-36l-403 1126q-45 126 -57 149q-20 38 -54.5 56.5t-93.5 18.5v37h502v-37h-24q-53 0 -81 -24t-28 -58q0 -35 44 -161l267 -761l225 647l-40 114l-32 91q-21 50 -47 88
q-13 19 -32 32q-25 18 -50 26q-19 6 -60 6v37h528v-37h-36q-56 0 -82 -24t-26 -65q0 -51 45 -178l260 -737l258 747q44 124 44 172q0 23 -14.5 43t-36.5 28q-38 14 -99 14v37h405zM875 1822h184l190 -331h-31l-273 213l-229 -213h-30z" />
    <glyph glyph-name="wcircumflex" unicode="&#x175;" 
d="M13 916h384v-37q-53 -4 -69.5 -19t-16.5 -43q0 -31 17 -75l196 -527l197 429l-52 135q-24 60 -63 83q-22 14 -82 17v37h436v-37q-72 -3 -102 -26q-20 -16 -20 -51q0 -20 8 -41l208 -526l193 507q20 54 20 86q0 19 -19.5 34t-76.5 17v37h289v-37q-87 -13 -128 -118
l-306 -789h-41l-229 585l-267 -585h-37l-294 770q-29 73 -57 98.5t-88 38.5v37zM648 1385h184l190 -331h-31l-273 213l-229 -213h-30z" />
    <glyph glyph-name="Ycircumflex" unicode="&#x176;" 
d="M976 1356h473v-37h-26q-26 0 -76 -23t-91 -66t-101 -140l-327 -515v-340q0 -125 28 -156q38 -42 120 -42h44v-37h-576v37h48q86 0 122 52q22 32 22 146v321l-372 568q-66 100 -89.5 125t-97.5 60q-20 10 -58 10v37h580v-37h-30q-47 0 -86.5 -22t-39.5 -66q0 -36 61 -130
l283 -437l266 418q60 94 60 140q0 28 -14.5 50t-41.5 34.5t-81 12.5v37zM648 1822h184l190 -331h-31l-273 213l-229 -213h-30z" />
    <glyph glyph-name="ycircumflex" unicode="&#x177;" horiz-adv-x="1024" 
d="M12 916h427v-37h-21q-45 0 -67.5 -19.5t-22.5 -48.5q0 -39 33 -108l223 -462l205 506q17 41 17 81q0 18 -7 27q-8 11 -25 17.5t-60 6.5v37h298v-37q-37 -4 -57 -16t-44 -45q-9 -14 -34 -77l-373 -914q-54 -133 -141.5 -201t-168.5 -68q-59 0 -97 34t-38 78
q0 42 27.5 67.5t75.5 25.5q33 0 90 -22q40 -15 50 -15q30 0 65.5 31t71.5 120l65 159l-329 691q-15 31 -48 77q-25 35 -41 47q-23 16 -74 28v37zM438 1385h184l190 -331h-31l-273 213l-229 -213h-30z" />
    <glyph glyph-name="longs" unicode="&#x17f;" horiz-adv-x="569" 
d="M527 36v-36h-505v36h41q68 0 99.5 39t31.5 167v734q0 219 113.5 331.5t268.5 112.5q101 0 176 -55.5t75 -112.5q0 -31 -26.5 -57.5t-55.5 -26.5q-51 0 -110 86q-64 94 -138 94q-54 0 -88.5 -34t-42 -106.5t-7.5 -225.5v-740q0 -124 30 -165t97 -41h41z" />
    <glyph glyph-name="Aringacute" unicode="&#x1fa;" 
d="M937 454h-525l-92 -214q-34 -79 -34 -118q0 -31 29.5 -54.5t127.5 -30.5v-37h-427v37q85 15 110 39q51 48 113 195l477 1116h35l472 -1128q57 -136 103.5 -176.5t129.5 -45.5v-37h-535v37q81 4 109.5 27t28.5 56q0 44 -40 139zM909 528l-230 548l-236 -548h466zM731 1701
q80 0 136 -56t56 -135q0 -80 -56 -136t-136 -56q-79 0 -135 56t-56 136q0 79 55.5 135t135.5 56zM731 1632q-51 0 -86.5 -35.5t-35.5 -86.5q0 -50 35.5 -86t86.5 -36t86.5 36t35.5 86q0 51 -35.5 86.5t-86.5 35.5zM963 2062l-295 -345h-34l105 345h224z" />
    <glyph glyph-name="aringacute" unicode="&#x1fb;" horiz-adv-x="909" 
d="M583 132q-141 -109 -177 -126q-54 -25 -115 -25q-95 0 -156.5 65t-61.5 171q0 67 30 116q41 68 142.5 128t337.5 146v36q0 137 -43.5 188t-126.5 51q-63 0 -100 -34q-38 -34 -38 -78l2 -58q0 -46 -23.5 -71t-61.5 -25q-37 0 -60.5 26t-23.5 71q0 86 88 158t247 72
q122 0 200 -41q59 -31 87 -97q18 -43 18 -176v-311q0 -131 5 -160.5t16.5 -39.5t26.5 -10q16 0 28 7q21 13 81 73v-56q-112 -150 -214 -150q-49 0 -78 34t-30 116zM583 197v349q-151 -60 -195 -85q-79 -44 -113 -92t-34 -105q0 -72 43 -119.5t99 -47.5q76 0 200 100z
M458 1426q80 0 136 -56t56 -135q0 -80 -56 -136t-136 -56q-79 0 -135 56t-56 136q0 79 55.5 135t135.5 56zM458 1357q-51 0 -86.5 -35.5t-35.5 -86.5q0 -50 35.5 -86t86.5 -36t86.5 36t35.5 86q0 51 -35.5 86.5t-86.5 35.5zM692 1836l-295 -345h-34l105 345h224z" />
    <glyph glyph-name="AEacute" unicode="&#x1fc;" horiz-adv-x="1821" 
d="M1027 1282v-536h257q115 0 162 43t55 154h36v-471h-36q-12 100 -32.5 134.5t-68.5 55.5q-23 11 -116 11h-257v-449q0 -91 7 -108.5t29 -29.5t79 -12h182q109 0 168 18t114 70q73 68 120 179h38l-108 -341h-1018v37h51q83 0 122 49q24 32 24 153v286h-396l-124 -233
q-70 -132 -70 -173q0 -28 30.5 -51.5t126.5 -30.5v-37h-426v37q44 1 75.5 19t68.5 65t94 153l412 771q77 143 77 193q0 32 -27 50q-34 25 -146 31v37h1111l15 -298h-34q-13 103 -50 157q-27 39 -78 57q-29 10 -136 10h-331zM835 1282l-357 -684h357v684zM1135 1836
l-295 -345h-34l105 345h224z" />
    <glyph glyph-name="aeacute" unicode="&#x1fd;" horiz-adv-x="1366" 
d="M734 567q-1 -51 -1 -74q0 -201 72 -286t184 -85q97 0 176 61q50 39 107 159l32 -22q-36 -162 -155 -270q-86 -78 -215 -78q-108 0 -185 47q-36 23 -111 113q-12 -9 -55 -43q-58 -47 -78 -58q-47 -27 -100 -43t-109 -16q-94 0 -158.5 66.5t-64.5 162.5q0 87 43.5 148
t170.5 126q156 80 276 122v92q0 108 -40 152.5t-107 44.5q-66 0 -103 -32q-38 -33 -38 -73q0 -84 -8.5 -109t-26.5 -38t-45 -13q-39 0 -60 23q-30 32 -30 72q0 52 36.5 104t115 88t183.5 36q124 0 187 -35.5t83 -87.5q48 60 101 87q71 36 168 36q144 0 234.5 -97t90.5 -280
h-570zM734 632h378q-2 126 -53.5 183.5t-131.5 57.5t-135.5 -62.5t-57.5 -178.5zM610 184q-21 45 -34 117.5t-13 141.5v89q-135 -42 -248 -128q-74 -57 -74 -146q0 -79 47.5 -129t113.5 -50q39 0 82.5 20.5t125.5 84.5zM907 1390l-295 -345h-34l105 345h224z" />
    <glyph glyph-name="Oslashacute" unicode="&#x1fe;" 
d="M1147 1238l131 162l58 -44l-133 -167q104 -113 151 -229t47 -273q0 -343 -244 -555q-188 -163 -413 -163q-103 0 -216.5 37.5t-197.5 105.5l-129 -159l-59 47l132 164q-201 207 -201 528q0 294 196 494.5t472 200.5q227 0 406 -149zM1063 1135q-116 181 -327 181
q-93 0 -147 -22q-75 -30 -134 -96q-79 -88 -116 -215t-37 -286q0 -231 73 -408zM1101 1063l-685 -846q54 -82 116 -120q89 -56 198 -56q105 0 172 31.5t125.5 97.5t100.5 186t42 300q0 123 -18 228q-14 77 -51 179zM964 1836l-295 -345h-34l105 345h224z" />
    <glyph glyph-name="oslashacute" unicode="&#x1ff;" horiz-adv-x="1024" 
d="M806 832l133 147l46 -43l-135 -152q106 -135 106 -312q0 -118 -58 -244.5t-160.5 -191t-230.5 -64.5q-83 0 -147 25.5t-139 88.5l-135 -153l-47 43l141 159q-50 62 -78 152t-28 168q0 119 60.5 240t162.5 184.5t224 63.5q82 0 148.5 -26t136.5 -85zM704 719
q-51 89 -100.5 123.5t-115.5 34.5q-98 0 -163 -80t-65 -265q0 -124 39 -262zM732 654l-403 -450q51 -92 100 -126.5t118 -34.5q99 0 161.5 80t62.5 279q0 121 -39 252zM736 1390l-295 -345h-34l105 345h224z" />
    <glyph glyph-name="anoteleia" unicode="&#x387;" horiz-adv-x="569" 
d="M289 944q44 0 77.5 -31.5t33.5 -79.5q0 -46 -32.5 -78.5t-78.5 -32.5t-78.5 32.5t-32.5 78.5q0 48 33.5 79.5t77.5 31.5z" />
    <glyph glyph-name="Wgrave" unicode="&#x1e80;" horiz-adv-x="1933" 
d="M1917 1356v-37q-53 0 -86 -19t-63 -71q-20 -35 -63 -167l-378 -1093h-40l-309 867l-307 -867h-36l-403 1126q-45 126 -57 149q-20 38 -54.5 56.5t-93.5 18.5v37h502v-37h-24q-53 0 -81 -24t-28 -58q0 -35 44 -161l267 -761l225 647l-40 114l-32 91q-21 50 -47 88
q-13 19 -32 32q-25 18 -50 26q-19 6 -60 6v37h528v-37h-36q-56 0 -82 -24t-26 -65q0 -51 45 -178l260 -737l258 747q44 124 44 172q0 23 -14.5 43t-36.5 28q-38 14 -99 14v37h405zM744 1836h223l106 -345h-35z" />
    <glyph glyph-name="wgrave" unicode="&#x1e81;" 
d="M13 916h384v-37q-53 -4 -69.5 -19t-16.5 -43q0 -31 17 -75l196 -527l197 429l-52 135q-24 60 -63 83q-22 14 -82 17v37h436v-37q-72 -3 -102 -26q-20 -16 -20 -51q0 -20 8 -41l208 -526l193 507q20 54 20 86q0 19 -19.5 34t-76.5 17v37h289v-37q-87 -13 -128 -118
l-306 -789h-41l-229 585l-267 -585h-37l-294 770q-29 73 -57 98.5t-88 38.5v37zM517 1390h223l106 -345h-35z" />
    <glyph glyph-name="Wacute" unicode="&#x1e82;" horiz-adv-x="1933" 
d="M1917 1356v-37q-53 0 -86 -19t-63 -71q-20 -35 -63 -167l-378 -1093h-40l-309 867l-307 -867h-36l-403 1126q-45 126 -57 149q-20 38 -54.5 56.5t-93.5 18.5v37h502v-37h-24q-53 0 -81 -24t-28 -58q0 -35 44 -161l267 -761l225 647l-40 114l-32 91q-21 50 -47 88
q-13 19 -32 32q-25 18 -50 26q-19 6 -60 6v37h528v-37h-36q-56 0 -82 -24t-26 -65q0 -51 45 -178l260 -737l258 747q44 124 44 172q0 23 -14.5 43t-36.5 28q-38 14 -99 14v37h405zM1191 1836l-295 -345h-34l105 345h224z" />
    <glyph glyph-name="wacute" unicode="&#x1e83;" 
d="M13 916h384v-37q-53 -4 -69.5 -19t-16.5 -43q0 -31 17 -75l196 -527l197 429l-52 135q-24 60 -63 83q-22 14 -82 17v37h436v-37q-72 -3 -102 -26q-20 -16 -20 -51q0 -20 8 -41l208 -526l193 507q20 54 20 86q0 19 -19.5 34t-76.5 17v37h289v-37q-87 -13 -128 -118
l-306 -789h-41l-229 585l-267 -585h-37l-294 770q-29 73 -57 98.5t-88 38.5v37zM964 1390l-295 -345h-34l105 345h224z" />
    <glyph glyph-name="Wdieresis" unicode="&#x1e84;" horiz-adv-x="1933" 
d="M1917 1356v-37q-53 0 -86 -19t-63 -71q-20 -35 -63 -167l-378 -1093h-40l-309 867l-307 -867h-36l-403 1126q-45 126 -57 149q-20 38 -54.5 56.5t-93.5 18.5v37h502v-37h-24q-53 0 -81 -24t-28 -58q0 -35 44 -161l267 -761l225 647l-40 114l-32 91q-21 50 -47 88
q-13 19 -32 32q-25 18 -50 26q-19 6 -60 6v37h528v-37h-36q-56 0 -82 -24t-26 -65q0 -51 45 -178l260 -737l258 747q44 124 44 172q0 23 -14.5 43t-36.5 28q-38 14 -99 14v37h405zM1143 1708q45 0 76.5 -32t31.5 -77t-31.5 -76.5t-76.5 -31.5t-77 31.5t-32 76.5t32 77t77 32
zM790 1708q46 0 77.5 -32t31.5 -77t-32 -76.5t-76 -31.5q-45 0 -77 31.5t-32 76.5t31.5 77t76.5 32z" />
    <glyph glyph-name="wdieresis" unicode="&#x1e85;" 
d="M13 916h384v-37q-53 -4 -69.5 -19t-16.5 -43q0 -31 17 -75l196 -527l197 429l-52 135q-24 60 -63 83q-22 14 -82 17v37h436v-37q-72 -3 -102 -26q-20 -16 -20 -51q0 -20 8 -41l208 -526l193 507q20 54 20 86q0 19 -19.5 34t-76.5 17v37h289v-37q-87 -13 -128 -118
l-306 -789h-41l-229 585l-267 -585h-37l-294 770q-29 73 -57 98.5t-88 38.5v37zM916 1337q45 0 76.5 -32t31.5 -77t-31.5 -76.5t-76.5 -31.5t-77 31.5t-32 76.5t32 77t77 32zM563 1337q46 0 77.5 -32t31.5 -77t-32 -76.5t-76 -31.5q-45 0 -77 31.5t-32 76.5t31.5 77t76.5 32
z" />
    <glyph glyph-name="Ygrave" unicode="&#x1ef2;" 
d="M976 1356h473v-37h-26q-26 0 -76 -23t-91 -66t-101 -140l-327 -515v-340q0 -125 28 -156q38 -42 120 -42h44v-37h-576v37h48q86 0 122 52q22 32 22 146v321l-372 568q-66 100 -89.5 125t-97.5 60q-20 10 -58 10v37h580v-37h-30q-47 0 -86.5 -22t-39.5 -66q0 -36 61 -130
l283 -437l266 418q60 94 60 140q0 28 -14.5 50t-41.5 34.5t-81 12.5v37zM517 1836h223l106 -345h-35z" />
    <glyph glyph-name="ygrave" unicode="&#x1ef3;" horiz-adv-x="1024" 
d="M12 916h427v-37h-21q-45 0 -67.5 -19.5t-22.5 -48.5q0 -39 33 -108l223 -462l205 506q17 41 17 81q0 18 -7 27q-8 11 -25 17.5t-60 6.5v37h298v-37q-37 -4 -57 -16t-44 -45q-9 -14 -34 -77l-373 -914q-54 -133 -141.5 -201t-168.5 -68q-59 0 -97 34t-38 78
q0 42 27.5 67.5t75.5 25.5q33 0 90 -22q40 -15 50 -15q30 0 65.5 31t71.5 120l65 159l-329 691q-15 31 -48 77q-25 35 -41 47q-23 16 -74 28v37zM289 1390h223l106 -345h-35z" />
    <glyph glyph-name="quotereversed" unicode="&#x201b;" horiz-adv-x="682" 
d="M443 869q-115 43 -187 125t-72 196q0 83 53 140t121 57q49 0 90 -30t41 -86q0 -50 -34 -77.5t-67 -27.5q-18 0 -45 9q-18 7 -29 7q-37 0 -37 -61q0 -68 44 -114t122 -91v-47z" />
    <glyph glyph-name="uni203E" unicode="&#x203e;" horiz-adv-x="682" 
d="M-37 1247h758v-128h-758v128z" />
    <glyph glyph-name="lira" unicode="&#x20a4;" horiz-adv-x="1024" 
d="M304 563h-206v96h199l-8 95h-191v96h184q-2 42 -2 79q0 218 107 336.5t262 118.5q122 0 187.5 -66.5t65.5 -137.5q0 -32 -25 -57t-54 -25q-36 0 -54.5 27.5t-22.5 92.5q-7 111 -121 111q-93 0 -138 -71t-45 -191q0 -29 12 -217h269v-96h-263q2 -37 4 -95h259v-96h-257
q0 -153 -62 -330l179 -57q75 -24 148 -24q167 0 210 160l36 -9q-17 -145 -96.5 -236t-190.5 -91q-68 0 -124.5 24.5t-201.5 135.5q-77 -160 -186 -160q-50 0 -83.5 35t-33.5 94q0 74 49.5 115t114.5 41q32 0 85 -8q3 64 3 102q0 58 -9 208zM298 172q-44 28 -85 28
q-95 0 -95 -89q0 -35 19 -56t46 -21q80 0 115 138z" />
    <glyph glyph-name="estimated" unicode="&#x212e;" horiz-adv-x="1229" 
d="M321 531v-371q128 -121 298 -121q254 0 395 246l72 -43q-101 -142 -204.5 -209t-262.5 -67q-237 0 -383 160t-146 405q0 247 147 406t382 159q214 0 366 -142t163 -423h-827zM917 605v297q-128 121 -300 121q-175 0 -296 -122v-296h596z" />
    <glyph glyph-name="tonos" unicode="&#x384;" horiz-adv-x="682" 
d="M565 1390l-295 -345h-34l105 345h224z" />
    <glyph glyph-name="dieresistonos" unicode="&#x385;" horiz-adv-x="682" 
d="M557 1390l-294 -345h-34l105 345h223zM596 1262q45 0 76.5 -32t31.5 -77q0 -44 -32 -76t-76 -32q-45 0 -77 31.5t-32 76.5t32 77t77 32zM86 1262q45 0 77 -31.5t32 -77.5q0 -45 -32 -76.5t-77 -31.5q-44 0 -76 31.5t-32 76.5t32 77t76 32z" />
    <glyph glyph-name="Alphatonos" unicode="&#x386;" 
d="M937 454h-525l-92 -214q-34 -79 -34 -118q0 -31 29.5 -54.5t127.5 -30.5v-37h-427v37q85 15 110 39q51 48 113 195l477 1116h35l472 -1128q57 -136 103.5 -176.5t129.5 -45.5v-37h-535v37q81 4 109.5 27t28.5 56q0 44 -40 139zM909 528l-230 548l-236 -548h466zM495 1390
l-295 -345h-34l105 345h224z" />
    <glyph glyph-name="Epsilontonos" unicode="&#x388;" horiz-adv-x="1421" 
d="M165 1390l-295 -345h-34l105 345h224zM598 1282v-536h298q116 0 161.5 41t50.5 156h37v-472h-37q-13 132 -60 167t-152 35h-298v-447q0 -104 19.5 -128t91.5 -24h230q117 0 172 17.5t109.5 76.5t112.5 172h40l-117 -340h-1044v37h48q46 0 82.5 18t50 48.5t13.5 135.5v881
q0 125 -28.5 162t-117.5 37h-48v37h1044l16 -297h-39q-27 140 -77.5 181.5t-185.5 41.5h-372z" />
    <glyph glyph-name="Etatonos" unicode="&#x389;" horiz-adv-x="1655" 
d="M165 1390l-295 -345h-34l105 345h224zM598 727h629v388q0 95 -9.5 127t-47 54.5t-88.5 22.5h-49v37h581v-37h-49q-46 0 -82.5 -18.5t-50 -49t-13.5 -136.5v-875q0 -95 10 -126.5t47.5 -54t88.5 -22.5h49v-37h-581v37h49q46 0 82 18.5t49.5 48.5t13.5 136v413h-629v-413
q0 -95 9.5 -126.5t47 -54t89.5 -22.5h48v-37h-580v37h48q46 0 82.5 18.5t50 48.5t13.5 136v875q0 95 -10 127t-47 54.5t-89 22.5h-48v37h580v-37h-48q-46 0 -82.5 -18.5t-50 -49t-13.5 -136.5v-388z" />
    <glyph glyph-name="Iotatonos" unicode="&#x38a;" horiz-adv-x="842" 
d="M165 1390l-295 -345h-34l105 345h224zM792 37v-37h-580v37h40q57 0 93.5 20t48.5 52t12 131v876q0 97 -13 132t-49.5 53t-101.5 18h-30v37h580v-37h-30q-63 0 -100 -18t-50.5 -52.5t-13.5 -132.5v-876q0 -121 31 -162t133 -41h30z" />
    <glyph glyph-name="Omicrontonos" unicode="&#x38c;" 
d="M749 1387q264 0 457.5 -200.5t193.5 -500.5q0 -309 -195 -513t-472 -204q-280 0 -470.5 199t-190.5 515q0 323 220 527q191 177 457 177zM730 1314q-182 0 -292 -135q-137 -168 -137 -492q0 -332 142 -511q109 -136 288 -136q191 0 315.5 149t124.5 470q0 348 -137 519
q-110 136 -304 136zM255 1390l-295 -345h-34l105 345h224z" />
    <glyph glyph-name="Upsilontonos" unicode="&#x38e;" horiz-adv-x="1671" 
d="M165 1390l-295 -345h-34l105 345h224zM1168 1356h474v-37h-26q-126 0 -269 -229l-326 -515v-340q0 -127 34 -162.5t113 -35.5h45v-37h-576v37h47q85 0 115 41t30 157v321l-373 568q-62 95 -81.5 117t-70.5 50t-92 28v37h579v-37h-30q-48 0 -87 -22t-39 -66q0 -36 62 -130
l283 -437l265 418q60 94 60 139q0 98 -137 98v37z" />
    <glyph glyph-name="Omegatonos" unicode="&#x38f;" horiz-adv-x="1522" 
d="M60 313h37q4 -71 42 -99t121 -28h273l-2 67q-159 32 -290 177t-131 366q0 245 182.5 418t476.5 173q285 0 466 -163.5t181 -418.5q0 -207 -112.5 -351.5t-304.5 -200.5l-10 -67h278q95 0 125.5 36t32.5 91h37v-313h-560l26 302q258 81 258 477q0 259 -126.5 397
t-296.5 138q-181 0 -299.5 -146.5t-118.5 -374.5q0 -165 53 -300.5t203 -190.5l19 -302h-560v313zM252 1390l-295 -345h-34l105 345h224z" />
    <glyph glyph-name="iotadieresistonos" unicode="&#x390;" horiz-adv-x="551" 
d="M524 199h36q-19 -227 -192 -227q-61 0 -104.5 33.5t-58 76t-14.5 147.5v331q0 160 -12 205t-60 45q-28 0 -68 -15l-14 36l276 112h44v-722q0 -89 17 -122t62 -33q68 0 88 133zM500 1390l-294 -345h-34l105 345h223zM539 1262q45 0 76.5 -32t31.5 -77q0 -44 -32 -76
t-76 -32q-45 0 -77 31.5t-32 76.5t32 77t77 32zM29 1262q45 0 77 -31.5t32 -77.5q0 -45 -32 -76.5t-77 -31.5q-44 0 -76 31.5t-32 76.5t32 77t76 32z" />
    <glyph glyph-name="Alpha" unicode="&#x391;" 
d="M937 454h-525l-92 -214q-34 -79 -34 -118q0 -31 29.5 -54.5t127.5 -30.5v-37h-427v37q85 15 110 39q51 48 113 195l477 1116h35l472 -1128q57 -136 103.5 -176.5t129.5 -45.5v-37h-535v37q81 4 109.5 27t28.5 56q0 44 -40 139zM909 528l-230 548l-236 -548h466z" />
    <glyph glyph-name="Beta" unicode="&#x392;" horiz-adv-x="1366" 
d="M946 692q141 -30 211 -96q97 -92 97 -225q0 -101 -64 -193.5t-175.5 -135t-340.5 -42.5h-640v37h51q85 0 122 54q23 35 23 149v876q0 126 -29 159q-39 44 -116 44h-51v37h586q164 0 263 -24q150 -36 229 -127.5t79 -210.5q0 -102 -62 -182.5t-183 -119.5zM422 746
q37 -7 84.5 -10.5t104.5 -3.5q146 0 219.5 31.5t112.5 96.5t39 142q0 119 -97 203t-283 84q-100 0 -180 -22v-521zM422 98q116 -27 229 -27q181 0 276 81.5t95 201.5q0 79 -43 152t-140 115t-240 42q-62 0 -106 -2t-71 -7v-556z" />
    <glyph glyph-name="uni0394" unicode="&#x394;" horiz-adv-x="1317" 
d="M50 0l608 1387h34l574 -1387h-1216zM1027 85l-405 996l-438 -996h843z" />
    <glyph glyph-name="Epsilon" unicode="&#x395;" horiz-adv-x="1251" 
d="M428 1282v-536h298q116 0 155 35q52 46 58 162h37v-472h-37q-14 99 -28 127q-18 35 -59 55t-126 20h-298v-447q0 -90 8 -109.5t28 -31t76 -11.5h230q115 0 167 16t100 63q62 62 127 187h40l-117 -340h-1045v37h48q48 0 91 23q32 16 43.5 48t11.5 131v881q0 129 -26 159
q-36 40 -120 40h-48v37h1045l15 -297h-39q-21 107 -46.5 147t-75.5 61q-40 15 -141 15h-372z" />
    <glyph glyph-name="Zeta" unicode="&#x396;" horiz-adv-x="1251" 
d="M1178 1356l-891 -1274h556q128 0 196.5 56t121.5 227l33 -6l-64 -359h-1104v37l870 1238h-434q-108 0 -156.5 -23.5t-74 -68t-46.5 -166.5h-38l28 339h1003z" />
    <glyph glyph-name="Eta" unicode="&#x397;" 
d="M421 727h630v388q0 104 -13 137q-10 25 -42 43q-43 24 -91 24h-48v37h580v-37h-48q-48 0 -91 -23q-32 -16 -43.5 -48.5t-11.5 -132.5v-875q0 -103 13 -136q10 -25 41 -43q44 -24 92 -24h48v-37h-580v37h48q83 0 121 49q25 32 25 154v413h-630v-413q0 -103 13 -136
q10 -25 42 -43q43 -24 91 -24h49v-37h-581v37h48q84 0 122 49q24 32 24 154v875q0 104 -13 137q-10 25 -41 43q-44 24 -92 24h-48v37h581v-37h-49q-48 0 -91 -23q-31 -16 -43 -48.5t-12 -132.5v-388z" />
    <glyph glyph-name="Iota" unicode="&#x399;" horiz-adv-x="682" 
d="M632 37v-37h-581v37h48q84 0 122 49q24 32 24 154v876q0 103 -13 136q-10 25 -41 43q-44 24 -92 24h-48v37h581v-37h-49q-83 0 -121 -49q-25 -32 -25 -154v-876q0 -103 13 -136q10 -25 42 -43q43 -24 91 -24h49z" />
    <glyph glyph-name="Kappa" unicode="&#x39a;" 
d="M612 752l500 -497q123 -123 210 -167.5t174 -50.5v-37h-645v37q58 0 83.5 19.5t25.5 43.5t-9.5 43t-62.5 71l-468 463v-437q0 -103 13 -136q10 -25 42 -43q43 -24 91 -24h46v-37h-578v37h48q84 0 122 49q24 32 24 154v876q0 103 -13 137q-10 24 -41 42q-44 24 -92 24h-48
v37h578v-37h-46q-47 0 -91 -23q-31 -16 -43 -48t-12 -132v-415q20 19 137 127q297 272 359 363q27 40 27 70q0 23 -21 40.5t-71 17.5h-31v37h498v-37q-44 -1 -80 -12t-88 -42.5t-128 -101.5q-22 -20 -203 -205z" />
    <glyph glyph-name="Lambda" unicode="&#x39b;" horiz-adv-x="1485" 
d="M28 0v37q77 12 118 50t86 146l473 1154h37l504 -1160q51 -118 88 -152.5t130 -37.5v-37h-553v37q95 8 122.5 32t27.5 62q0 47 -46 153l-345 795l-320 -785q-45 -109 -45 -160q0 -42 28 -66.5t113 -30.5v-37h-418z" />
    <glyph glyph-name="Mu" unicode="&#x39c;" horiz-adv-x="1821" 
d="M838 0l-524 1141v-906q0 -125 27 -156q37 -42 117 -42h48v-37h-472v37h48q86 0 122 52q22 32 22 146v886q0 90 -20 130q-14 29 -51.5 48.5t-120.5 19.5v37h384l492 -1061l484 1061h384v-37h-47q-87 0 -123 -52q-22 -32 -22 -146v-886q0 -125 28 -156q37 -42 117 -42h47
v-37h-576v37h48q87 0 122 52q22 32 22 146v906l-523 -1141h-33z" />
    <glyph glyph-name="Nu" unicode="&#x39d;" 
d="M-27 1356h368l829 -1017v782q0 125 -28 156q-37 42 -117 42h-47v37h472v-37h-48q-86 0 -122 -52q-22 -32 -22 -146v-1143h-36l-894 1092v-835q0 -125 27 -156q38 -42 117 -42h48v-37h-472v37h47q87 0 123 52q22 32 22 146v943q-59 69 -89.5 91t-89.5 41q-29 9 -88 9v37z
" />
    <glyph glyph-name="Xi" unicode="&#x39e;" horiz-adv-x="1317" 
d="M121 1356h1075v-331h-38q-6 82 -54 119.5t-151 37.5h-595q-191 0 -199 -157h-38v331zM305 899h38q0 -92 44 -119t141 -27h261q99 0 142 27t43 119h37v-449h-37q0 80 -36.5 113.5t-148.5 33.5h-261q-116 0 -150.5 -35t-34.5 -112h-38v449zM79 381h37v-24q0 -76 25.5 -115
t65.5 -51.5t128 -12.5h658q109 0 158 37t49 142v24h38v-381h-1159v381z" />
    <glyph glyph-name="Omicron" unicode="&#x39f;" 
d="M749 1387q264 0 457.5 -200.5t193.5 -500.5q0 -309 -195 -513t-472 -204q-280 0 -470.5 199t-190.5 515q0 323 220 527q191 177 457 177zM730 1314q-182 0 -292 -135q-137 -168 -137 -492q0 -332 142 -511q109 -136 288 -136q191 0 315.5 149t124.5 470q0 348 -137 519
q-110 136 -304 136z" />
    <glyph glyph-name="Pi" unicode="&#x3a0;" 
d="M1054 1282h-629v-1035q0 -134 34.5 -170t161.5 -40v-37h-584v37q126 4 161 40t35 170v862q0 134 -35 170t-161 40v37h1405v-37q-126 -4 -161 -40t-35 -170v-862q0 -134 35 -170t161 -40v-37h-583v37q125 4 160 39.5t35 170.5v1035z" />
    <glyph glyph-name="Rho" unicode="&#x3a1;" horiz-adv-x="1139" 
d="M420 635v-395q0 -128 28 -159q38 -44 115 -44h52v-37h-581v37h51q86 0 123 56q20 31 20 147v876q0 128 -27 159q-39 44 -116 44h-51v37h497q182 0 287 -37.5t177 -126.5t72 -211q0 -166 -109.5 -270t-309.5 -104q-49 0 -106 7t-122 21zM420 692q53 -10 94 -15t70 -5
q104 0 179.5 80.5t75.5 208.5q0 88 -36 163.5t-102 113t-150 37.5q-51 0 -131 -19v-564z" />
    <glyph glyph-name="Sigma" unicode="&#x3a3;" horiz-adv-x="1192" 
d="M32 1356h1017l27 -341h-38q-7 101 -34 154.5t-74 77.5t-149 24h-463l413 -530l-470 -555h515q140 0 214 45t111 188l38 -9l-58 -410h-1049v36l522 616l-522 668v36z" />
    <glyph glyph-name="Tau" unicode="&#x3a4;" horiz-adv-x="1251" 
d="M1185 1356l15 -318h-38q-11 84 -30 120q-31 58 -82.5 85.5t-135.5 27.5h-191v-1036q0 -125 27 -156q38 -42 117 -42h47v-37h-575v37h48q86 0 122 52q22 32 22 146v1036h-163q-95 0 -135 -14q-52 -19 -89 -73t-44 -146h-38l16 318h1107z" />
    <glyph glyph-name="Upsilon" unicode="&#x3a5;" 
d="M976 1356h473v-37h-26q-26 0 -76 -23t-91 -66t-101 -140l-327 -515v-340q0 -125 28 -156q38 -42 120 -42h44v-37h-576v37h48q86 0 122 52q22 32 22 146v321l-372 568q-66 100 -89.5 125t-97.5 60q-20 10 -58 10v37h580v-37h-30q-47 0 -86.5 -22t-39.5 -66q0 -36 61 -130
l283 -437l266 418q60 94 60 140q0 28 -14.5 50t-41.5 34.5t-81 12.5v37z" />
    <glyph glyph-name="Chi" unicode="&#x3a7;" 
d="M836 751l291 -434q121 -180 179.5 -227.5t148.5 -52.5v-37h-582v37q58 1 86 12q21 9 34.5 27.5t13.5 37.5q0 23 -9 46q-7 17 -55 88l-230 348l-284 -364q-45 -58 -54 -77.5t-9 -40.5q0 -32 27 -53t103 -24v-37h-481v37q51 5 88 21q62 26 118 70t128 135l320 404l-267 391
q-109 159 -185 208.5t-175 52.5v37h627v-37q-80 -3 -109.5 -26t-29.5 -51q0 -37 48 -108l208 -311l241 305q42 54 51.5 74t9.5 41t-12 37q-15 21 -38 29.5t-95 9.5v37h481v-37q-57 -3 -93 -18q-54 -23 -99 -62t-127 -144z" />
    <glyph glyph-name="Psi" unicode="&#x3a8;" horiz-adv-x="1511" 
d="M852 656q136 0 206.5 46t94 112t30.5 220q7 171 76.5 254.5t228.5 83.5v-38q-57 -4 -77.5 -44.5t-20.5 -171.5q0 -192 -40.5 -296.5t-162.5 -169.5t-335 -70v-317q0 -117 13.5 -151.5t57 -55.5t134.5 -21v-37h-602v37q89 1 132.5 19.5t58 54t14.5 154.5v317
q-215 5 -334 69t-161.5 167.5t-42.5 300.5q0 126 -19 167.5t-79 47.5v38q101 -2 163 -32t99.5 -106t42.5 -200q7 -153 29.5 -219t94.5 -112.5t207 -46.5v436q0 117 -13.5 151.5t-56.5 54.5t-135 21v37h602v-37q-92 -1 -135 -20.5t-56.5 -54.5t-13.5 -152v-436z" />
    <glyph glyph-name="uni03A9" unicode="&#x3a9;" horiz-adv-x="1522" 
d="M60 313h37q4 -71 42 -99t121 -28h273l-2 67q-159 32 -290 177t-131 366q0 245 182.5 418t476.5 173q285 0 466 -163.5t181 -418.5q0 -207 -112.5 -351.5t-304.5 -200.5l-10 -67h278q95 0 125.5 36t32.5 91h37v-313h-560l26 302q258 81 258 477q0 259 -126.5 397
t-296.5 138q-181 0 -299.5 -146.5t-118.5 -374.5q0 -165 53 -300.5t203 -190.5l19 -302h-560v313z" />
    <glyph glyph-name="Iotadieresis" unicode="&#x3aa;" horiz-adv-x="682" 
d="M632 37v-37h-581v37h48q84 0 122 49q24 32 24 154v876q0 103 -13 136q-10 25 -41 43q-44 24 -92 24h-48v37h581v-37h-49q-83 0 -121 -49q-25 -32 -25 -154v-876q0 -103 13 -136q10 -25 42 -43q43 -24 91 -24h49zM517 1708q45 0 76.5 -32t31.5 -77t-31.5 -76.5
t-76.5 -31.5t-77 31.5t-32 76.5t32 77t77 32zM164 1708q46 0 77.5 -32t31.5 -77t-32 -76.5t-76 -31.5q-45 0 -77 31.5t-32 76.5t31.5 77t76.5 32z" />
    <glyph glyph-name="Upsilondieresis" unicode="&#x3ab;" 
d="M976 1356h473v-37h-26q-26 0 -76 -23t-91 -66t-101 -140l-327 -515v-340q0 -125 28 -156q38 -42 120 -42h44v-37h-576v37h48q86 0 122 52q22 32 22 146v321l-372 568q-66 100 -89.5 125t-97.5 60q-20 10 -58 10v37h580v-37h-30q-47 0 -86.5 -22t-39.5 -66q0 -36 61 -130
l283 -437l266 418q60 94 60 140q0 28 -14.5 50t-41.5 34.5t-81 12.5v37zM936 1708q45 0 76.5 -32t31.5 -77t-31.5 -76.5t-76.5 -31.5t-77 31.5t-32 76.5t32 77t77 32zM583 1708q46 0 77.5 -32t31.5 -77t-32 -76.5t-76 -31.5q-45 0 -77 31.5t-32 76.5t31.5 77t76.5 32z" />
    <glyph glyph-name="alphatonos" unicode="&#x3ac;" horiz-adv-x="1073" 
d="M788 916h170l-103 -463q-30 -132 -41 -162q40 -184 116 -184q90 0 93 124h36q-3 -116 -42.5 -187.5t-103.5 -71.5q-53 0 -79 43t-56 176q-104 -219 -340 -219q-161 0 -256 125.5t-95 359.5q0 230 104 358t250 128q103 0 169 -73t117 -238zM700 524q-47 161 -105 251.5
t-139 90.5q-183 0 -183 -428q0 -406 175 -406q152 0 225 358zM748 1390l-295 -345h-34l105 345h224z" />
    <glyph glyph-name="epsilontonos" unicode="&#x3ad;" horiz-adv-x="860" 
d="M316 485q-197 70 -197 212q0 112 104.5 179t259.5 67q141 0 224 -46.5t83 -111.5q0 -34 -26 -59.5t-60 -25.5q-56 0 -92 78q-50 108 -150 108q-79 0 -130 -52t-51 -145q0 -183 189 -183q20 0 46 4q45 6 70 6q61 0 61 -35q0 -39 -62 -39q-22 0 -66 7q-33 6 -51 6
q-200 0 -200 -204q0 -99 53 -159.5t148 -60.5q119 0 158 123q20 65 44.5 90t65.5 25q34 0 61.5 -24.5t27.5 -62.5q0 -91 -102 -150.5t-247 -59.5q-159 0 -282.5 76t-123.5 203q0 159 245 234zM705 1390l-295 -345h-34l105 345h224z" />
    <glyph glyph-name="etatonos" unicode="&#x3ae;" horiz-adv-x="1071" 
d="M380 746q157 197 308 197q236 0 236 -347v-742q0 -190 38 -292h-169q-34 94 -34 344v712q0 103 -32 152.5t-112 49.5q-120 0 -235 -133v-687h-165v687q0 93 -18.5 128t-62.5 35q-71 0 -87 -140h-36q19 233 192 233q77 0 126 -53.5t51 -143.5zM760 1390l-295 -345h-34
l105 345h224z" />
    <glyph glyph-name="iotatonos" unicode="&#x3af;" horiz-adv-x="551" 
d="M524 199h36q-19 -227 -192 -227q-61 0 -104.5 33.5t-58 76t-14.5 147.5v331q0 160 -12 205t-60 45q-28 0 -68 -15l-14 36l276 112h44v-722q0 -89 17 -122t62 -33q68 0 88 133zM508 1390l-295 -345h-34l105 345h224z" />
    <glyph glyph-name="upsilondieresistonos" unicode="&#x3b0;" horiz-adv-x="1014" 
d="M582 943q181 -22 267.5 -153t86.5 -303q0 -211 -126 -363t-301 -152q-97 0 -177 52.5t-107 127.5t-27 211v331q0 90 -17 123t-63 33q-67 0 -88 -134h-36q13 227 195 227q62 0 102.5 -32t56 -73.5t15.5 -151.5v-336q0 -118 13.5 -177.5t61 -97.5t104.5 -38q96 0 155 111.5
t59 336.5q0 201 -44 296.5t-136 125.5zM723 1390l-294 -345h-34l105 345h223zM762 1262q45 0 76.5 -32t31.5 -77q0 -44 -32 -76t-76 -32q-45 0 -77 31.5t-32 76.5t32 77t77 32zM252 1262q45 0 77 -31.5t32 -77.5q0 -45 -32 -76.5t-77 -31.5q-44 0 -76 31.5t-32 76.5t32 77
t76 32z" />
    <glyph glyph-name="beta" unicode="&#x3b2;" horiz-adv-x="1042" 
d="M275 -438h-165q36 169 36 306v1089q0 170 30.5 253t119 146.5t221.5 63.5q158 0 265.5 -83.5t107.5 -237.5q0 -180 -171 -295q255 -120 255 -377q0 -140 -67.5 -250.5t-156 -157.5t-211.5 -47q-140 0 -228 105v-186q0 -192 -36 -329zM311 167q78 -129 218 -129
q135 0 198 98.5t63 239.5q0 108 -41.5 220.5t-106.5 171.5q-60 -15 -108 -15q-101 0 -101 53q0 48 85 48q53 0 132 -24q71 120 71 261q0 126 -55.5 193t-144.5 67q-71 0 -121.5 -40t-69.5 -95.5t-19 -181.5v-867z" />
    <glyph glyph-name="gamma" unicode="&#x3b3;" horiz-adv-x="905" 
d="M681 916h206l-401 -841q15 -135 15 -236q0 -281 -105 -281q-76 0 -76 118q0 154 112 386q-22 144 -61.5 347t-81 291t-118.5 88q-126 0 -135 -188h-36q0 330 196 330q113 0 168 -133.5t113 -580.5z" />
    <glyph glyph-name="zeta" unicode="&#x3b6;" horiz-adv-x="848" 
d="M354 1415l16 -36q-99 -41 -99 -117q0 -53 36.5 -81t83.5 -28q5 0 15 1q72 76 174 145t162 69q46 0 46 -37q0 -66 -94 -130.5t-261 -90.5q-270 -277 -270 -651q0 -154 61 -230.5t216 -76.5q17 0 78 4q69 3 94 3q117 0 168.5 -76t51.5 -184q0 -158 -80 -249.5t-219 -91.5
q-131 0 -131 88q0 69 70 69q20 0 75 -17q46 -15 82 -15q62 0 98.5 48.5t36.5 109.5q0 68 -40 99t-132 31q-21 0 -102 -6q-37 -2 -61 -2q-359 0 -359 436q0 402 292 711q-75 2 -124.5 39t-49.5 107q0 115 166 159z" />
    <glyph glyph-name="eta" unicode="&#x3b7;" horiz-adv-x="1071" 
d="M380 746q157 197 308 197q236 0 236 -347v-742q0 -190 38 -292h-169q-34 94 -34 344v712q0 103 -32 152.5t-112 49.5q-120 0 -235 -133v-687h-165v687q0 93 -18.5 128t-62.5 35q-71 0 -87 -140h-36q19 233 192 233q77 0 126 -53.5t51 -143.5z" />
    <glyph glyph-name="theta" unicode="&#x3b8;" horiz-adv-x="981" 
d="M500 1420q169 0 285 -197.5t116 -514.5q0 -342 -125 -539t-289 -197q-161 0 -283.5 191.5t-122.5 519.5q0 329 121.5 533t297.5 204zM715 730q0 632 -222 632q-228 0 -228 -632h450zM265 668q0 -327 61 -482.5t164 -155.5q223 0 225 638h-450z" />
    <glyph glyph-name="iota" unicode="&#x3b9;" horiz-adv-x="551" 
d="M524 199h36q-19 -227 -192 -227q-61 0 -104.5 33.5t-58 76t-14.5 147.5v331q0 160 -12 205t-60 45q-28 0 -68 -15l-14 36l276 112h44v-722q0 -89 17 -122t62 -33q68 0 88 133z" />
    <glyph glyph-name="kappa" unicode="&#x3ba;" horiz-adv-x="1032" 
d="M341 943v-437l260 275q155 162 291 162q53 0 85.5 -25t32.5 -65q0 -39 -25.5 -62t-58.5 -23q-29 0 -77 26t-74 26q-52 0 -115 -68l-175 -189l330 -414q86 -108 228 -112v-37h-324l-378 491v-491h-166v560q0 165 -13 207.5t-59 42.5q-28 0 -68 -15l-14 36l276 112h44z" />
    <glyph glyph-name="lambda" unicode="&#x3bb;" horiz-adv-x="993" 
d="M967 288h36q0 -158 -51.5 -230t-128.5 -72q-63 0 -121 47.5t-104 254.5l-86 388l-298 -676h-189l428 922q-34 179 -82 265t-119 86q-57 0 -99.5 -43.5t-47.5 -134.5h-36q3 147 59 235.5t140 88.5q54 0 102.5 -44.5t84 -152t110.5 -445.5l71 -317q43 -197 90.5 -263.5
t113.5 -66.5q112 0 127 158z" />
    <glyph glyph-name="uni03BC" unicode="&#x3bc;" horiz-adv-x="1098" 
d="M728 166q-181 -194 -315 -194q-86 0 -160 66v-53q0 -92 28 -185q32 -103 32 -136q0 -46 -29 -76t-72 -30q-44 0 -70 35t-26 84q0 36 26 130q30 104 30 202v907h165v-593q0 -90 15.5 -132t55 -68.5t89.5 -26.5q89 0 231 122v698h166v-695q0 -88 18 -121.5t61 -33.5
q68 0 88 133h36q-19 -227 -192 -227q-75 0 -124.5 50.5t-52.5 143.5z" />
    <glyph glyph-name="nu" unicode="&#x3bd;" horiz-adv-x="926" 
d="M413 -28l-221 656q-22 65 -58 128t-99 63q-30 0 -66 -13l-14 35l249 102h44l263 -769l163 333q45 90 45 141q0 41 -17 115q-13 54 -13 81q0 99 107 99q95 0 95 -90q0 -89 -132 -340l-286 -541h-60z" />
    <glyph glyph-name="xi" unicode="&#x3be;" horiz-adv-x="913" 
d="M364 1419v-38q-98 -14 -98 -86q0 -78 112 -100q64 69 151 121.5t155 52.5q51 0 51 -46q0 -61 -100 -120t-239 -61q-82 -83 -82 -176q0 -98 96 -161q144 79 304 79q110 0 110 -55q0 -37 -58 -63t-167 -26q-91 0 -177 13q-263 -168 -263 -381q0 -94 66 -156t214 -62
q26 0 70 3q115 9 155 9q121 0 176 -78t55 -195q0 -164 -90 -249.5t-203 -85.5q-60 0 -99 24.5t-39 66.5q0 30 20.5 48t46.5 18q18 0 51 -11q62 -20 99 -20q68 0 107 47t39 118q0 50 -30 88.5t-98 38.5q-30 0 -72 -2q-125 -7 -167 -7q-178 0 -284 104t-106 267q0 256 282 429
q-102 81 -102 185q0 98 86 195q-143 36 -143 146q0 123 171 126z" />
    <glyph glyph-name="omicron" unicode="&#x3bf;" horiz-adv-x="1024" 
d="M512 943q208 0 334 -158q107 -135 107 -310q0 -123 -59 -249t-162.5 -190t-230.5 -64q-207 0 -329 165q-103 139 -103 312q0 126 62.5 250.5t164.5 184t216 59.5zM481 878q-53 0 -106.5 -31.5t-86.5 -110.5t-33 -203q0 -200 79.5 -345t209.5 -145q97 0 160 80t63 275
q0 244 -105 384q-71 96 -181 96z" />
    <glyph glyph-name="rho" unicode="&#x3c1;" horiz-adv-x="1022" 
d="M260 -438h-171q37 115 37 348v564q0 239 135 354t298 115q177 0 285 -121.5t108 -318.5q0 -215 -134 -373t-306 -158q-116 0 -221 74v-131q0 -209 -31 -353zM291 278q0 -121 64 -184.5t163 -63.5q117 0 195.5 100.5t78.5 265.5q0 209 -107 331t-238 122
q-89 0 -122.5 -55.5t-33.5 -180.5v-335z" />
    <glyph glyph-name="sigma1" unicode="&#x3c2;" horiz-adv-x="811" 
d="M70 358q0 246 149.5 415.5t354.5 169.5q97 0 147 -33.5t50 -82.5q0 -30 -22.5 -50t-50.5 -20q-37 0 -107 26q-82 30 -136 30q-143 0 -225 -120.5t-82 -287.5q0 -122 62.5 -185t214.5 -63q43 0 91 2q41 1 53 1q112 0 162.5 -71.5t50.5 -183.5q0 -155 -83.5 -251
t-216.5 -96t-133 89q0 65 64 65q22 0 98 -21q34 -10 56 -10q48 0 95.5 43t47.5 129q0 123 -110 123q-20 0 -48 -2q-84 -7 -123 -7q-159 0 -259 104.5t-100 286.5z" />
    <glyph glyph-name="upsilon" unicode="&#x3c5;" horiz-adv-x="1014" 
d="M582 943q181 -22 267.5 -153t86.5 -303q0 -211 -126 -363t-301 -152q-97 0 -177 52.5t-107 127.5t-27 211v331q0 90 -17 123t-63 33q-67 0 -88 -134h-36q13 227 195 227q62 0 102.5 -32t56 -73.5t15.5 -151.5v-336q0 -118 13.5 -177.5t61 -97.5t104.5 -38q96 0 155 111.5
t59 336.5q0 201 -44 296.5t-136 125.5z" />
    <glyph glyph-name="chi" unicode="&#x3c7;" horiz-adv-x="909" 
d="M718 916h175l-364 -716l66 -279q33 -139 76.5 -176t105.5 -37q146 0 156 170h37q-2 -149 -58 -234.5t-151 -85.5q-83 0 -132 53t-87 210l-66 278l-267 -537h-175l387 769l-56 236q-31 129 -62 174.5t-97 45.5q-117 0 -145 -178h-37q0 140 48.5 230.5t144.5 90.5
q83 0 124.5 -61t79.5 -221l52 -216z" />
    <glyph glyph-name="psi" unicode="&#x3c8;" horiz-adv-x="1282" 
d="M695 32q106 31 151.5 119.5t71.5 343.5q22 209 38.5 279.5t65.5 113t129 42.5q47 0 102 -14v-38q-11 1 -19 1q-43 0 -73 -52t-52 -260q-21 -185 -46.5 -263.5t-82 -154t-124.5 -113.5t-161 -57v-417h-109v417q-97 20 -167 61t-122.5 115.5t-78 152t-47.5 275.5
q-21 194 -51 245t-72 51q-9 0 -20 -1v38q55 14 102 14q79 0 128 -42.5t67.5 -113t34.5 -252.5q27 -298 78.5 -380t147.5 -110v898h109v-898z" />
    <glyph glyph-name="omega" unicode="&#x3c9;" horiz-adv-x="1348" 
d="M675 170q-87 -198 -266 -198q-125 0 -229.5 115.5t-104.5 332.5q0 178 62.5 290.5t163.5 172.5t269 60v-37q-148 0 -230 -122t-82 -346q0 -227 53.5 -311t126.5 -84q47 0 91.5 29t62.5 61.5t55 133.5q-63 132 -63 279q0 223 91 223t91 -206q0 -142 -66 -296
q72 -224 206 -224q75 0 129.5 78.5t54.5 296.5q0 182 -35.5 278.5t-105.5 151t-171 58.5v37q168 0 269 -61t163 -172t62 -287q0 -220 -100.5 -335.5t-234.5 -115.5q-184 0 -262 198z" />
    <glyph glyph-name="iotadieresis" unicode="&#x3ca;" horiz-adv-x="551" 
d="M524 199h36q-19 -227 -192 -227q-61 0 -104.5 33.5t-58 76t-14.5 147.5v331q0 160 -12 205t-60 45q-28 0 -68 -15l-14 36l276 112h44v-722q0 -89 17 -122t62 -33q68 0 88 133zM451 1262q45 0 76.5 -32t31.5 -77t-31.5 -76.5t-76.5 -31.5t-77 31.5t-32 76.5t32 77t77 32z
M98 1262q46 0 77.5 -32t31.5 -77t-32 -76.5t-76 -31.5q-45 0 -77 31.5t-32 76.5t31.5 77t76.5 32z" />
    <glyph glyph-name="upsilondieresis" unicode="&#x3cb;" horiz-adv-x="1014" 
d="M582 943q181 -22 267.5 -153t86.5 -303q0 -211 -126 -363t-301 -152q-97 0 -177 52.5t-107 127.5t-27 211v331q0 90 -17 123t-63 33q-67 0 -88 -134h-36q13 227 195 227q62 0 102.5 -32t56 -73.5t15.5 -151.5v-336q0 -118 13.5 -177.5t61 -97.5t104.5 -38q96 0 155 111.5
t59 336.5q0 201 -44 296.5t-136 125.5zM664 1262q45 0 76.5 -32t31.5 -77t-31.5 -76.5t-76.5 -31.5t-77 31.5t-32 76.5t32 77t77 32zM311 1262q46 0 77.5 -32t31.5 -77t-32 -76.5t-76 -31.5q-45 0 -77 31.5t-32 76.5t31.5 77t76.5 32z" />
    <glyph glyph-name="omicrontonos" unicode="&#x3cc;" horiz-adv-x="1024" 
d="M512 943q208 0 334 -158q107 -135 107 -310q0 -123 -59 -249t-162.5 -190t-230.5 -64q-207 0 -329 165q-103 139 -103 312q0 126 62.5 250.5t164.5 184t216 59.5zM481 878q-53 0 -106.5 -31.5t-86.5 -110.5t-33 -203q0 -200 79.5 -345t209.5 -145q97 0 160 80t63 275
q0 244 -105 384q-71 96 -181 96zM723 1390l-295 -345h-34l105 345h224z" />
    <glyph glyph-name="upsilontonos" unicode="&#x3cd;" horiz-adv-x="1014" 
d="M582 943q181 -22 267.5 -153t86.5 -303q0 -211 -126 -363t-301 -152q-97 0 -177 52.5t-107 127.5t-27 211v331q0 90 -17 123t-63 33q-67 0 -88 -134h-36q13 227 195 227q62 0 102.5 -32t56 -73.5t15.5 -151.5v-336q0 -118 13.5 -177.5t61 -97.5t104.5 -38q96 0 155 111.5
t59 336.5q0 201 -44 296.5t-136 125.5zM723 1390l-295 -345h-34l105 345h224z" />
    <glyph glyph-name="omegatonos" unicode="&#x3ce;" horiz-adv-x="1348" 
d="M675 170q-87 -198 -266 -198q-125 0 -229.5 115.5t-104.5 332.5q0 178 62.5 290.5t163.5 172.5t269 60v-37q-148 0 -230 -122t-82 -346q0 -227 53.5 -311t126.5 -84q47 0 91.5 29t62.5 61.5t55 133.5q-63 132 -63 279q0 223 91 223t91 -206q0 -142 -66 -296
q72 -224 206 -224q75 0 129.5 78.5t54.5 296.5q0 182 -35.5 278.5t-105.5 151t-171 58.5v37q168 0 269 -61t163 -172t62 -287q0 -220 -100.5 -335.5t-234.5 -115.5q-184 0 -262 198zM898 1390l-295 -345h-34l105 345h224z" />
    <glyph glyph-name="uni2015" unicode="&#x2015;" horiz-adv-x="2048" 
d="M65 458v145h1919v-145h-1919z" />
    <glyph glyph-name="uni2116" unicode="&#x2116;" horiz-adv-x="1954" 
d="M511 1356l504 -913v435q0 211 15.5 296.5t80.5 140.5t162 55q76 0 119 -38t43 -87q0 -40 -29.5 -70.5t-75.5 -30.5q-44 0 -87 27q-50 31 -71 31q-38 0 -53.5 -38.5t-15.5 -179.5v-1015h-45l-619 1107v-652q0 -218 -27 -299t-92 -118.5t-142 -37.5q-83 0 -122.5 38
t-39.5 85q0 43 30.5 69.5t74.5 26.5q40 0 90 -27q56 -30 77 -30q37 0 50 50t13 225v697q0 112 -14 146t-56.5 51.5t-124.5 18.5v37h355zM1567 944q119 0 218 -82.5t99 -238.5q0 -139 -84 -223.5t-198 -84.5q-129 0 -222.5 95.5t-93.5 236.5q0 121 76.5 209t204.5 88z
M1560 897q-119 0 -119 -176q0 -131 53.5 -245.5t132.5 -114.5q111 0 111 165q0 114 -47 242.5t-131 128.5zM1286 112h598v-112h-598v112z" />
    <glyph glyph-name="pi" unicode="&#x3c0;" horiz-adv-x="1034" 
d="M993 916v-146h-232l-20 -304q-6 -79 -6 -137q0 -139 32.5 -169.5t78.5 -30.5q96 0 114 121h36q-33 -278 -222 -278q-88 0 -141.5 54t-53.5 160q0 70 21 296l27 288h-212q-21 -364 -50.5 -532t-65 -217t-96.5 -49q-46 0 -77.5 27t-31.5 71q0 42 54 115q79 106 118 220.5
t59 364.5h-68q-82 0 -125.5 -36.5t-82.5 -104.5h-36q29 107 75 176t94.5 90t172.5 21h638z" />
    <glyph glyph-name="uni20AA" unicode="&#x20aa;" horiz-adv-x="1590" 
d="M525 0v668h151v-563h443q99 0 134.5 51t35.5 146v754h151v-761q1 -122 -76.5 -208.5t-202.5 -86.5h-636zM914 387v366q0 105 -38.5 152t-131.5 47h-443v-952h-151v1056h636q166 0 222.5 -79t56.5 -217v-373h-151z" />
    <glyph glyph-name="uni200C" unicode="&#x200c;" horiz-adv-x="0" 
d="M36 1289v-1564h-72v1564h72z" />
    <glyph glyph-name="uni200D" unicode="&#x200d;" horiz-adv-x="0" 
d="M36 -275h-72v1389l-134 -136l-49 49l171 169l-171 168l49 49l170 -171l170 171l49 -49l-171 -168l171 -169l-49 -49l-134 136v-1389z" />
    <glyph glyph-name="uni200E" unicode="&#x200e;" horiz-adv-x="0" 
d="M430 1198l-217 -214l-49 49l137 130h-266v-1438h-71v1509h337l-137 130l49 49z" />
    <glyph glyph-name="uni200F" unicode="&#x200f;" horiz-adv-x="0" 
d="M35 -275h-71v1438h-266l137 -130l-49 -49l-217 214l217 215l49 -49l-137 -130h337v-1509z" />
    <glyph glyph-name="Ohorn" unicode="&#x1a0;" 
d="M1207 1187q193 -200 193 -501q0 -306 -193.5 -511.5t-473.5 -205.5q-283 0 -472 200.5t-189 513.5q0 323 220 527q192 178 457 177q85 0 193.5 -33t158.5 -33q55 0 88 7q20 5 30 26q4 9 1 14q-1 1 -23 16t-32 32q-19 34 -11 65q9 33 44 52.5t73 7.5q45 -14 65 -57.5
t3 -96.5q-19 -58 -84 -85q-42 -17 -154 -17q23 -18 106 -98zM730 1314q-182 0 -292 -135q-137 -168 -137 -492q0 -333 142 -511q108 -136 288 -136q200 0 315 149q125 161 125 470q0 316 -112 485.5t-329 169.5z" />
    <glyph glyph-name="ohorn" unicode="&#x1a1;" horiz-adv-x="1083" 
d="M481 878q-134 0 -193 -142q-33 -79 -33 -203q0 -205 79 -345q83 -145 210 -145q223 0 223 355q0 243 -105 384q-72 96 -181 96zM942 761q30 14 19 32q-19 10 -54 48q-20 34 -11 66q8 32 43 51.5t74 8.5q44 -14 64.5 -58t3.5 -96q-20 -59 -84 -85q-33 -13 -100 -21
q56 -105 56 -232t-59 -249q-62 -128 -162 -190q-104 -64 -231 -64q-207 0 -329 165q-103 139 -103 312q0 128 63.5 252t164.5 183t215 59q208 0 334 -158q16 -20 29 -41q20 2 67 17z" />
    <glyph glyph-name="Uhorn" unicode="&#x1af;" horiz-adv-x="1589" 
d="M1406 1319q-79 0 -123 -67q-21 -32 -21 -144v-550q0 -209 -40 -317q-44 -114 -159 -192q-119 -81 -323 -81q-396 0 -500 284q-32 88 -32 334v530q0 120 -35 164q-30 39 -111 39h-51v37h586v-37h-52q-84 0 -120 -53q-25 -36 -25 -150v-591q0 -239 67 -340
q87 -131 285 -131q132 0 237.5 57.5t144 148.5t38.5 307v549q0 127 -28 159q-39 44 -116 44h-51v37h460q36 0 75 18q30 14 19 33q-19 9 -54 48q-20 34 -11 65q8 32 44 52q21 13 44 13q59 0 90 -54q15 -27 15 -58q0 -22 -8 -47q-19 -58 -84 -85q-55 -22 -130 -22h-31z" />
    <glyph glyph-name="uhorn" unicode="&#x1b0;" horiz-adv-x="1110" 
d="M958 761q30 14 19 32q0 1 -22.5 16t-31.5 32q-20 34 -11 66q8 32 43 51.5t74 8.5q44 -14 64.5 -58t3.5 -96q-20 -59 -84 -85q-54 -22 -146 -23v-344q0 -147 7 -195q6 -33 25 -49q16 -14 38 -14q31 0 70 17l14 -35l-274 -113h-45v194q-112 -121 -180 -161
q-57 -33 -131 -33q-162 0 -212 159q-22 70 -22 198v409q0 101 -55 129q-28 13 -100 12v37h321v-613q0 -208 152 -208q43 0 97.5 27t129.5 103v519q0 79 -29 106t-118 29v37h312v-172q31 2 91 17z" />
    <glyph glyph-name="dong" unicode="&#x20ab;" horiz-adv-x="1050" 
d="M638 1175h-203v57h202q-2 63 -14 83q-9 15 -35 15q-18 0 -48 -11l-9 25l191 78h31v-190h107v-57h-107v-493q0 -153 22 -172q12 -10 27 -10q19 0 50 12l8 -24l-190 -79h-32v91q-88 -91 -188 -91q-107 0 -183 87q-78 91 -78 226q0 143 86 252q91 114 223 114q85 0 140 -54
v141zM638 549v330q-9 105 -81 146q-34 20 -67 20q-62 0 -110 -56q-63 -72 -63 -212q0 -134 61 -216q56 -75 137 -75q64 0 123 63zM162 287v58h703v-58h-703z" />
    <glyph glyph-name="uni1EA0" unicode="&#x1ea0;" 
d="M937 454h-525l-92 -214q-34 -79 -34 -118q0 -31 29.5 -54.5t127.5 -30.5v-37h-427v37q85 15 110 39q51 48 113 195l477 1116h35l472 -1128q57 -136 103.5 -176.5t129.5 -45.5v-37h-535v37q81 4 109.5 27t28.5 56q0 44 -40 139zM909 528l-230 548l-236 -548h466zM697 -120
q47 0 79 -32.5t32 -78.5t-32.5 -78.5t-78.5 -32.5t-78.5 32.5t-32.5 78.5q0 47 32.5 79t78.5 32z" />
    <glyph glyph-name="uni1EA1" unicode="&#x1ea1;" horiz-adv-x="909" 
d="M583 132q-141 -109 -177 -126q-54 -25 -115 -25q-95 0 -156.5 65t-61.5 171q0 67 30 116q41 68 142.5 128t337.5 146v36q0 137 -43.5 188t-126.5 51q-63 0 -100 -34q-38 -34 -38 -78l2 -58q0 -46 -23.5 -71t-61.5 -25q-37 0 -60.5 26t-23.5 71q0 86 88 158t247 72
q122 0 200 -41q59 -31 87 -97q18 -43 18 -176v-311q0 -131 5 -160.5t16.5 -39.5t26.5 -10q16 0 28 7q21 13 81 73v-56q-112 -150 -214 -150q-49 0 -78 34t-30 116zM583 197v349q-151 -60 -195 -85q-79 -44 -113 -92t-34 -105q0 -72 43 -119.5t99 -47.5q76 0 200 100z
M397 -120q47 0 79 -32.5t32 -78.5t-32.5 -78.5t-78.5 -32.5t-78.5 32.5t-32.5 78.5q0 47 32.5 79t78.5 32z" />
    <glyph glyph-name="uni1EA2" unicode="&#x1ea2;" 
d="M937 454h-525l-92 -214q-34 -79 -34 -118q0 -31 29.5 -54.5t127.5 -30.5v-37h-427v37q85 15 110 39q51 48 113 195l477 1116h35l472 -1128q57 -136 103.5 -176.5t129.5 -45.5v-37h-535v37q81 4 109.5 27t28.5 56q0 44 -40 139zM909 528l-230 548l-236 -548h466zM830 1613
q-51 -49 -62 -68t-13 -55h-34q4 68 50 141q32 52 32 84q0 74 -73 74q-34 0 -51 -16q-7 -7 -7 -14t11 -24.5t11 -27.5q0 -35 -38 -35q-50 0 -50 57q0 41 39.5 68.5t99.5 27.5q78 0 115 -39q29 -30 29 -66q0 -50 -59 -107z" />
    <glyph glyph-name="uni1EA3" unicode="&#x1ea3;" horiz-adv-x="909" 
d="M583 132q-141 -109 -177 -126q-54 -25 -115 -25q-95 0 -156.5 65t-61.5 171q0 67 30 116q41 68 142.5 128t337.5 146v36q0 137 -43.5 188t-126.5 51q-63 0 -100 -34q-38 -34 -38 -78l2 -58q0 -46 -23.5 -71t-61.5 -25q-37 0 -60.5 26t-23.5 71q0 86 88 158t247 72
q122 0 200 -41q59 -31 87 -97q18 -43 18 -176v-311q0 -131 5 -160.5t16.5 -39.5t26.5 -10q16 0 28 7q21 13 81 73v-56q-112 -150 -214 -150q-49 0 -78 34t-30 116zM583 197v349q-151 -60 -195 -85q-79 -44 -113 -92t-34 -105q0 -72 43 -119.5t99 -47.5q76 0 200 100z
M550 1168q-51 -49 -62 -68t-13 -55h-34q4 68 50 141q32 52 32 84q0 74 -73 74q-34 0 -51 -16q-7 -7 -7 -14t11 -24.5t11 -27.5q0 -35 -38 -35q-50 0 -50 57q0 41 39.5 68.5t99.5 27.5q78 0 115 -39q29 -30 29 -66q0 -50 -59 -107z" />
    <glyph glyph-name="uni1EA4" unicode="&#x1ea4;" 
d="M937 454h-525l-92 -214q-34 -79 -34 -118q0 -31 29.5 -54.5t127.5 -30.5v-37h-427v37q85 15 110 39q51 48 113 195l477 1116h35l472 -1128q57 -136 103.5 -176.5t129.5 -45.5v-37h-535v37q81 4 109.5 27t28.5 56q0 44 -40 139zM909 528l-230 548l-236 -548h466zM640 1637
h166l171 -145h-28l-230 77l-222 -77h-27zM704 1675h-35l50 150h223z" />
    <glyph glyph-name="uni1EA5" unicode="&#x1ea5;" horiz-adv-x="909" 
d="M583 132q-141 -109 -177 -126q-54 -25 -115 -25q-95 0 -156.5 65t-61.5 171q0 67 30 116q41 68 142.5 128t337.5 146v36q0 137 -43.5 188t-126.5 51q-63 0 -100 -34q-38 -34 -38 -78l2 -58q0 -46 -23.5 -71t-61.5 -25q-37 0 -60.5 26t-23.5 71q0 86 88 158t247 72
q122 0 200 -41q59 -31 87 -97q18 -43 18 -176v-311q0 -131 5 -160.5t16.5 -39.5t26.5 -10q16 0 28 7q21 13 81 73v-56q-112 -150 -214 -150q-49 0 -78 34t-30 116zM583 197v349q-151 -60 -195 -85q-79 -44 -113 -92t-34 -105q0 -72 43 -119.5t99 -47.5q76 0 200 100z
M366 1385h184l190 -331h-31l-273 213l-229 -213h-30zM401 1491h-35l106 334h223z" />
    <glyph glyph-name="uni1EA6" unicode="&#x1ea6;" 
d="M937 454h-525l-92 -214q-34 -79 -34 -118q0 -31 29.5 -54.5t127.5 -30.5v-37h-427v37q85 15 110 39q51 48 113 195l477 1116h35l472 -1128q57 -136 103.5 -176.5t129.5 -45.5v-37h-535v37q81 4 109.5 27t28.5 56q0 44 -40 139zM909 528l-230 548l-236 -548h466zM640 1637
h166l171 -145h-28l-230 77l-222 -77h-27zM496 1825h223l50 -150h-35z" />
    <glyph glyph-name="uni1EA7" unicode="&#x1ea7;" horiz-adv-x="909" 
d="M583 132q-141 -109 -177 -126q-54 -25 -115 -25q-95 0 -156.5 65t-61.5 171q0 67 30 116q41 68 142.5 128t337.5 146v36q0 137 -43.5 188t-126.5 51q-63 0 -100 -34q-38 -34 -38 -78l2 -58q0 -46 -23.5 -71t-61.5 -25q-37 0 -60.5 26t-23.5 71q0 86 88 158t247 72
q122 0 200 -41q59 -31 87 -97q18 -43 18 -176v-311q0 -131 5 -160.5t16.5 -39.5t26.5 -10q16 0 28 7q21 13 81 73v-56q-112 -150 -214 -150q-49 0 -78 34t-30 116zM583 197v349q-151 -60 -195 -85q-79 -44 -113 -92t-34 -105q0 -72 43 -119.5t99 -47.5q76 0 200 100z
M366 1385h184l190 -331h-31l-273 213l-229 -213h-30zM221 1825h223l106 -334h-35z" />
    <glyph glyph-name="uni1EA8" unicode="&#x1ea8;" 
d="M937 454h-525l-92 -214q-34 -79 -34 -118q0 -31 29.5 -54.5t127.5 -30.5v-37h-427v37q85 15 110 39q51 48 113 195l477 1116h35l472 -1128q57 -136 103.5 -176.5t129.5 -45.5v-37h-535v37q81 4 109.5 27t28.5 56q0 44 -40 139zM909 528l-230 548l-236 -548h466zM640 1637
h166l171 -145h-28l-230 77l-222 -77h-27zM812 1711q-46 -15 -56 -27q-5 -3 -12 -26h-31q4 32 45 63q31 23 30 38q-2 44 -67 44q-51 0 -51 -17q0 -5 9.5 -15.5t9.5 -16.5q0 -21 -34 -21q-44 0 -44 34q0 58 124 58q130 0 130 -63q0 -17 -11 -28.5t-42 -22.5z" />
    <glyph glyph-name="uni1EA9" unicode="&#x1ea9;" horiz-adv-x="909" 
d="M583 132q-141 -109 -177 -126q-54 -25 -115 -25q-95 0 -156.5 65t-61.5 171q0 67 30 116q41 68 142.5 128t337.5 146v36q0 137 -43.5 188t-126.5 51q-63 0 -100 -34q-38 -34 -38 -78l2 -58q0 -46 -23.5 -71t-61.5 -25q-37 0 -60.5 26t-23.5 71q0 86 88 158t247 72
q122 0 200 -41q59 -31 87 -97q18 -43 18 -176v-311q0 -131 5 -160.5t16.5 -39.5t26.5 -10q16 0 28 7q21 13 81 73v-56q-112 -150 -214 -150q-49 0 -78 34t-30 116zM583 197v349q-151 -60 -195 -85q-79 -44 -113 -92t-34 -105q0 -72 43 -119.5t99 -47.5q76 0 200 100z
M366 1385h184l190 -331h-31l-273 213l-229 -213h-30zM570 1613q-51 -49 -62 -68t-13 -55h-34q4 68 50 141q32 52 32 84q0 74 -73 74q-34 0 -51 -16q-7 -7 -7 -14t11 -24.5t11 -27.5q0 -35 -38 -35q-50 0 -50 57q0 41 39.5 68.5t99.5 27.5q78 0 115 -39q29 -30 29 -66
q0 -50 -59 -107z" />
    </font>
</defs>
</svg>
